<svg xmlns="http://www.w3.org/2000/svg" width="256" height="95"><path fill="gray" d="M1 1h254v54H1zm0 71h254v24H1z"/><path fill="red" d="M3 3h12v50H3z"/><path fill="#FF2400" d="M17 3h12v50H17z"/><path fill="#FF4800" d="M31 3h12v50H31z"/><path fill="#FF6D00" d="M45 3h12v50H45z"/><path fill="#FF9100" d="M59 3h12v50H59z"/><path fill="#FFB600" d="M73 3h12v50H73z"/><path fill="#FFDA00" d="M87 3h12v50H87z"/><path fill="#FF0" d="M101 3h12v50h-12z"/><path fill="#E5F900" d="M115 3h12v50h-12z"/><path fill="#CCF400" d="M129 3h12v50h-12z"/><path fill="#B2EF00" d="M143 3h12v50h-12z"/><path fill="#99EA00" d="M157 3h12v50h-12z"/><path fill="#7FE500" d="M171 3h12v50h-12z"/><path fill="#66E000" d="M185 3h12v50h-12z"/><path fill="#4CDB00" d="M199 3h12v50h-12z"/><path fill="#33D600" d="M213 3h12v50h-12z"/><path fill="#19D100" d="M227 3h12v50h-12z"/><path fill="#0C0" d="M241 3h12v50h-12z"/><path fill="#1E6EAD" d="m198 35 16 33h-32z"/><path d="M3 21h178v14H3z"/><text x="5" y="91" fill="#fff" font-family="Arial, Helvetica, sans-serif" font-size="20">Septiembre ‧ 112.3h ‧ 82%</text></svg>