<svg xmlns="http://www.w3.org/2000/svg" xml:space="preserve" width="180" height="216" style="shape-rendering:geometricPrecision;text-rendering:geometricPrecision;image-rendering:optimizeQuality;fill-rule:evenodd;clip-rule:evenodd"><path d="M0 0h180v216H0z" style="fill:none"/><path d="m57.826 129.957.672 1.244c1.095 2.241 2.944 5.031 3.672 6.12.723 1.081 4.945 4.549 5.805 5.068l7.618 4.602c1.058.546 1.994.937 3.047 1.152 1.461.297 5.04 1.593 6.503 1.637 1.307.039 2.731.199 3.859.197 10.672-.381 13.495-1.568 22.517-7.006.036-.022.082-.046.117-.067l7.192-7.278c.938-1.466 2.08-2.849 2.785-4.382 1.156-2.515 2.582-4.949 3.138-7.719.388-1.938.99-3.632 1.041-5.668.683-8.967-.754-17.707-6.214-24.643-.359-.455-.102-.155-.391-.641-.269-.452-.694-.76-1.047-1.219-1.275-1.653-2.667-2.995-4.169-4.4l-.866-.727-.206-.152-1.2-1.057c-1.657-1.472-4.738-2.869-6.704-3.958l-8.006-2.653c-4.017-1.045-20.347-.617-24.778-.617-.898 0-.575 1.81-.575 2.638.001 3.023.263 6.384-.048 9.358-.752.05-1.53-.475-2.135-.844l-3.971-2.322c-3.65-2.148-7.434-4.169-11.032-6.447l-5.807-3.444c-.237-.134-.456-.26-.665-.384l-2.8-1.583-.109-.069c-.032-.02-.073-.051-.104-.071l-.992-.574c-1.735-1.029-3.71-1.821-5.342-2.911-.433-.288-.824-.572-1.262-.822l-2.704-1.35c-.848-.467.216.254-.43-.377-.511-.498-2.121-1.312-2.724-1.675-.61-.367-1.306-.509-1.856-1.002 1.043-.677-.18-.157 2.316-1.408.404-.202.715-.487 1.159-.761.499-.309.707-.304 1.184-.582 1.157-.676 2.403-1.333 3.441-2.151l2.311-1.326c2.052-.93 3.891-2.322 5.94-3.351.821-.412 1.662-.788 2.399-1.292 2.976-2.034 6.197-3.733 9.341-5.512l3.821-1.965c1.64-1.293 5-2.893 5.222-3.705 1.125-.09 1.193-.313 2.014-.756l1.093-.657c.37-.239 1.18-.622 1.711-.601.098 1.906.029 3.955.029 5.876 0 .651-.287 5.381.206 5.808.43.372 19.177.13 19.959.13 1.797-.001 3.718.254 5.293.46.805.105 1.625.13 2.408.218 1.022.114 1.055.281 2.097.39.907.095 1.215.465 1.953.571 1.324.19 2.669.621 3.928 1.016 3.073.963 6.236 1.924 9.18 3.463 1.158.605 3.935 2.037 4.731 2.798.456.436 1.049.551 1.529.89l1.584 1.036c1.259.79 2.644 1.582 3.743 2.572.29.261.408.317.652.563.393.395.223.369.728.7l3.126 2.972c.687.696 1.426 1.027 1.918 1.893.419.735 1.218 1.394 1.749 1.958l3.337 4.348c.25.356.224.418.454.773l1.893 3.031c.365.453-.328.131.619.441l.292.922c.021.032.064.061.085.09l1.046 2.44c.289.573.559.836.784 1.463l1.312 3.26c1.133 2.151 1.937 6.317 2.267 7.005.417.872.801 4.465 1.143 5.692.282 1.012.293 2.956.437 4.112.518 4.173.155 8.815-.259 12.936-.116 1.152-.422 2.016-.503 3.189-.085 1.233-.41 1.842-.616 3.042l-1.721 5.596c-.461 1.111-1.259 2.909-1.516 4.126-.219 1.034-.112.253-.546 1.196l-5.382 9.285c-.299.4-.485.731-.795 1.137l-4.588 5.731c-.023.027-.06.063-.084.089-.024.027-.061.062-.086.088l-4.131 3.736-.095.088-3.833 3.164c-.496.419-.392.448-1.068.73-1.191.497-1.251 1.117-2.011 1.599l-11.109 5.539c-.943.284-.407.353-1.235.516-1.234.242-1.089.382-2.064.693-.232.075-.399.197-.587.289l-7.485 1.774c-1.139.087-1.934.46-3.145.514-5.249.238-7.178.647-12.81.071-1.232-.126-2.123-.211-3.267-.405-.503-.085-1.177-.108-1.715-.216-7.34-1.471-17.476-5.372-23.532-9.534-6.91-5.097-10.468-8.877-15.375-15.597-1.806-2.986-3.659-6.055-5.381-9.089-1.649-3.304-3.775-10.34-4.382-14.012-.173-1.045-.517-2.085-.613-2.982-.233-2.168-.462-4.553-.462-6.794 0-1.065-.254-1.519 1.065-1.519h22.214c1.298 0 1.191.065 1.177 1.338-.053 4.751 1.512 10.599 3.677 14.904" style="fill:#003d5c"/></svg>