<svg xmlns="http://www.w3.org/2000/svg" width="180" height="216" fill="none"><path fill="#C4C4C4" fill-rule="evenodd" d="M90 28.954c3.166-.003 6.333-.009 9.498-.009 8.224-.002 12.414-.75 16.296 5.13 3.421 5.183 3.157 12.707 5.347 17.959 4.882.654 18.455-1.326 21.042 1.393l9.972 13.445-3.099 8.222L90 75.117l-59.056-.023-3.099-8.222 9.972-13.445c2.587-2.719 16.16-.739 21.042-1.393 2.19-5.252 1.926-12.776 5.347-17.959 3.882-5.88 8.072-5.132 16.296-5.13 3.165 0 6.332.006 9.498.009m0 27.321 19.485.189c-.258-3.066-.717-5.688-1.218-8.688-.76-4.544-.675-4.629-2.242-7.707L90 40.072l-16.025-.003c-1.567 3.078-1.482 3.163-2.242 7.707-.501 3-.96 5.622-1.218 8.688zm-46.887 96.131c-1.002-10.876-2.325-21.651-3.312-32.49-.916-10.061-3.164-22.375-3.517-32.203L90 87.777l53.716-.064c-.353 9.828-2.601 22.142-3.517 32.203-.987 10.839-2.31 21.614-3.312 32.49-3.503 38.025-.904 34.601-45.369 34.601h-3.036c-44.465 0-41.866 3.424-45.369-34.601" clip-rule="evenodd"/><path fill="#fff" d="M123.557 111.258c.387-3.707-1.679-6.961-4.614-7.267s-5.628 2.45-6.015 6.157l-5.869 56.218c-.387 3.707 1.679 6.961 4.614 7.267s5.628-2.45 6.015-6.157zm-28.214-.868c0-3.727-2.392-6.749-5.343-6.749s-5.343 3.022-5.343 6.749v56.523c0 3.727 2.392 6.749 5.343 6.749s5.343-3.022 5.343-6.749zm-22.402 55.976c.387 3.707-1.678 6.961-4.613 7.267s-5.628-2.45-6.015-6.158l-5.869-56.217c-.387-3.707 1.678-6.961 4.613-7.267s5.628 2.45 6.015 6.157z"/></svg>