<svg xmlns="http://www.w3.org/2000/svg" viewBox="0 0 512 512"><path fill="none" d="M0 0h512v512H0z"/><path d="M255.97 296.03c28.51 0 54.64-9.15 74.99-24.36 28.63 8.31 62.69 20.56 82.99 33.51 25.67 16.37 41.27 34.53 47.54 71.63 2.9 17.13 3.56 35.58 4.09 53.38.95 32.15 2.93 27.34-32.3 27.34H78.66c-35.24 0-33.25 4.81-32.3-27.34.53-17.8 1.19-36.25 4.08-53.38 6.27-37.1 21.88-55.26 47.54-71.63 20.3-12.95 54.36-25.2 83-33.51 20.35 15.21 46.48 24.36 74.99 24.36m0-241.75c57.14 0 103.46 46.32 103.46 103.47 0 57.14-46.32 103.46-103.46 103.46s-103.46-46.32-103.46-103.46c0-57.15 46.32-103.47 103.46-103.47"/><path fill="#fff" d="M347.46 445.93h41.2v-50.29h50.29v-41.2h-50.29v-50.29h-41.2v50.29h-50.28v41.2h50.28z"/></svg>