<svg xmlns="http://www.w3.org/2000/svg" xmlns:xlink="http://www.w3.org/1999/xlink" width="180" height="216"><defs><path id="a" d="M55.8 117.61c6.79-7.18 18.17-6.78 25.43.89 7.25 7.67 7.63 19.71.85 26.89-3.3 3.49-29.66 31.37-32.96 34.85-6.78 7.18-18.17 6.78-25.42-.89-7.26-7.68-7.63-19.72-.85-26.89z"/><path id="b" d="M67.73 133.43c-22.74-24.06-22.74-63.07 0-87.12 22.75-24.06 59.63-24.06 82.38 0 22.74 24.05 22.74 63.06 0 87.12-22.75 24.05-59.63 24.05-82.38 0"/><path id="c" d="M81.57 118.13c-14.7-15.55-14.7-40.76 0-56.31 14.71-15.55 38.55-15.55 53.25 0s14.7 40.76 0 56.31c-14.7 15.56-38.54 15.56-53.25 0"/><path id="d" d="M136.6 84.44c1.93 7.15 2.9 24.5-6.75 22.46-6.76-1.02-4.83-8.17-3.87-10.21.97-7.15-1.93-14.29-5.79-17.36-7.72-7.14-1.93-13.27 2.9-13.27 5.79 1.02 12.55 12.25 13.51 18.38"/></defs><use xlink:href="#a" fill="#c7c7c7"/><use xlink:href="#a" fill-opacity="0" stroke="#000" stroke-opacity="0"/><use xlink:href="#b" fill="#c7c7c7"/><use xlink:href="#b" fill-opacity="0" stroke="#000" stroke-opacity="0"/><use xlink:href="#c" fill="#fff"/><use xlink:href="#c" fill-opacity="0" stroke="#000" stroke-opacity="0"/><use xlink:href="#d" fill="#c7c7c7"/><use xlink:href="#d" fill-opacity="0" stroke="#000" stroke-opacity="0"/></svg>