<svg xmlns="http://www.w3.org/2000/svg" viewBox="0 0 9.95 9.96"><g data-name="Layer 2"><path d="M8.79.81A3.38 3.38 0 0 0 4.42.8 3.34 3.34 0 0 0 3.3 4a.92.92 0 0 1-.3.8L.32 7.52a1.1 1.1 0 0 0 0 1.56l.55.54a1 1 0 0 0 1.48.05.3.3 0 0 0 0-.16v-.69a.24.24 0 0 1 .24-.24h.61a.24.24 0 0 0 .24-.24v-.48a.25.25 0 0 1 .25-.24h.56a.24.24 0 0 0 .24-.24v-.66a.23.23 0 0 1 .23-.24c.77 0 1.51.22 2.28.18a3.12 3.12 0 0 0 2-.93A3.36 3.36 0 0 0 8.79.81M7.61 4.33a1.45 1.45 0 0 1-2.05-2 1.45 1.45 0 0 1 2.05 2" data-name="Layer 1" style="fill:#fefefe"/></g></svg>