<svg xmlns="http://www.w3.org/2000/svg" xml:space="preserve" image-rendering="optimizeQuality" shape-rendering="geometricPrecision" text-rendering="geometricPrecision" viewBox="0 0 180 216"><path d="M0 0h180v216H0z" style="fill:none"/><path d="M90 197c12 0 22-10 22-22h51c13 0 10-23 4-29-4-4-8-6-12-10-20-30 3-77-50-93 1-2 2-5 2-7 0-10-8-17-17-17s-17 7-17 17c0 2 1 5 2 7-53 16-30 63-50 93-4 4-8 6-12 10-6 6-9 29 4 29h51c0 12 10 22 22 22m0-155c-4 0-7-3-7-6 0-4 3-7 7-7s7 3 7 7c0 3-3 6-7 6m11 133c0 15-22 15-22 0z" style="fill:#164d72"/></svg>