<svg xmlns="http://www.w3.org/2000/svg" width="180" height="216" fill-rule="evenodd" clip-rule="evenodd" image-rendering="optimizeQuality" shape-rendering="geometricPrecision" text-rendering="geometricPrecision"><path fill="none" d="M0 0h180v216H0z"/><path fill="#1e6dad" d="M161 55c0 4 0 8-2 11-2 4-4 6-6 8-4 5-8 10-13 15l-66 72c-4 5-9 11-14 14-6 4-15 5-23 3-14-5-22-21-16-35 1-4 3-7 5-9s4-5 6-7c18-20 36-39 53-58 5-5 9-10 14-15 0 0 1-1 1-2 1-3-2-5-5-5-2 1-3 3-4 4L62 83c-9 10-18 19-27 29-4 5-16 17-19 22-6 11-6 23-1 34 10 20 37 26 54 10 3-2 5-5 7-7 2-3 5-5 7-8l76-83c3-4 6-7 8-12 9-23-15-47-38-36-3 1-5 2-7 4-3 2-6 6-8 8l-60 66c-4 4-8 10-8 19 0 4 1 8 3 11l7 7c7 4 15 4 22 0 3-1 6-4 8-6l33-36c3-3 8-8 10-11 3-4-1-8-5-6-1 0-8 8-10 10-9 10-17 19-26 29l-8 9c-4 4-12 7-18 5-2-1-5-4-6-5-3-4-2-10-1-14 2-4 4-6 6-8l53-58c3-3 10-12 13-14 6-5 14-6 22-3 5 2 10 8 12 16"/></svg>