<svg xmlns="http://www.w3.org/2000/svg" width="180" height="216" fill-rule="evenodd" clip-rule="evenodd" image-rendering="optimizeQuality" shape-rendering="geometricPrecision" text-rendering="geometricPrecision"><path fill="none" d="M0 0h180v216H0z"/><path fill="#c7c7c7" d="m64 128 8-41 41-6-37-19 7-41-30 29-37-20 19 38L5 97l41-6zm57-63 9-12 14 4-9-12 9-12-14 5-9-12v15l-14 5 14 4zM28 168l9-9 12 5-7-11 9-10-13 3-6-11-1 13-13 2 12 5zm35 17 7-4 6 6-1-8 7-4-8-1-1-8-4 7-8-1 6 6z"/><rect width="129.189" height="16.617" fill="#c7c7c7" rx="8" ry="8" transform="rotate(46.058 -63.735 146.882)scale(1.03177)"/></svg>