<svg xmlns="http://www.w3.org/2000/svg" xml:space="preserve" width="180" height="216" fill-rule="evenodd" clip-rule="evenodd" image-rendering="optimizeQuality" shape-rendering="geometricPrecision" text-rendering="geometricPrecision"><path fill="none" d="M0 0h180v216H0z"/><path fill-rule="nonzero" d="M61 142h58l29 21H32zm-15 10"/><rect width="96.908" height="9.711" rx="5" ry="5" transform="matrix(.19573 -.113 .5 .86603 24.942 139.954)"/><rect width="21.902" height="9.711" x="18" y="103" rx="1" ry="5"/><rect width="96.908" height="9.711" rx="5" ry="5" transform="matrix(.19573 .113 -.5 .86603 29.798 67.635)"/><rect width="96.908" height="9.711" rx="5" ry="5" transform="matrix(.113 .19573 -.86603 .5 58.046 42.942)"/><rect width="96.908" height="9.711" rx="5" ry="5" transform="matrix(0 .22601 -1 0 94.856 35.68)"/><rect width="96.908" height="9.711" rx="5" ry="5" transform="matrix(-.113 .19573 -.86603 -.5 130.365 47.798)"/><rect width="96.908" height="9.711" rx="5" ry="5" transform="matrix(-.19573 .113 -.5 -.86603 155.058 76.046)"/><rect width="21.902" height="9.711" x="140" y="103" rx="1" ry="5"/><rect width="96.908" height="9.711" rx="5" ry="5" transform="matrix(-.19573 -.113 .5 -.86603 150.202 148.365)"/><path d="M90 42c36 0 66 30 66 66 0 15-5 29-14 40l7 4c9-13 14-28 14-44 0-40-33-73-73-73s-73 33-73 73c0 16 5 31 14 44l7-4c-9-11-14-25-14-40 0-36 30-66 66-66"/><path d="M79 97c4-5 11-6 17-4l19-19c2-2 6-2 9 0 2 3 2 7 0 9l-19 19c2 6 1 13-4 17-6 7-16 7-22 0-7-6-7-16 0-22"/></svg>