<svg xmlns="http://www.w3.org/2000/svg" width="180" height="216" fill-rule="evenodd" clip-rule="evenodd" image-rendering="optimizeQuality" shape-rendering="geometricPrecision" text-rendering="geometricPrecision"><path fill="none" d="M0 0h180v216H0z"/><path fill="#1e6dad" d="M35 187h122c7 0 12-5 12-12V41c0-7-5-12-12-12H23c-7 0-12 5-12 12v122z"/><path fill="#fff" d="M47 119h86c8 0 15-6 15-14V36H33v69c0 8 6 14 14 14m0 65h84v-42c0-5-3-8-7-8H54c-4 0-7 3-7 8z"/><path fill="#103656" d="M60 138h21.395v41.104H60z"/><path fill="#fff" d="M17 36h9.498v9.498H17z"/><path fill="#103656" d="M45 48h89.889v11.52H45zm0 24h89.889v11.52H45zm0 24h89.889v11.52H45z"/></svg>