<svg xmlns="http://www.w3.org/2000/svg" width="180" height="216" fill-rule="evenodd" clip-rule="evenodd" image-rendering="optimizeQuality" shape-rendering="geometricPrecision" text-rendering="geometricPrecision"><circle cx="67" cy="116" r="12"/><circle cx="111" cy="116" r="12"/><path d="M110 146c0 8-9 15-20 15s-19-7-20-15c6 3 13 4 20 4 8 0 15-1 20-4m25-47c5 1 8 2 7-3-4-28-26-49-52-49-29 0-53 27-53 60v5c2-3 3-5 5-7 3-2 5-3 12-3 15 1 43-9 58-30 2 21 12 22 23 27"/><path d="M82 177c-22-3-40-20-49-42-1-6-5-6-8-10-7-9-6-24 0-31 3-5 4-3 9-15 9-24 31-41 56-41s47 17 56 41c5 12 6 10 9 15 6 7 7 22 0 31-2 2-4 3-6 5-2 3-6 0-5-5q3-7.5 3-18c0-35-26-64-57-64s-57 30-57 64c0 35 22 60 50 64 0-1 1-1 3-1s4 2 4 4c0 3-2 4-4 4s-3 0-4-1"/></svg>