<svg xmlns="http://www.w3.org/2000/svg" xml:space="preserve" id="Layer_1" x="0" y="0" version="1.1" viewBox="0 0 10 10"><style>.st0{fill:#646464}</style><path d="M5.5 3.3c.1.2.2.3.2.6 0 .2 0 .3-.1.4 0 .1-.1.2-.2.2l-.3.3c-.2.2-.4.5-.5.7s-.1.4-.1.7h.6c0-.3 0-.5.1-.6s.2-.3.4-.5l.6-.6c.1-.1.1-.3.1-.6 0-.4-.1-.7-.4-1-.2-.3-.6-.4-1-.4-.5 0-.9.2-1.1.5s-.4.6-.4 1.1H4c0-.3 0-.5.1-.6.1-.3.4-.5.8-.5q.45 0 .6.3" class="st0"/><path d="M10 5c0-2.8-2.2-5-5-5S0 2.2 0 5s2.2 5 5 5 5-2.2 5-5M.5 5C.5 2.5 2.5.5 5 .5s4.5 2 4.5 4.5-2 4.5-4.5 4.5S.5 7.5.5 5" class="st0"/><path d="M4.5 6.8h.7v.7h-.7z" class="st0"/></svg>