<svg xmlns="http://www.w3.org/2000/svg" xml:space="preserve" width="497.199" height="497.199"><path fill="#6d6d6d" d="M191.2 248.6c0-15.3 5.7-28.7 17.2-40.2s24.9-17.2 40.2-17.2zM174 265.8c-1.9-5.7-1.9-11.5-1.9-17.2 0-42.1 34.4-76.5 76.5-76.5 5.701 0 11.5 0 17.201 1.9l51.6-51.6c-21-5.7-44-7.7-68.9-7.7C76.5 114.7 0 248.6 0 248.6s30.6 53.5 97.5 93.7zm132-17.2L248.6 306c15.3 0 28.701-5.7 40.201-17.2C300.199 277.3 306 263.899 306 248.6m93.699-93.701-76.5 76.5c1.9 5.7 1.9 11.5 1.9 17.2 0 42.1-34.4 76.5-76.5 76.5-5.7 0-11.5 0-17.2-1.9L179.8 374.8c21 5.7 44 7.6 68.8 7.6 172.099 0 248.599-133.9 248.599-133.9s-30.599-53.4-97.5-93.601m1.701-78-324.5 324.5 18.9 18.9L420.4 95.7z"/></svg>