<svg xmlns="http://www.w3.org/2000/svg" width="600" height="543" style="font-family:Open Sans,sans-serif;font-size:16px"><defs xmlns="http://www.w3.org/2000/svg"><clipPath id="a"><path d="M0 0h600v543H0z"/></clipPath><clipPath id="b"><path d="M0 0h492v403H0z"/></clipPath><linearGradient id="d" x1="1%" x2="99%" y1="59%" y2="41%"><stop offset="0" stop-color="#474758"/><stop offset=".75" stop-color="#474758"/><stop offset=".755" stop-color="#3cabff"/></linearGradient><filter id="c" width="120%" height="120%" x="-10%" y="-10%" filterUnits="objectBoundingBox"><feColorMatrix type="saturate" values="0"/></filter></defs><g xmlns="http://www.w3.org/2000/svg"><path fill="none" d="M0 0h600v543H0z"/><g aria-label="Chart" clip-path="url(#a)"><text y="38" dy="-10.26" font-size="28" style="user-select:none" transform="translate(110.5 15)"><tspan>Horas registradas mes a mes</tspan></text><path fill="none" d="M93 53h492v403H93z"/><path fill="none" stroke="#000" stroke-opacity=".15" d="M92.5 455.5h492m-492-45h492m-492-45h492m-492-44h492m-492-45h492m-492-45h492m-492-45h492m-492-44h492m-492-45h492m-492-45h492m-451 0v403m164-403v403m164-403v403"/><g stroke="#f3c300" stroke-opacity="0" aria-label="Series" clip-path="url(#b)" transform="translate(93 53)"><path fill="#f3c300" stroke-opacity="1" d="M15.702 372.551H66.3a7.5 7.5 0 0 1 7.5 7.5V403H8.202v-22.949a7.5 7.5 0 0 1 7.5-7.5Zm81.996-128.96h50.603a7.5 7.5 0 0 1 7.5 7.5V403H90.198V251.091a7.5 7.5 0 0 1 7.5-7.5ZM179.7.896h50.598a7.5 7.5 0 0 1 7.5 7.5V403H172.2V8.396a7.5 7.5 0 0 1 7.5-7.5Zm82.002 19.254H312.3a7.5 7.5 0 0 1 7.5 7.5V403h-65.598V27.65a7.5 7.5 0 0 1 7.5-7.5Zm81.996 114.183h50.603a7.5 7.5 0 0 1 7.5 7.5V403h-65.603V141.833a7.5 7.5 0 0 1 7.5-7.5ZM425.7 59.107h50.598a7.5 7.5 0 0 1 7.5 7.5V403H418.2V66.607a7.5 7.5 0 0 1 7.5-7.5Z" tabindex="0"/></g><g aria-hidden="true"><text y="30" dy="-8.1" font-size="22" style="user-select:none" transform="rotate(-90 150.25 135.25)"><tspan>Horas</tspan></text><text y="22" dy="-5.94" style="user-select:none" transform="translate(64 445)"><tspan>40</tspan></text><text y="22" dy="-5.94" style="user-select:none" transform="translate(64 400.222)"><tspan>50</tspan></text><text y="22" dy="-5.94" style="user-select:none" transform="translate(64 355.444)"><tspan>60</tspan></text><text y="22" dy="-5.94" style="user-select:none" transform="translate(64 310.667)"><tspan>70</tspan></text><text y="22" dy="-5.94" style="user-select:none" transform="translate(64 265.889)"><tspan>80</tspan></text><text y="22" dy="-5.94" style="user-select:none" transform="translate(64 221.111)"><tspan>90</tspan></text><text y="22" dy="-5.94" style="user-select:none" transform="translate(55 176.333)"><tspan>100</tspan></text><text y="22" dy="-5.94" style="user-select:none" transform="translate(55 131.556)"><tspan>110</tspan></text><text y="22" dy="-5.94" style="user-select:none" transform="translate(55 86.778)"><tspan>120</tspan></text><text y="22" dy="-5.94" style="user-select:none" transform="translate(55 42)"><tspan>130</tspan></text><path fill="none" d="M0 0v403" style="pointer-events:none" transform="translate(92.5 52.5)"/></g><g aria-hidden="true"><path fill="none" d="M0 0h492" style="pointer-events:none" transform="translate(92.5 455.5)"/><text y="22" dy="-5.94" overflow="hidden" style="user-select:none" transform="translate(103.501 466)"><tspan>2020-01</tspan></text><text y="22" dy="-5.94" overflow="hidden" style="user-select:none" transform="translate(267.499 466)"><tspan>2020-03</tspan></text><text y="22" dy="-5.94" overflow="hidden" style="user-select:none" transform="translate(431.5 466)"><tspan>2020-05</tspan></text><text y="30" dy="-8.1" font-size="22" style="user-select:none" transform="translate(265 498)"><tspan>Meses del año</tspan></text></g></g><g aria-labelledby="id-379-title" filter="url(#c)" opacity=".3" style="cursor:pointer" transform="translate(0 522)"><g fill="none" stroke-width="1.8"><path stroke="#3cabff" d="M15 15h12c4.2 0 6.3-9 9-9s2.7 4.5 4.5 4.5S42.3 6 45 6s6 9 9 9h6"/><path stroke="url(#d)" d="M6 15h9c5.25 0 5.775-11.4 12-11.4S33.9 15 39.9 15H60"/></g></g></g></svg>