<svg xmlns="http://www.w3.org/2000/svg" width="600" height="543" style="font-family:Open Sans,sans-serif;font-size:16px"><defs xmlns="http://www.w3.org/2000/svg"><clipPath id="a"><path d="M0 0h600v543H0z"/></clipPath><clipPath id="b"><path d="M0 0h497v400H0z"/></clipPath><linearGradient id="d" x1="1%" x2="99%" y1="59%" y2="41%"><stop offset="0" stop-color="#474758"/><stop offset=".75" stop-color="#474758"/><stop offset=".755" stop-color="#3cabff"/></linearGradient><filter id="c" width="120%" height="120%" x="-10%" y="-10%" filterUnits="objectBoundingBox"><feColorMatrix type="saturate" values="0"/></filter></defs><g xmlns="http://www.w3.org/2000/svg"><path fill="none" d="M0 0h600v543H0z"/><g aria-label="Chart" clip-path="url(#a)"><text y="41" dy="-11.07" font-size="30" style="user-select:none" transform="translate(16 15)"><tspan>Puntualidad en el registro de actividades</tspan></text><path fill="none" d="M88 56h497v400H88z"/><path fill="none" stroke="#000" stroke-opacity=".15" d="M87.5 455.5h497m-497-57h497m-497-57h497m-497-57h497m-497-58h497m-497-57h497m-497-57h497m-497-57h497m-489 0v400m128-400v400m129-400v400m128-400v400"/><g stroke="#f3c300" stroke-opacity="0" aria-label="Series" clip-path="url(#b)" transform="translate(88 56)"><path fill="red" stroke="red" stroke-opacity="1" d="M1.855 285.714h12.323a.25.25 0 0 1 .25.25V400H1.605V285.964a.25.25 0 0 1 .25-.25Zm16.029-114.285h12.328a.25.25 0 0 1 .25.25V400H17.634V171.679a.25.25 0 0 1 .25-.25ZM33.917 57.143h12.328a.25.25 0 0 1 .25.25V400H33.667V57.393a.25.25 0 0 1 .25-.25ZM49.7 400h12.828zm16.033 0h12.823zm16.033 0h12.823zm16.279-57.143h12.328a.25.25 0 0 1 .25.25V400H97.795v-56.893a.25.25 0 0 1 .25-.25ZM113.828 400h12.828zm16.283-114.286h12.328a.25.25 0 0 1 .25.25V400h-12.828V285.964a.25.25 0 0 1 .25-.25Zm16.033 57.143h12.323a.25.25 0 0 1 .25.25V400h-12.823v-56.893a.25.25 0 0 1 .25-.25ZM161.928 400h12.823zm16.028 0h12.828zm16.283-114.286h12.328a.25.25 0 0 1 .25.25V400h-12.828V285.964a.25.25 0 0 1 .25-.25Zm16.033 57.143H222.6a.25.25 0 0 1 .25.25V400h-12.828v-56.893a.25.25 0 0 1 .25-.25ZM226.055 400h12.828zm16.034 0h12.823zm16.028 0h12.828zm16.033 0h12.828zm16.033 0h12.828zm16.034 0h12.828zm16.033 0h12.823zm16.283-57.143h12.323a.25.25 0 0 1 .25.25V400h-12.823v-56.893a.25.25 0 0 1 .25-.25Zm16.028 0h12.328a.25.25 0 0 1 .25.25V400h-12.828v-56.893a.25.25 0 0 1 .25-.25Zm16.034-114.286h12.328a.25.25 0 0 1 .25.25V400h-12.828V228.821a.25.25 0 0 1 .25-.25ZM386.378 400h12.828zm16.033 0h12.823zm16.283-114.286h12.323a.25.25 0 0 1 .25.25V400h-12.823V285.964a.25.25 0 0 1 .25-.25Zm16.028-57.143h12.328a.25.25 0 0 1 .25.25V400h-12.828V228.821a.25.25 0 0 1 .25-.25Zm16.034 114.286h12.328a.25.25 0 0 1 .25.25V400h-12.828v-56.893a.25.25 0 0 1 .25-.25ZM466.539 400h12.828zm16.033 0h12.823z"/></g><g aria-hidden="true"><text y="30" dy="-8.1" font-size="22" style="user-select:none" transform="rotate(-90 174.5 159.5)"><tspan>Días de retraso</tspan></text><path fill="none" stroke="#000" stroke-opacity=".15" d="M87.5 455.5h497"/><text y="22" dy="-5.94" style="user-select:none" transform="translate(68 445)"><tspan>0</tspan></text><text y="22.016" dy="-5.944" style="user-select:none" transform="translate(68 387.857)"><tspan>1</tspan></text><text y="22.016" dy="-5.944" style="user-select:none" transform="translate(68 330.714)"><tspan>2</tspan></text><text y="22.016" dy="-5.944" style="user-select:none" transform="translate(68 273.571)"><tspan>3</tspan></text><text y="22.016" dy="-5.944" style="user-select:none" transform="translate(68 216.429)"><tspan>4</tspan></text><text y="22.016" dy="-5.944" style="user-select:none" transform="translate(68 159.286)"><tspan>5</tspan></text><text y="22.016" dy="-5.944" style="user-select:none" transform="translate(68 102.143)"><tspan>6</tspan></text><text y="22.016" dy="-5.944" style="user-select:none" transform="translate(68 45)"><tspan>7</tspan></text><path fill="none" d="M0 0v400" style="pointer-events:none" transform="translate(87.5 55.5)"/></g><g aria-hidden="true"><path fill="none" d="M0 0h497" style="pointer-events:none" transform="translate(87.5 455.5)"/><text y="22" dy="-5.94" overflow="hidden" style="user-select:none" transform="translate(54.017 466)"><tspan>2020-07-01</tspan></text><text y="22" dy="-5.94" overflow="hidden" style="user-select:none" transform="translate(182.272 466)"><tspan>2020-07-09</tspan></text><text y="22" dy="-5.94" overflow="hidden" style="user-select:none" transform="translate(310.533 466)"><tspan>2020-07-17</tspan></text><text y="22" dy="-5.94" overflow="hidden" style="user-select:none" transform="translate(438.789 466)"><tspan>2020-07-25</tspan></text><text y="30" dy="-8.1" font-size="22" style="user-select:none" transform="translate(306.5 498)"><tspan>Fecha</tspan></text></g></g><g aria-labelledby="id-19397-title" filter="url(#c)" opacity=".3" style="cursor:pointer" transform="translate(0 522)"><g fill="none" stroke-width="1.8"><path stroke="#3cabff" d="M15 15h12c4.2 0 6.3-9 9-9s2.7 4.5 4.5 4.5S42.3 6 45 6s6 9 9 9h6"/><path stroke="url(#d)" d="M6 15h9c5.25 0 5.775-11.4 12-11.4S33.9 15 39.9 15H60"/></g></g></g></svg>