<svg xmlns="http://www.w3.org/2000/svg" width="600" height="600" style="font-family:Open Sans,sans-serif;font-size:16px"><defs xmlns="http://www.w3.org/2000/svg"><clipPath id="a"><path d="M0 0h600v600H0z"/></clipPath><clipPath id="b"><path d="M0 0h492v438H0z"/></clipPath><linearGradient id="d" x1="1%" x2="99%" y1="59%" y2="41%"><stop offset="0" stop-color="#474758"/><stop offset=".75" stop-color="#474758"/><stop offset=".755" stop-color="#3cabff"/></linearGradient><filter id="c" width="120%" height="120%" x="-10%" y="-10%" filterUnits="objectBoundingBox"><feColorMatrix type="saturate" values="0"/></filter></defs><g xmlns="http://www.w3.org/2000/svg" style="pointer-events:none"><path fill="none" d="M0 0h600v600H0z"/><g aria-label="Chart" clip-path="url(#a)"><text y="38" dy="-10.26" font-size="28" style="user-select:none" transform="translate(105 15)"><tspan>Especialidades con más horas</tspan></text><path fill="none" d="M93 53h492v438H93z"/><path fill="none" stroke="#000" stroke-opacity=".15" d="M92.5 490.5h492m-492-125h492m-492-125h492m-492-188h492m-492 63h492m-492 62h492m-492 125h492m-492 125h492m-443-375v438m197-438v438m197-438v438"/><g stroke="#39F" stroke-opacity="0" aria-label="Series" clip-path="url(#b)" transform="translate(93 53)"><path fill="#39F" stroke-opacity="1" d="M17.34 21.399h63.72a7.5 7.5 0 0 1 7.5 7.5V438H9.84V28.899a7.5 7.5 0 0 1 7.5-7.5Zm98.4 61.946h63.72a7.5 7.5 0 0 1 7.5 7.5V438h-78.72V90.845a7.5 7.5 0 0 1 7.5-7.5Zm98.4 247.658h63.72a7.5 7.5 0 0 1 7.5 7.5V438h-78.72v-99.497a7.5 7.5 0 0 1 7.5-7.5Zm98.4 55.939h63.72a7.5 7.5 0 0 1 7.5 7.5V438h-78.72v-43.558a7.5 7.5 0 0 1 7.5-7.5Zm98.4-93.857h63.72a7.5 7.5 0 0 1 7.5 7.5V438h-78.72V300.585a7.5 7.5 0 0 1 7.5-7.5Z" tabindex="0"/></g><g aria-hidden="true"><text y="30" dy="-8.1" font-size="22" style="user-select:none" transform="rotate(-90 159 144)"><tspan>Horas</tspan></text><path fill="none" stroke="#000" stroke-opacity=".15" d="M92.5 490.5h492"/><text y="22.016" dy="-5.944" style="user-select:none" transform="translate(73 480)"><tspan>0</tspan></text><text y="22" dy="-5.94" style="user-select:none" transform="translate(55 354.857)"><tspan>100</tspan></text><text y="22" dy="-5.94" style="user-select:none" transform="translate(55 229.714)"><tspan>200</tspan></text><text y="22.016" dy="-5.944" style="user-select:none" transform="translate(55 42)"><tspan>350</tspan></text><text y="22.016" dy="-5.944" style="user-select:none" transform="translate(55 104.571)"><tspan>300</tspan></text><text y="22.016" dy="-5.944" style="user-select:none" transform="translate(55 167.143)"><tspan>250</tspan></text><text y="22.016" dy="-5.944" style="user-select:none" transform="translate(55 292.286)"><tspan>150</tspan></text><text y="22.016" dy="-5.944" style="user-select:none" transform="translate(64 417.429)"><tspan>50</tspan></text><path fill="none" d="M0 0v438" style="pointer-events:none" transform="translate(92.5 52.5)"/></g><g aria-hidden="true"><path fill="none" d="M0 0h492" style="pointer-events:none" transform="translate(92.5 490.5)"/><g style="user-select:none"><text y="22" dy="-5.94" overflow="hidden" transform="translate(96.2 501)"><tspan>SL - Litigios -</tspan></text><text y="44" dy="-5.94" overflow="hidden" transform="translate(96.2 501)"><tspan>tributario</tspan></text></g><text y="22" dy="-5.94" overflow="hidden" style="user-select:none" transform="translate(286.5 501)"><tspan>AI - Mercadeo</tspan></text><g style="user-select:none"><text y="22" dy="-5.94" overflow="hidden" transform="translate(480.8 501)"><tspan>Otras</tspan></text><text y="44" dy="-5.94" overflow="hidden" transform="translate(480.8 501)"><tspan>especialidades</tspan></text></g><text y="30" dy="-8.1" font-size="22" style="user-select:none" transform="translate(264 555)"><tspan>Especialidades</tspan></text></g></g><g aria-labelledby="id-740-title" filter="url(#c)" opacity=".3" style="cursor:pointer" transform="translate(0 579)"><g fill="none" stroke-width="1.8"><path stroke="#3cabff" d="M15 15h12c4.2 0 6.3-9 9-9s2.7 4.5 4.5 4.5S42.3 6 45 6s6 9 9 9h6"/><path stroke="url(#d)" d="M6 15h9c5.25 0 5.775-11.4 12-11.4S33.9 15 39.9 15H60"/></g></g></g></svg>