<svg xmlns="http://www.w3.org/2000/svg" viewBox="0 0 11.17 10"><defs><style>.cls-1{fill:#646464}</style></defs><g id="Layer_2" data-name="Layer 2"><g id="Layer_1-2" data-name="Layer 1"><path d="M2.69 8a.27.27 0 0 0 0 .43V10h.77V7.36c.08-.14 0-.18-.1-.08zm4.58-1.73a.25.25 0 0 0 .05.43V10h.77V5.65c0-.13 0-.17-.13-.07zm1.52-1.53a.26.26 0 0 0 .07.43V10h.77V4.2c-.05-.13-.12-.17-.22-.07zM5.77 7.77l-.1.1c-.06.06-.1.21.11.35V10h.77V7.18c.06-.14 0-.17-.12-.07zm-1.55-.53c-.1-.1-.18-.07 0 .07V10H5V8.35a.4.4 0 0 0-.09-.42l-.17-.16zM1.38 9.28l-.33.34A1 1 0 0 1 .4 10h1.54V8.88c.09-.14 0-.17-.08-.07z" class="cls-1"/><path d="M11 4.12c.1.09.18.06.18-.08V.48a.49.49 0 0 0-.49-.48H7.13C7 0 7 .08 7.05.18l1.26 1.26L7.8 2 5.41 4.34 4.15 3.08a.24.24 0 0 0-.35 0L.29 6.59A1 1 0 0 0 .29 8a1 1 0 0 0 1.44 0L4 5.77 5.24 7a.24.24 0 0 0 .35 0l4.16-4.13z" class="cls-1"/></g></g></svg>