<svg xmlns="http://www.w3.org/2000/svg" width="600" height="600" style="font-family:Open Sans,sans-serif;font-size:16px"><defs xmlns="http://www.w3.org/2000/svg"><clipPath id="a"><path d="M0 0h600v600H0z"/></clipPath><clipPath id="b"><path d="M0 0h492v394H0z"/></clipPath><linearGradient id="d" x1="1%" x2="99%" y1="59%" y2="41%"><stop offset="0" stop-color="#474758"/><stop offset=".75" stop-color="#474758"/><stop offset=".755" stop-color="#3cabff"/></linearGradient><filter id="c" width="120%" height="120%" x="-10%" y="-10%" filterUnits="objectBoundingBox"><feColorMatrix type="saturate" values="0"/></filter></defs><g xmlns="http://www.w3.org/2000/svg"><path fill="none" d="M0 0h600v600H0z"/><g aria-label="Chart" clip-path="url(#a)"><text y="38" dy="-10.26" font-size="28" style="user-select:none" transform="translate(136 15)"><tspan>Proyectos con más horas</tspan></text><path fill="none" d="M93 53h492v394H93z"/><path fill="none" stroke="#000" stroke-opacity=".15" d="M92.5 446.5h492m-492-66h492m-492-65h492m-492-66h492m-492-66h492m-492-65h492m-492-66h492m-474 0v394m421-394v394m-281-394v394m141-394v394"/><g stroke="#39F" stroke-opacity="0" aria-label="Series" clip-path="url(#b)" transform="translate(93 53)"><path fill="#39F" stroke-opacity="1" d="M11.013 3.283h13.118a7.5 7.5 0 0 1 7.5 7.5V394H3.513V10.783a7.5 7.5 0 0 1 7.5-7.5Zm35.143 261.025h13.113a7.5 7.5 0 0 1 7.5 7.5V394H38.656V271.808a7.5 7.5 0 0 1 7.5-7.5ZM81.3 298.127h13.113a7.5 7.5 0 0 1 7.5 7.5V394H73.8v-88.373a7.5 7.5 0 0 1 7.5-7.5Zm35.144 8.536h13.113a7.5 7.5 0 0 1 7.5 7.5V394h-28.113v-79.837a7.5 7.5 0 0 1 7.5-7.5Zm35.143 2.627H164.7a7.5 7.5 0 0 1 7.5 7.5V394h-28.113v-77.21a7.5 7.5 0 0 1 7.5-7.5Zm35.144 2.627h13.113a7.5 7.5 0 0 1 7.5 7.5V394h-28.113v-74.583a7.5 7.5 0 0 1 7.5-7.5Zm35.138 8.208h13.118a7.5 7.5 0 0 1 7.5 7.5V394h-28.118v-66.375a7.5 7.5 0 0 1 7.5-7.5Zm35.144 9.522h13.118a7.5 7.5 0 0 1 7.5 7.5V394h-28.118v-56.853a7.5 7.5 0 0 1 7.5-7.5Zm35.143 20.685h13.113a7.5 7.5 0 0 1 7.5 7.5V394h-28.113v-36.168a7.5 7.5 0 0 1 7.5-7.5Zm35.144.985h13.113a7.5 7.5 0 0 1 7.5 7.5V394H319.8v-35.183a7.5 7.5 0 0 1 7.5-7.5Zm35.144 3.283h13.113a7.5 7.5 0 0 1 7.5 7.5V394h-28.113v-31.9a7.5 7.5 0 0 1 7.5-7.5Zm35.143 9.85H410.7a7.5 7.5 0 0 1 7.5 7.5V394h-28.113v-22.05a7.5 7.5 0 0 1 7.5-7.5Zm35.144 4.268h13.113a7.5 7.5 0 0 1 7.5 7.5V394h-28.113v-17.782a7.5 7.5 0 0 1 7.5-7.5Zm35.138-168.763h13.118a7.5 7.5 0 0 1 7.5 7.5V394h-28.118V207.455a7.5 7.5 0 0 1 7.5-7.5Z" tabindex="0"/></g><g aria-hidden="true"><text y="30" dy="-8.1" font-size="22" style="user-select:none" transform="rotate(-90 193 178)"><tspan>Horas (todas las Clases)</tspan></text><path fill="none" stroke="#000" stroke-opacity=".15" d="M92.5 446.5h492"/><text y="22" dy="-5.94" style="user-select:none" transform="translate(73 436)"><tspan>0</tspan></text><text y="22" dy="-5.94" style="user-select:none" transform="translate(64 370.333)"><tspan>20</tspan></text><text y="22" dy="-5.94" style="user-select:none" transform="translate(64 304.667)"><tspan>40</tspan></text><text y="22" dy="-5.94" style="user-select:none" transform="translate(64 239)"><tspan>60</tspan></text><text y="22" dy="-5.94" style="user-select:none" transform="translate(64 173.333)"><tspan>80</tspan></text><text y="22" dy="-5.94" style="user-select:none" transform="translate(55 107.667)"><tspan>100</tspan></text><text y="22" dy="-5.94" style="user-select:none" transform="translate(55 42)"><tspan>120</tspan></text><path fill="none" d="M0 0v394" style="pointer-events:none" transform="translate(92.5 52.5)"/></g><g aria-hidden="true"><path fill="none" d="M0 0h492" style="pointer-events:none" transform="translate(92.5 446.5)"/><g style="user-select:none"><text y="22" dy="-5.94" overflow="hidden" transform="translate(67.072 457)"><tspan>OFICINA -</tspan></text><text y="44" dy="-5.94" overflow="hidden" transform="translate(67.072 457)"><tspan>MERCADEO</tspan></text></g><g style="user-select:none"><text y="22" dy="-5.94" overflow="hidden" transform="translate(477.285 457)"><tspan>PROPAL -</tspan></text><text y="44" dy="-5.94" overflow="hidden" transform="translate(477.285 457)"><tspan>RECLAMACIÓN</tspan></text><text y="66" dy="-5.94" overflow="hidden" transform="translate(477.285 457)"><tspan>TRILLADORA</tspan></text><text y="88" dy="-5.94" overflow="hidden" transform="translate(477.285 457)"><tspan>UNIÓN S.A.</tspan></text></g><g style="user-select:none"><text y="22" dy="-5.94" overflow="hidden" transform="translate(190.141 457)"><tspan>SUNOCO</tspan></text><text y="44" dy="-5.94" overflow="hidden" transform="translate(190.141 457)"><tspan>MEXICO -</tspan></text><text y="66" dy="-5.94" overflow="hidden" transform="translate(190.141 457)"><tspan>ASESORIA</tspan></text><text y="88" dy="-5.94" overflow="hidden" transform="translate(190.141 457)"><tspan>LEGAL GENERAL</tspan></text></g><g style="user-select:none"><text y="22" dy="-5.94" overflow="hidden" transform="translate(335.215 457)"><tspan>IBM - LABORAL</tspan></text><text y="44" dy="-5.94" overflow="hidden" transform="translate(335.215 457)"><tspan> COMPENSAR</tspan></text></g><text y="30" dy="-8.1" font-size="22" style="user-select:none" transform="translate(288.5 555)"><tspan>Proyectos</tspan></text></g></g><g aria-labelledby="id-13267-title" filter="url(#c)" opacity=".3" style="cursor:pointer" transform="translate(0 579)"><g fill="none" stroke-width="1.8"><path stroke="#3cabff" d="M15 15h12c4.2 0 6.3-9 9-9s2.7 4.5 4.5 4.5S42.3 6 45 6s6 9 9 9h6"/><path stroke="url(#d)" d="M6 15h9c5.25 0 5.775-11.4 12-11.4S33.9 15 39.9 15H60"/></g></g></g></svg>