<svg xmlns="http://www.w3.org/2000/svg" width="600" height="600" style="font-family:Open Sans,sans-serif;font-size:16px"><defs xmlns="http://www.w3.org/2000/svg"><clipPath id="a"><path d="M0 0h600v600H0z"/></clipPath><clipPath id="b"><path d="M0 0h492v460H0z"/></clipPath><linearGradient id="d" x1="1%" x2="99%" y1="59%" y2="41%"><stop offset="0" stop-color="#474758"/><stop offset=".75" stop-color="#474758"/><stop offset=".755" stop-color="#3cabff"/></linearGradient><filter id="c" width="120%" height="120%" x="-10%" y="-10%" filterUnits="objectBoundingBox"><feColorMatrix type="saturate" values="0"/></filter></defs><g xmlns="http://www.w3.org/2000/svg"><path fill="none" d="M0 0h600v600H0z"/><g aria-label="Chart" clip-path="url(#a)"><text y="38" dy="-10.26" font-size="28" style="user-select:none" transform="translate(148.5 15)"><tspan>Clientes con más horas</tspan></text><path fill="none" d="M93 53h492v460H93z"/><path fill="none" stroke="#000" stroke-opacity=".15" d="M92.5 512.5h492m-492-153h492m-492-307h492m-492 153h492m-492-76h492m-492 153h492m-492 153h492m-443-383v460m197-460v460m197-460v460"/><g stroke="#39F" stroke-opacity="0" aria-label="Series" clip-path="url(#b)" transform="translate(93 53)"><path fill="#39F" stroke-opacity="1" d="M17.34 36.8h63.72a7.5 7.5 0 0 1 7.5 7.5V460H9.84V44.3a7.5 7.5 0 0 1 7.5-7.5Zm98.4 144.44h63.72a7.5 7.5 0 0 1 7.5 7.5V460h-78.72V188.74a7.5 7.5 0 0 1 7.5-7.5Zm98.4 236.287h63.72a7.5 7.5 0 0 1 7.5 7.5V460h-78.72v-34.973a7.5 7.5 0 0 1 7.5-7.5Zm98.4 2.913h63.72a7.5 7.5 0 0 1 7.5 7.5V460h-78.72v-32.06a7.5 7.5 0 0 1 7.5-7.5Zm98.4-93.38h63.72a7.5 7.5 0 0 1 7.5 7.5V460h-78.72V334.56a7.5 7.5 0 0 1 7.5-7.5Z" tabindex="0"/></g><g aria-hidden="true"><text y="30" dy="-8.1" font-size="22" style="user-select:none" transform="rotate(-90 209.5 194.5)"><tspan>Horas (todas las Clases)</tspan></text><path fill="none" stroke="#000" stroke-opacity=".15" d="M92.5 512.5h492"/><text y="22.016" dy="-5.944" style="user-select:none" transform="translate(73 502)"><tspan>0</tspan></text><text y="22" dy="-5.94" style="user-select:none" transform="translate(55 348.667)"><tspan>100</tspan></text><text y="22.016" dy="-5.944" style="user-select:none" transform="translate(55 42)"><tspan>300</tspan></text><text y="22" dy="-5.94" style="user-select:none" transform="translate(55 195.333)"><tspan>200</tspan></text><text y="22.016" dy="-5.944" style="user-select:none" transform="translate(55 118.667)"><tspan>250</tspan></text><text y="22.016" dy="-5.944" style="user-select:none" transform="translate(55 272)"><tspan>150</tspan></text><text y="22.016" dy="-5.944" style="user-select:none" transform="translate(64 425.333)"><tspan>50</tspan></text><path fill="none" d="M0 0v460" style="pointer-events:none" transform="translate(92.5 52.5)"/></g><g aria-hidden="true"><path fill="none" d="M0 0h492" style="pointer-events:none" transform="translate(92.5 512.5)"/><text y="22" dy="-5.94" overflow="hidden" style="user-select:none" transform="translate(105.2 523)"><tspan>INVENSYS</tspan></text><text y="22" dy="-5.94" overflow="hidden" style="user-select:none" transform="translate(296 523)"><tspan>SHINSEGAE</tspan></text><text y="22" dy="-5.94" overflow="hidden" style="user-select:none" transform="translate(483.8 523)"><tspan>Otros clientes</tspan></text><text y="30" dy="-8.1" font-size="22" style="user-select:none" transform="translate(298 555)"><tspan>Clientes</tspan></text></g></g><g aria-labelledby="id-16356-title" filter="url(#c)" opacity=".3" style="cursor:pointer" transform="translate(0 579)"><g fill="none" stroke-width="1.8"><path stroke="#3cabff" d="M15 15h12c4.2 0 6.3-9 9-9s2.7 4.5 4.5 4.5S42.3 6 45 6s6 9 9 9h6"/><path stroke="url(#d)" d="M6 15h9c5.25 0 5.775-11.4 12-11.4S33.9 15 39.9 15H60"/></g></g></g></svg>