<svg xmlns="http://www.w3.org/2000/svg" width="600" height="600" style="font-family:Open Sans,sans-serif;font-size:16px"><defs xmlns="http://www.w3.org/2000/svg"><clipPath id="a"><path d="M0 0h600v600H0z"/></clipPath><clipPath id="b"><path d="M0 0h500v460H0z"/></clipPath><linearGradient id="d" x1="1%" x2="99%" y1="59%" y2="41%"><stop offset="0" stop-color="#474758"/><stop offset=".75" stop-color="#474758"/><stop offset=".755" stop-color="#3cabff"/></linearGradient><filter id="c" width="120%" height="120%" x="-10%" y="-10%" filterUnits="objectBoundingBox"><feColorMatrix type="saturate" values="0"/></filter></defs><g xmlns="http://www.w3.org/2000/svg" style="pointer-events:none"><path fill="none" d="M0 0h600v600H0z"/><g aria-label="Chart" clip-path="url(#a)"><text y="38" dy="-10.26" font-size="28" style="user-select:none" transform="translate(86.5 15)"><tspan>Productividad / día de la semana</tspan></text><path fill="none" d="M85 53h500v460H85z"/><path fill="none" stroke="#000" stroke-opacity=".15" d="M84.5 512.5h500m-500-42h500m-500-42h500m-500-41h500m-500-42h500m-500-42h500m-500-42h500m-500-42h500m-500-42h500m-500-41h500m-500-42h500m-500-42h500m-458 0v460m166-460v460m167-460v460"/><g stroke="#f3c300" stroke-opacity="0" aria-label="Series" clip-path="url(#b)" transform="translate(85 53)"><path fill="#f3c300" stroke-opacity="1" d="M15.835 83.636H67.5a7.5 7.5 0 0 1 7.5 7.5V460H8.335V91.136a7.5 7.5 0 0 1 7.5-7.5Zm83.33-81.545h51.67a7.5 7.5 0 0 1 7.5 7.5V460h-66.67V9.591a7.5 7.5 0 0 1 7.5-7.5ZM182.5 16.727h51.665a7.5 7.5 0 0 1 7.5 7.5V460H175V24.227a7.5 7.5 0 0 1 7.5-7.5Zm83.335 20.909H317.5a7.5 7.5 0 0 1 7.5 7.5V460h-66.665V45.136a7.5 7.5 0 0 1 7.5-7.5Zm83.33 33.455h51.67a7.5 7.5 0 0 1 7.5 7.5V460h-66.67V78.591a7.5 7.5 0 0 1 7.5-7.5Zm77.926 384.727h62.483a2.09 2.09 0 0 1 2.091 2.091V460H425v-2.091a2.09 2.09 0 0 1 2.091-2.091Z" tabindex="0"/></g><g aria-hidden="true"><text y="30" dy="-8.1" font-size="22" style="user-select:none" transform="rotate(-90 176.5 161.5)"><tspan>Porcentaje</tspan></text><path fill="none" stroke="#000" stroke-opacity=".15" d="M84.5 512.5h500"/><text y="22" dy="-5.94" style="user-select:none" transform="translate(65 502)"><tspan>0</tspan></text><text y="22" dy="-5.94" style="user-select:none" transform="translate(65 460.182)"><tspan>2</tspan></text><text y="22" dy="-5.94" style="user-select:none" transform="translate(65 418.364)"><tspan>4</tspan></text><text y="22" dy="-5.94" style="user-select:none" transform="translate(65 376.545)"><tspan>6</tspan></text><text y="22" dy="-5.94" style="user-select:none" transform="translate(65 334.727)"><tspan>8</tspan></text><text y="22" dy="-5.94" style="user-select:none" transform="translate(56 292.909)"><tspan>10</tspan></text><text y="22" dy="-5.94" style="user-select:none" transform="translate(56 251.091)"><tspan>12</tspan></text><text y="22" dy="-5.94" style="user-select:none" transform="translate(55 209.273)"><tspan>14</tspan></text><text y="22" dy="-5.94" style="user-select:none" transform="translate(56 167.455)"><tspan>16</tspan></text><text y="22" dy="-5.94" style="user-select:none" transform="translate(56 125.636)"><tspan>18</tspan></text><text y="22" dy="-5.94" style="user-select:none" transform="translate(56 83.818)"><tspan>20</tspan></text><text y="22" dy="-5.94" style="user-select:none" transform="translate(56 42)"><tspan>22</tspan></text><path fill="none" d="M0 0v460" style="pointer-events:none" transform="translate(84.5 52.5)"/></g><g aria-hidden="true"><path fill="none" d="M0 0h500" style="pointer-events:none" transform="translate(84.5 512.5)"/><text y="22" dy="-5.94" overflow="hidden" style="user-select:none" transform="translate(104.168 523)"><tspan>Lunes</tspan></text><text y="22" dy="-5.94" overflow="hidden" style="user-select:none" transform="translate(256.833 523)"><tspan>Miercoles</tspan></text><text y="22" dy="-5.94" overflow="hidden" style="user-select:none" transform="translate(431.5 523)"><tspan>Viernes</tspan></text><text y="30" dy="-8.1" font-size="22" style="user-select:none" transform="translate(241.5 555)"><tspan>Días de la semana</tspan></text></g></g><g aria-labelledby="id-3904-title" filter="url(#c)" opacity=".3" style="cursor:pointer" transform="translate(0 579)"><g fill="none" stroke-width="1.8"><path stroke="#3cabff" d="M15 15h12c4.2 0 6.3-9 9-9s2.7 4.5 4.5 4.5S42.3 6 45 6s6 9 9 9h6"/><path stroke="url(#d)" d="M6 15h9c5.25 0 5.775-11.4 12-11.4S33.9 15 39.9 15H60"/></g></g></g></svg>