<svg xmlns="http://www.w3.org/2000/svg" xml:space="preserve" id="Layer_1" x="0" y="0" version="1.1" viewBox="0 0 11.2 10"><style>.st0{fill:#fefefe}</style><g id="Layer_2_1_"><g id="Layer_1-2"><path d="M2.7 8c-.1.1-.2.3-.1.4l.1.1V10h.8V7.4c.1-.1 0-.2-.1-.1zm4.6-1.7c-.1.1-.2.2-.1.3l.1.1V10h.8V5.7c0-.1 0-.2-.1-.1zm1.5-1.6c-.1.1-.1.3 0 .4 0 0 .1 0 .1.1V10h.8V4.2c-.1-.1-.2-.2-.3-.1zm-3 3.1c-.2.2-.2.3 0 .5V10h.8V7.2c0-.2 0-.2-.2-.1zm-1.6-.6c-.1-.1-.2 0 0 0V10H5V8.4c.1-.2 0-.4-.1-.5l-.2-.1zM1.4 9.3l-.4.3c-.1.2-.3.4-.6.4h1.5V8.9c.1-.1 0-.2-.1-.1z" class="st0"/><path d="M11 4.1c.1.1.2.1.2-.1V.5c0-.3-.2-.5-.5-.5H7.1C7 0 7 .1 7.1.2l1.3 1.3-.6.5-2.4 2.3-1.2-1.2c-.1-.1-.3-.1-.4 0L.3 6.6c-.4.4-.4 1 0 1.4s1 .4 1.4 0L4 5.8 5.2 7q.15.15.3 0l4.2-4.1z" class="st0"/></g></g></svg>