<svg xmlns="http://www.w3.org/2000/svg" width="600" height="600" style="font-family:Open Sans,sans-serif;font-size:16px"><defs xmlns="http://www.w3.org/2000/svg"><clipPath id="a"><path d="M0 0h600v600H0z"/></clipPath><clipPath id="b"><path d="M0 0h496v457H0z"/></clipPath><linearGradient id="d" x1="1%" x2="99%" y1="59%" y2="41%"><stop offset="0" stop-color="#474758"/><stop offset=".75" stop-color="#474758"/><stop offset=".755" stop-color="#3cabff"/></linearGradient><filter id="c" width="120%" height="120%" x="-10%" y="-10%" filterUnits="objectBoundingBox"><feColorMatrix type="saturate" values="0"/></filter></defs><g xmlns="http://www.w3.org/2000/svg"><path fill="none" d="M0 0h600v600H0z"/><g aria-label="Chart" clip-path="url(#a)"><text y="41" dy="-11.07" font-size="30" style="user-select:none" transform="translate(60.5 15)"><tspan>Cumplimiento de la meta día a día</tspan></text><path fill="none" d="M89 56h496v457H89z"/><path fill="none" stroke="#000" stroke-opacity=".15" d="M88.5 512.5h496m-496-65h496m-496-66h496m-496-65h496m-496-65h496m-496-65h496m-496-66h496m-496-65h496m-488 0v457m128-457v457m128-457v457m128-457v457"/><g stroke="#f3c300" stroke-opacity="0" aria-label="Series" clip-path="url(#b)" transform="translate(89 56)"><path fill="#f3c300" stroke-opacity="1" d="M1.602 261.143h12.797v69.203H1.602zm15.996 0H30.4v101.846H17.598zm16.001 0h12.802v16.974H33.599zM49.6 237.64h12.802v23.503H49.6zm16.001 0h12.797v23.503H65.601zm16.001 23.503h12.797v23.503H81.602zm15.996 0H110.4v16.974H97.598zm16.001 0h12.802v23.503h-12.802zm16.001 0h12.802v16.974H129.6zm16.001-49.617h12.797v49.617h-12.797zm16.001 0h12.797v49.617h-12.797zm15.996 0H190.4v49.617h-12.802zm16.001 49.617h12.802v3.917h-12.802zm16.001 0h12.802v82.26H209.6zm16.001 0h12.802v124.043h-12.802zm16.001 0h12.797v61.369h-12.797zm15.996 0H270.4v107.069h-12.802zm16.001 0h12.802v107.069h-12.802zm16.001 0h12.802v107.069H289.6zm16 0h12.802v67.897H305.6zm16.001 0h12.797v100.54h-12.797zm16.001 0h12.797v142.323h-12.797zm15.996 0H366.4V383.88h-12.802zm16.001 0h12.802v90.094h-12.802zm16.001 0h12.802v1.306H385.6zm16.001-83.566h12.797v83.566h-12.797zm16.001-26.114h12.797v109.68h-12.797zm15.996-6.529H446.4v116.209h-12.802zm16.001-124.043h12.802v240.251h-12.802zM465.6 73.12h12.802v188.023H465.6zm16.001 78.343h12.797v109.68h-12.797z"/></g><g aria-hidden="true"><text y="30" dy="-8.1" font-size="22" style="user-select:none" transform="rotate(-90 165.25 150.25)"><tspan>Horas</tspan></text><path fill="none" stroke="#000" stroke-opacity=".15" d="M88.5 316.5h496"/><text y="22" dy="-5.94" style="user-select:none" transform="translate(55 502)"><tspan>-15</tspan></text><text y="22" dy="-5.94" style="user-select:none" transform="translate(55 436.714)"><tspan>-10</tspan></text><text y="22" dy="-5.94" style="user-select:none" transform="translate(64 371.429)"><tspan>-5</tspan></text><text y="22" dy="-5.94" style="user-select:none" transform="translate(69 306.143)"><tspan>0</tspan></text><text y="22" dy="-5.94" style="user-select:none" transform="translate(69 240.857)"><tspan>5</tspan></text><text y="22" dy="-5.94" style="user-select:none" transform="translate(60 175.571)"><tspan>10</tspan></text><text y="22" dy="-5.94" style="user-select:none" transform="translate(60 110.286)"><tspan>15</tspan></text><text y="22" dy="-5.94" style="user-select:none" transform="translate(60 45)"><tspan>20</tspan></text><path fill="none" d="M0 0v457" style="pointer-events:none" transform="translate(88.5 55.5)"/></g><g aria-hidden="true"><path fill="none" d="M0 0h496" style="pointer-events:none" transform="translate(88.5 512.5)"/><text y="22" dy="-5.94" overflow="hidden" style="user-select:none" transform="translate(55 523)"><tspan>2020-07-01</tspan></text><text y="22" dy="-5.94" overflow="hidden" style="user-select:none" transform="translate(182.998 523)"><tspan>2020-07-09</tspan></text><text y="22" dy="-5.94" overflow="hidden" style="user-select:none" transform="translate(311.001 523)"><tspan>2020-07-17</tspan></text><text y="22" dy="-5.94" overflow="hidden" style="user-select:none" transform="translate(438.999 523)"><tspan>2020-07-25</tspan></text><text y="30" dy="-8.1" font-size="22" style="user-select:none" transform="translate(307 555)"><tspan>Fecha</tspan></text></g></g><g aria-labelledby="id-55169-title" filter="url(#c)" opacity=".3" style="cursor:pointer" transform="translate(0 579)"><g fill="none" stroke-width="1.8"><path stroke="#3cabff" d="M15 15h12c4.2 0 6.3-9 9-9s2.7 4.5 4.5 4.5S42.3 6 45 6s6 9 9 9h6"/><path stroke="url(#d)" d="M6 15h9c5.25 0 5.775-11.4 12-11.4S33.9 15 39.9 15H60"/></g></g></g></svg>