<svg xmlns="http://www.w3.org/2000/svg" width="600" height="543" style="font-family:Open Sans,sans-serif;font-size:16px"><defs xmlns="http://www.w3.org/2000/svg"><clipPath id="a"><path d="M0 0h600v543H0z"/></clipPath><clipPath id="b"><path d="M0 0h501v403H0z"/></clipPath><linearGradient id="d" x1="1%" x2="99%" y1="59%" y2="41%"><stop offset="0" stop-color="#474758"/><stop offset=".75" stop-color="#474758"/><stop offset=".755" stop-color="#3cabff"/></linearGradient><filter id="c" width="120%" height="120%" x="-10%" y="-10%" filterUnits="objectBoundingBox"><feColorMatrix type="saturate" values="0"/></filter></defs><g xmlns="http://www.w3.org/2000/svg" style="pointer-events:none"><path fill="none" d="M0 0h600v543H0z"/><g aria-label="Chart" clip-path="url(#a)"><text y="38" dy="-10.26" font-size="28" style="user-select:none" transform="translate(62 15)"><tspan>Horas registradas semana a semana</tspan></text><path fill="none" d="M84 53h501v403H84z"/><path fill="none" stroke="#000" stroke-opacity=".15" d="M83.5 455.5h501m-501-67h501m-501-67h501m-501-68h501m-501-67h501m-501-67h501m-501-67h501m-492 0v403m125-403v403m125-403v403m126-403v403"/><g stroke="#f3c300" stroke-opacity="0" aria-label="Series" clip-path="url(#b)" transform="translate(84 53)"><path fill="#f3c300" stroke-opacity="1" d="M1.789 403h14.314zm25.052-40.3a7.157 7.157 0 0 1 7.157 7.157V403H19.684v-33.143a7.157 7.157 0 0 1 7.157-7.157Zm17.891-227.023a7.157 7.157 0 0 1 7.157 7.157V403H37.575V142.834a7.157 7.157 0 0 1 7.157-7.157Zm17.894-26.867a7.16 7.16 0 0 1 7.159 7.16V403H55.466V115.97a7.16 7.16 0 0 1 7.16-7.16Zm17.892-38.957a7.157 7.157 0 0 1 7.157 7.157V403H73.361V77.01a7.157 7.157 0 0 1 7.157-7.157Zm17.891 48.36a7.157 7.157 0 0 1 7.157 7.157V403H91.252V125.37a7.157 7.157 0 0 1 7.157-7.157Zm17.896-90.003a7.157 7.157 0 0 1 7.157 7.157V403h-14.314V35.367a7.157 7.157 0 0 1 7.157-7.157Zm17.891 80.6a7.157 7.157 0 0 1 7.157 7.157V403h-14.314V115.967a7.157 7.157 0 0 1 7.157-7.157Zm17.895-26.867a7.157 7.157 0 0 1 7.157 7.157V403h-14.314V89.1a7.157 7.157 0 0 1 7.157-7.157Zm17.891-47.016a7.157 7.157 0 0 1 7.157 7.157V403h-14.314V42.084a7.157 7.157 0 0 1 7.157-7.157Zm17.894 149.11a7.16 7.16 0 0 1 7.159 7.16V403h-14.319V191.197a7.16 7.16 0 0 1 7.16-7.16Zm17.892-96.72a7.157 7.157 0 0 1 7.157 7.157V403h-14.314V94.474a7.157 7.157 0 0 1 7.157-7.157Zm17.891-40.3a7.157 7.157 0 0 1 7.157 7.157V403h-14.314V54.174a7.157 7.157 0 0 1 7.157-7.157Zm17.896 56.42a7.157 7.157 0 0 1 7.157 7.157V403h-14.314V110.594a7.157 7.157 0 0 1 7.157-7.157Zm17.891 44.33a7.157 7.157 0 0 1 7.157 7.157V403h-14.314V154.924a7.157 7.157 0 0 1 7.157-7.157Zm17.895-36.27a7.157 7.157 0 0 1 7.157 7.157V403h-14.314V118.654a7.157 7.157 0 0 1 7.157-7.157Zm17.891-16.12a7.157 7.157 0 0 1 7.157 7.157V403h-14.314V102.534a7.157 7.157 0 0 1 7.157-7.157Zm17.894-47.017a7.16 7.16 0 0 1 7.159 7.16V403h-14.319V55.52a7.16 7.16 0 0 1 7.16-7.16Zm17.892 85.973a7.157 7.157 0 0 1 7.157 7.157V403h-14.314V141.49a7.157 7.157 0 0 1 7.157-7.157Zm17.891-42.986a7.157 7.157 0 0 1 7.157 7.157V403h-14.314V98.504a7.157 7.157 0 0 1 7.157-7.157Zm17.896 36.27a7.157 7.157 0 0 1 7.157 7.157V403h-14.314V134.774a7.157 7.157 0 0 1 7.157-7.157ZM384.696 1.343a7.157 7.157 0 0 1 7.157 7.157V403h-14.314V8.5a7.157 7.157 0 0 1 7.157-7.157Zm17.895 112.84a7.157 7.157 0 0 1 7.157 7.157V403h-14.314V121.34a7.157 7.157 0 0 1 7.157-7.157ZM420.482 8.06a7.157 7.157 0 0 1 7.157 7.157V403h-14.314V15.217a7.157 7.157 0 0 1 7.157-7.157Zm17.894 95.377a7.16 7.16 0 0 1 7.159 7.16V403h-14.319V110.597a7.16 7.16 0 0 1 7.16-7.16Zm17.892-80.6a7.157 7.157 0 0 1 7.157 7.157V403h-14.314V29.994a7.157 7.157 0 0 1 7.157-7.157Zm17.891 53.733a7.157 7.157 0 0 1 7.157 7.157V403h-14.314V83.727a7.157 7.157 0 0 1 7.157-7.157Zm17.896-47.017a7.157 7.157 0 0 1 7.157 7.157V403h-14.314V36.71a7.157 7.157 0 0 1 7.157-7.157Z"/></g><g aria-hidden="true"><text y="30" dy="-8.1" font-size="22" style="user-select:none" transform="rotate(-90 150.25 135.25)"><tspan>Horas</tspan></text><path fill="none" stroke="#000" stroke-opacity=".15" d="M83.5 455.5h501"/><text y="22" dy="-5.94" style="user-select:none" transform="translate(64 445)"><tspan>0</tspan></text><text y="22" dy="-5.94" style="user-select:none" transform="translate(64 377.833)"><tspan>5</tspan></text><text y="22" dy="-5.94" style="user-select:none" transform="translate(55 310.667)"><tspan>10</tspan></text><text y="22" dy="-5.94" style="user-select:none" transform="translate(55 243.5)"><tspan>15</tspan></text><text y="22" dy="-5.94" style="user-select:none" transform="translate(55 176.333)"><tspan>20</tspan></text><text y="22" dy="-5.94" style="user-select:none" transform="translate(55 109.167)"><tspan>25</tspan></text><text y="22" dy="-5.94" style="user-select:none" transform="translate(55 42)"><tspan>30</tspan></text><path fill="none" d="M0 0v403" style="pointer-events:none" transform="translate(83.5 52.5)"/></g><g aria-hidden="true"><path fill="none" d="M0 0h501" style="pointer-events:none" transform="translate(83.5 455.5)"/><text y="22" dy="-5.94" overflow="hidden" style="user-select:none" transform="translate(62.445 466)"><tspan>2019-01</tspan></text><text y="22" dy="-5.94" overflow="hidden" style="user-select:none" transform="translate(187.695 466)"><tspan>2020-07</tspan></text><text y="22" dy="-5.94" overflow="hidden" style="user-select:none" transform="translate(312.945 466)"><tspan>2020-14</tspan></text><text y="22" dy="-5.94" overflow="hidden" style="user-select:none" transform="translate(438.195 466)"><tspan>2020-21</tspan></text><text y="30" dy="-8.1" font-size="22" style="user-select:none" transform="translate(246.5 498)"><tspan>Semanas del año</tspan></text></g></g><g aria-labelledby="id-66-title" filter="url(#c)" opacity=".3" style="cursor:pointer" transform="translate(0 522)"><g fill="none" stroke-width="1.8"><path stroke="#3cabff" d="M15 15h12c4.2 0 6.3-9 9-9s2.7 4.5 4.5 4.5S42.3 6 45 6s6 9 9 9h6"/><path stroke="url(#d)" d="M6 15h9c5.25 0 5.775-11.4 12-11.4S33.9 15 39.9 15H60"/></g></g></g></svg>