<svg xmlns="http://www.w3.org/2000/svg" viewBox="0 0 11 8.99"><defs><style>.cls-1{fill:#fefefe}</style></defs><g id="Layer_2" data-name="Layer 2"><g id="Layer_1-2" data-name="Layer 1"><path d="M4.55 8.31a.2.2 0 0 1 0-.09v-.07c0-.02-.05 0-.05 0H2.05a1.12 1.12 0 0 1-.81-.33A1.1 1.1 0 0 1 .91 7V2.05A1.13 1.13 0 0 1 2.05.91h2.27a.2.2 0 0 0 .14-.05.24.24 0 0 0 .08-.14V.56a1.4 1.4 0 0 0 0-.19V.23a.24.24 0 0 0-.06-.16.21.21 0 0 0-.16-.07H2.05A2 2 0 0 0 .6.6 2 2 0 0 0 0 2.05V7a2 2 0 0 0 .6 1.39A2 2 0 0 0 2.05 9h2.27a.2.2 0 0 0 .14 0 .27.27 0 0 0 .08-.14v-.17a1.4 1.4 0 0 0 0-.19Z" class="cls-1"/><path d="M10.87 4.18 7.05.37a.4.4 0 0 0-.31-.13.44.44 0 0 0-.32.13.46.46 0 0 0-.13.32v2H3.15a.48.48 0 0 0-.45.45v2.7a.45.45 0 0 0 .14.32.42.42 0 0 0 .31.13h3.14v2a.44.44 0 0 0 .13.31.45.45 0 0 0 .32.14.41.41 0 0 0 .31-.14l3.82-3.81A.42.42 0 0 0 11 4.5a.44.44 0 0 0-.13-.32" class="cls-1"/></g></g></svg>