<svg xmlns="http://www.w3.org/2000/svg" width="180" height="216" fill-rule="evenodd" clip-rule="evenodd" image-rendering="optimizeQuality" shape-rendering="geometricPrecision" text-rendering="geometricPrecision"><path fill="none" d="M0 0h180v216H0z"/><path fill="#103656" d="M40 128v43c7-1 13-1 19 0 2 0 23 8 27 10 22 8 17 10 38-5 5-4 9-8 14-11 7-5 17-13 24-19 2-1 5-4 7-6 6-8-1-19-15-12-5 2-33 19-39 23-2 1-2 1-3 3-5 9-12 9-21 4-5-2-11-5-17-8v-3c9 3 22 12 29 10 4-1 8-6 7-11 0-5-5-7-9-9-5-2-9-5-14-7-28-13-12-4-47-2m-31-2h21v47H9z"/><path fill="#1e6dad" d="M29 100c0 5 4 8 11 8h101c3 0 5-1 7-2 6-3 4-14-6-14H37c-4 0-8 3-8 8m0-32c0 5 4 8 8 8h105c12 0 13-16-1-16H39c-5 0-10 3-10 8m0-32c0 5 3 9 8 9h45c5 0 12-7 6-14-1-1-4-2-6-2H37c-4 0-8 3-8 7"/></svg>