<svg xmlns="http://www.w3.org/2000/svg" viewBox="0 0 9.26 10"><defs><style>.cls-1{fill:#fefefe}</style></defs><g id="Layer_2" data-name="Layer 2"><g id="Layer_1-2" data-name="Layer 1"><path d="M.62 8.74V2.81h2.19V.62h4.05v4.81h.23a3 3 0 0 1 .4 0V0H2.4L0 2.55v6.81h5.66a2.6 2.6 0 0 1-.37-.62Zm1.56-7.69v1.13H1.11Z" class="cls-1"/><path d="M1.25 4.68h4.99v.62H1.25zm4.42 1.25H1.25v.62H5a2.2 2.2 0 0 1 .67-.62M1.25 7.8h3.3a2 2 0 0 1 .1-.62h-3.4Zm5.91-2.01a2.11 2.11 0 1 0 2.1 2.11 2.1 2.1 0 0 0-2.1-2.11m.95 2.32h-.62v.63h-.63v-.63h-.62v-.62h.62v-.63h.63v.63h.62Z" class="cls-1"/></g></g></svg>