<svg xmlns="http://www.w3.org/2000/svg" xmlns:xlink="http://www.w3.org/1999/xlink" viewBox="0 0 640 279.48"><defs><linearGradient id="linear-gradient" x1="263.33" x2="263.33" y1="229.3" y2="286.73" gradientUnits="userSpaceOnUse"><stop offset="0" stop-color="#e4e6e8"/><stop offset=".06" stop-color="#e1e2e4"/><stop offset=".11" stop-color="#d6d8d9"/><stop offset=".16" stop-color="#c4c5c6"/><stop offset=".21" stop-color="#abacac"/><stop offset=".23" stop-color="#9f9f9f"/><stop offset=".66" stop-color="#ebebeb"/><stop offset=".76" stop-color="#f2f2f2"/><stop offset="1" stop-color="#fff"/></linearGradient><linearGradient id="linear-gradient-2" x1="210.29" x2="297.87" y1="271.66" y2="272.21" gradientUnits="userSpaceOnUse"><stop offset="0" stop-color="#e4e6e8"/><stop offset=".06" stop-color="#e1e2e4"/><stop offset=".11" stop-color="#d6d8d9"/><stop offset=".16" stop-color="#c4c5c6"/><stop offset=".21" stop-color="#abacac"/><stop offset=".23" stop-color="#9f9f9f"/><stop offset=".34" stop-color="#b3b3b3"/><stop offset=".72" stop-color="#f6f6f6"/><stop offset=".9" stop-color="#ebebeb"/><stop offset=".93" stop-color="#f2f2f2"/><stop offset="1" stop-color="#fff"/></linearGradient><linearGradient id="linear-gradient-3" x1="70.49" x2="360.08" y1="244.46" y2="40.98" gradientUnits="userSpaceOnUse"><stop offset="0" stop-color="#484848"/><stop offset=".06" stop-color="#444"/><stop offset=".12" stop-color="#393939"/><stop offset=".17" stop-color="#262626"/><stop offset=".23" stop-color="#0c0c0c"/><stop offset=".23" stop-color="#0b0b0b"/><stop offset=".32" stop-color="#141414"/><stop offset="1" stop-color="#575757"/></linearGradient><linearGradient id="linear-gradient-4" x1="55.45" x2="467.17" y1="327.37" y2="95.89" gradientUnits="userSpaceOnUse"><stop offset=".03" stop-color="#b8b8b8"/><stop offset=".89" stop-color="#fff"/></linearGradient><linearGradient id="linear-gradient-5" x1="119.22" x2="525.64" y1="190.85" y2="-76.85" gradientUnits="userSpaceOnUse"><stop offset=".03" stop-color="#e8e8e9"/><stop offset=".89" stop-color="#fff"/></linearGradient><linearGradient id="linear-gradient-6" x1="503.96" x2="124.04" y1="102.41" y2="112.13" gradientUnits="userSpaceOnUse"><stop offset="0"/><stop offset=".29" stop-color="#020202"/><stop offset=".43" stop-color="#0a0a0a"/><stop offset=".53" stop-color="#171717"/><stop offset=".62" stop-color="#292929"/><stop offset=".7" stop-color="#414141"/><stop offset=".77" stop-color="#5e5e5e"/><stop offset=".84" stop-color="#818181"/><stop offset=".9" stop-color="#aaa"/><stop offset=".96" stop-color="#d7d7d7"/><stop offset="1" stop-color="#fff"/></linearGradient><linearGradient xlink:href="#linear-gradient-3" id="linear-gradient-7" x1="366.78" x2="564.31" y1="299.55" y2="160.76"/><linearGradient xlink:href="#linear-gradient-5" id="linear-gradient-8" x1="401.82" x2="679.04" y1="265.23" y2="82.62"/><linearGradient xlink:href="#linear-gradient-6" id="linear-gradient-9" x1="664.15" x2="405.01" y1="201.41" y2="208.04"/><linearGradient id="linear-gradient-10" x1="360.23" x2="640" y1="275.69" y2="275.69" gradientUnits="userSpaceOnUse"><stop offset="0" stop-color="#2c2c2c"/><stop offset=".01" stop-color="#4b4b4b"/><stop offset=".02" stop-color="#636363"/><stop offset=".02" stop-color="#6c6c6c"/><stop offset=".03" stop-color="#767676"/><stop offset=".04" stop-color="#919191"/><stop offset=".04" stop-color="#a4a4a4"/><stop offset=".05" stop-color="#afafaf"/><stop offset=".06" stop-color="#b3b3b3"/><stop offset=".07" stop-color="#b2b2b2"/><stop offset=".13" stop-color="#a5a5a5"/><stop offset=".84" stop-color="#a5a5a5"/><stop offset=".84" stop-color="#a6a6a6"/><stop offset=".93" stop-color="#b4b4b4"/><stop offset=".94" stop-color="#aeaeae"/><stop offset=".95" stop-color="#9e9e9e"/><stop offset=".97" stop-color="#838383"/><stop offset=".98" stop-color="#6c6c6c"/><stop offset="1" stop-color="#2c2c2c"/></linearGradient><linearGradient id="linear-gradient-11" x1="360.23" x2="640" y1="272.87" y2="272.87" gradientUnits="userSpaceOnUse"><stop offset="0" stop-color="#49494a"/><stop offset="0" stop-color="#565657"/><stop offset=".01" stop-color="#7d7d7e"/><stop offset=".02" stop-color="#969696"/><stop offset=".02" stop-color="#9f9f9f"/><stop offset=".03" stop-color="#c1c1c1"/><stop offset=".04" stop-color="#dcdcdc"/><stop offset=".05" stop-color="#efefef"/><stop offset=".05" stop-color="#fafafa"/><stop offset=".06" stop-color="#fefefe"/><stop offset=".08" stop-color="#f8f8f8"/><stop offset=".13" stop-color="#ebebeb"/><stop offset=".84" stop-color="#ebebeb"/><stop offset=".86" stop-color="#f1f1f1"/><stop offset=".93" stop-color="#fff"/><stop offset=".94" stop-color="#f9f9f9"/><stop offset=".95" stop-color="#e9e9e9"/><stop offset=".96" stop-color="#cecece"/><stop offset=".97" stop-color="#a8a8a8"/><stop offset=".98" stop-color="#9f9f9f"/><stop offset="1" stop-color="#49494a"/></linearGradient><linearGradient id="linear-gradient-12" x1="468.34" x2="622.88" y1="270.89" y2="270.89" gradientUnits="userSpaceOnUse"><stop offset="0" stop-color="#2c2c2c"/><stop offset=".06" stop-color="#4b4b4b"/><stop offset=".12" stop-color="#636363"/><stop offset=".15" stop-color="#6c6c6c"/><stop offset=".16" stop-color="#747474"/><stop offset=".19" stop-color="#8f8f8f"/><stop offset=".21" stop-color="#a2a2a2"/><stop offset=".24" stop-color="#adadad"/><stop offset=".27" stop-color="#b1b1b1"/><stop offset=".37" stop-color="#a5a5a5"/><stop offset=".69" stop-color="#a5a5a5"/><stop offset=".69" stop-color="#a6a6a6"/><stop offset=".78" stop-color="#b4b4b4"/><stop offset=".8" stop-color="#aeaeae"/><stop offset=".82" stop-color="#9e9e9e"/><stop offset=".85" stop-color="#838383"/><stop offset=".88" stop-color="#6c6c6c"/><stop offset="1" stop-color="#2c2c2c"/></linearGradient><linearGradient id="linear-gradient-13" x1="102.42" x2="182.69" y1="256.47" y2="200.07" gradientUnits="userSpaceOnUse"><stop offset="0" stop-color="#333"/><stop offset=".07" stop-color="#2f2f2f"/><stop offset=".13" stop-color="#242424"/><stop offset=".19" stop-color="#111"/><stop offset=".23"/><stop offset=".24" stop-color="#010101"/><stop offset="1" stop-color="#444"/></linearGradient><linearGradient xlink:href="#linear-gradient-5" id="linear-gradient-14" x1="126.36" x2="198.72" y1="261.2" y2="157.37"/><linearGradient id="linear-gradient-15" x1="157.75" x2="153.53" y1="265.94" y2="275.58" gradientUnits="userSpaceOnUse"><stop offset=".23"/><stop offset="1" stop-color="#1c1c1c"/></linearGradient><linearGradient xlink:href="#linear-gradient-6" id="linear-gradient-16" x1="213.45" x2="138.14" y1="184.15" y2="215.95"/><linearGradient xlink:href="#linear-gradient-13" id="linear-gradient-17" x1="-28.69" x2="98.65" y1="257.2" y2="167.74"/><linearGradient xlink:href="#linear-gradient-5" id="linear-gradient-18" x1="10.45" x2="122.39" y1="263.04" y2="102.41"/><linearGradient xlink:href="#linear-gradient-15" id="linear-gradient-19" x1="58.7" x2="52.83" y1="262.61" y2="276.03"/><linearGradient xlink:href="#linear-gradient-6" id="linear-gradient-20" x1="152.74" x2="2.93" y1="148.41" y2="232.05"/><style>.cls-7{fill:#1e6dad}.cls-8{fill:#ef9825}.cls-9{fill:#0e0e0e}.cls-10{fill:#e0e0e0}.cls-11{fill:#eaeaea}.cls-12{fill:#325a78}.cls-13{fill:#e6eef4}</style></defs><g style="isolation:isolate"><g id="Layer_1" data-name="Layer 1"><path d="M312.94 262.22c-6-5.9-9.54-15.54-9.54-25.85v-10.3h-80.14v10.3c0 10.31-3.56 19.95-9.53 25.85l-9.39 9.27h118Z" style="fill:url(#linear-gradient)" transform="translate(0 -.98)"/><path d="M204.34 270.51h117.98v2.98H204.34z" style="fill:url(#linear-gradient-2)"/><path d="M431.79 213.76V7.6a6.62 6.62 0 0 0-6.63-6.6H101.5a6.62 6.62 0 0 0-6.62 6.6v206.16Z" style="fill:url(#linear-gradient-3)" transform="translate(0 -.98)"/><path d="M94.88 193.72v29.66a6.62 6.62 0 0 0 6.62 6.62h323.66a6.63 6.63 0 0 0 6.63-6.63v-29.65Z" style="fill:url(#linear-gradient-4)" transform="translate(0 -.98)"/><path d="M105.13 10.45h316.13v171.14H105.13z" style="fill:url(#linear-gradient-5)"/><path d="M105.13 10.45h316.13v13.14H105.13zm63.58 19.57h9.43v1.89h-9.43zm0 2.21h9.43v1.89h-9.43zm0 2.2h9.43v1.89h-9.43zm0 2.2h9.43v1.89h-9.43zm0 2.21h9.43v1.89h-9.43zm10.33-6.61h9.43v1.89h-9.43zm0 2.2h9.43v1.89h-9.43zm0 2.2h9.43v1.89h-9.43zm0 2.21h9.43v1.89h-9.43zm10.32-2.21h9.43v1.89h-9.43zm0 2.21h9.43v1.89h-9.43zm10.32-8.82h9.43v1.89h-9.43zm0 2.21h9.43v1.89h-9.43zm0 2.2h9.43v1.89h-9.43zm0 2.2h9.43v1.89h-9.43zm0 2.21h9.43v1.89h-9.43zm82.94-8.82h9.43v1.89h-9.43zm0 2.21h9.43v1.89h-9.43zm0 2.2h9.43v1.89h-9.43zm0 2.2h9.43v1.89h-9.43zm0 2.21h9.43v1.89h-9.43zm10.24-6.61h9.43v1.89h-9.43zm0 2.2h9.43v1.89h-9.43zm0 2.2h9.43v1.89h-9.43zm0 2.21h9.43v1.89h-9.43zm10.41-2.21h9.43v1.89h-9.43zm0 2.21h9.43v1.89h-9.43zm10.24-8.82h9.43v1.89h-9.43zm0 2.21h9.43v1.89h-9.43zm0 2.2h9.43v1.89h-9.43zm0 2.2h9.43v1.89h-9.43zm0 2.21h9.43v1.89h-9.43zM210 30.02h9.43v1.89H210zm0 2.21h9.43v1.89H210zm0 2.2h9.43v1.89H210zm0 2.2h9.43v1.89H210zm0 2.21h9.43v1.89H210zm10.3-6.61h9.43v1.89h-9.43zm0 2.2h9.43v1.89h-9.43zm0 2.2h9.43v1.89h-9.43zm0 2.21h9.43v1.89h-9.43zm10.3-2.21h9.43v1.89h-9.43zm0 2.21h9.43v1.89h-9.43zm10.29-8.82h9.43v1.89h-9.43zm0 2.21h9.43v1.89h-9.43zm0 2.2h9.43v1.89h-9.43zm0 2.2h9.43v1.89h-9.43zm0 2.21h9.43v1.89h-9.43zm83.02-8.82h9.43v1.89h-9.43zm0 2.21h9.43v1.89h-9.43zm0 2.2h9.43v1.89h-9.43zm0 2.2h9.43v1.89h-9.43zm0 2.21h9.43v1.89h-9.43zm10.24-6.61h9.43v1.89h-9.43zm0 2.2h9.43v1.89h-9.43zm0 2.2h9.43v1.89h-9.43zm0 2.21h9.43v1.89h-9.43zm10.41-2.21h9.43v1.89h-9.43zm0 2.21h9.43v1.89h-9.43zm10.24-8.82h9.43v1.89h-9.43zm0 2.21h9.43v1.89h-9.43zm0 2.2h9.43v1.89h-9.43zm0 2.2h9.43v1.89h-9.43zm0 2.21h9.43v1.89h-9.43zm-103.05-6.61h9.43v1.89h-9.43zm0 2.2h9.43v1.89h-9.43zm0 2.2h9.43v1.89h-9.43zm0 2.21h9.43v1.89h-9.43zm10.41-2.21h9.43v1.89h-9.43zm0 2.21h9.43v1.89h-9.43zm10.24-8.82h9.43v1.89h-9.43zm0 2.21h9.43v1.89h-9.43zm0 2.2h9.43v1.89h-9.43zm0 2.2h9.43v1.89h-9.43zm0 2.21h9.43v1.89h-9.43zM173.43 48.9h186.08v1.89H173.43z" class="cls-7"/><rect width="6.32" height="8.18" x="170.26" y="45.95" class="cls-8" rx=".09" ry=".09"/><rect width="6.32" height="8.18" x="356.35" y="45.75" class="cls-8" rx=".09" ry=".09"/><path d="M168.71 59.17h195.51v6.57H168.71z" class="cls-7"/><path d="M168.71 68.93h195.51v5.78H168.71z" class="cls-9"/><path d="M168.71 74.65h195.51v13.14H168.71z" class="cls-10"/><path d="M168.71 87.79h195.51v13.14H168.71z" class="cls-11"/><path d="M168.71 100.93h195.51v13.14H168.71z" class="cls-10"/><path d="M168.71 114.01h195.51v13.14H168.71z" class="cls-11"/><path d="M168.71 128.98h195.51v5.78H168.71z" class="cls-12"/><path d="M168.71 134.69h195.51v13.14H168.71z" class="cls-13"/><path d="M168.71 147.84h195.51v13.14H168.71z" class="cls-11"/><path d="M168.71 160.98h195.51v13.14H168.71z" class="cls-13"/><path d="M168.71 174.05h195.51v7.54H168.71z" class="cls-11"/><path d="M425.16 1H188.58L315 213.76h116.79V7.6a6.62 6.62 0 0 0-6.63-6.6" style="mix-blend-mode:screen;fill:url(#linear-gradient-6)" transform="translate(0 -.98)"/><path d="M615 273.54v-133a4.52 4.52 0 0 0-4.51-4.53H389.73a4.52 4.52 0 0 0-4.52 4.53v133Z" style="fill:url(#linear-gradient-7)" transform="translate(0 -.98)"/><path d="M392.2 142.18h215.64v116.73H392.2z" style="fill:url(#linear-gradient-8)"/><path d="M392.2 142.2h215.64v8.97H392.2zm43.37 13.35H442v1.29h-6.43zm0 1.51H442v1.29h-6.43zm0 1.5H442v1.29h-6.43zm0 1.5H442v1.29h-6.43zm0 1.5H442v1.29h-6.43zm7.05-4.5h6.43v1.29h-6.43zm0 1.5h6.43v1.29h-6.43zm0 1.5h6.43v1.29h-6.43zm0 1.5h6.43v1.29h-6.43zm7.04-1.5h6.43v1.29h-6.43zm0 1.5h6.43v1.29h-6.43zm7.04-6.01h6.43v1.29h-6.43zm0 1.51h6.43v1.29h-6.43zm0 1.5h6.43v1.29h-6.43zm0 1.5h6.43v1.29h-6.43zm0 1.5h6.43v1.29h-6.43zm56.57-6.01h6.43v1.29h-6.43zm0 1.51h6.43v1.29h-6.43zm0 1.5h6.43v1.29h-6.43zm0 1.5h6.43v1.29h-6.43zm0 1.5h6.43v1.29h-6.43zm6.99-4.5h6.43v1.29h-6.43zm0 1.5h6.43v1.29h-6.43zm0 1.5h6.43v1.29h-6.43zm0 1.5h6.43v1.29h-6.43zm7.09-1.5h6.43v1.29h-6.43zm0 1.5h6.43v1.29h-6.43zm6.99-6.01h6.43v1.29h-6.43zm0 1.51h6.43v1.29h-6.43zm0 1.5h6.43v1.29h-6.43zm0 1.5h6.43v1.29h-6.43zm0 1.5h6.43v1.29h-6.43zm-70.6-6.01h6.43v1.29h-6.43zm0 1.51h6.43v1.29h-6.43zm0 1.5h6.43v1.29h-6.43zm0 1.5h6.43v1.29h-6.43zm0 1.5h6.43v1.29h-6.43zm7.02-4.5h6.43v1.29h-6.43zm0 1.5h6.43v1.29h-6.43zm0 1.5h6.43v1.29h-6.43zm0 1.5h6.43v1.29h-6.43zm7.02-1.5h6.43v1.29h-6.43zm0 1.5h6.43v1.29h-6.43zm7.03-6.01h6.43v1.29h-6.43zm0 1.51h6.43v1.29h-6.43zm0 1.5h6.43v1.29h-6.43zm0 1.5h6.43v1.29h-6.43zm0 1.5h6.43v1.29h-6.43zm56.63-6.01h6.43v1.29h-6.43zm0 1.51h6.43v1.29h-6.43zm0 1.5h6.43v1.29h-6.43zm0 1.5h6.43v1.29h-6.43zm0 1.5h6.43v1.29h-6.43zm6.98-4.5h6.43v1.29h-6.43zm0 1.5h6.43v1.29h-6.43zm0 1.5h6.43v1.29h-6.43zm0 1.5h6.43v1.29h-6.43zm7.1-1.5h6.43v1.29h-6.43zm0 1.5h6.43v1.29h-6.43zm6.98-6.01h6.43v1.29h-6.43zm0 1.51h6.43v1.29h-6.43zm0 1.5h6.43v1.29h-6.43zm0 1.5h6.43v1.29h-6.43zm0 1.5h6.43v1.29h-6.43zm-70.28-4.5h6.43v1.29h-6.43zm0 1.5h6.43v1.29h-6.43zm0 1.5h6.43v1.29h-6.43zm0 1.5h6.43v1.29h-6.43zm7.1-1.5h6.43v1.29h-6.43zm0 1.5h6.43v1.29h-6.43zm6.98-6.01h6.43v1.29h-6.43zm0 1.51h6.43v1.29h-6.43zm0 1.5h6.43v1.29h-6.43zm0 1.5h6.43v1.29h-6.43zm0 1.5h6.43v1.29h-6.43zm-67.51 6.87h126.93v1.29H438.79z" class="cls-7"/><rect width="4.31" height="5.58" x="436.63" y="166.42" class="cls-8" rx=".09" ry=".09"/><rect width="4.31" height="5.58" x="563.56" y="166.28" class="cls-8" rx=".09" ry=".09"/><path d="M435.57 175.44h133.36v4.48H435.57z" class="cls-7"/><path d="M435.57 182.09h133.36v3.94H435.57z" class="cls-9"/><path d="M435.57 185.99h133.36v8.97H435.57z" class="cls-10"/><path d="M435.57 194.96h133.36v8.97H435.57z" class="cls-11"/><path d="M435.57 203.92h133.36v8.97H435.57z" class="cls-10"/><path d="M435.57 212.84h133.36v8.97H435.57z" class="cls-11"/><path d="M435.57 223.05h133.36v3.94H435.57z" class="cls-12"/><path d="M435.57 226.95h133.36v8.97H435.57z" class="cls-13"/><path d="M435.57 235.91h133.36v8.97H435.57z" class="cls-11"/><path d="M435.57 244.88h133.36v8.97H435.57z" class="cls-13"/><path d="M435.57 253.8h133.36v5.14H435.57z" class="cls-11"/><path d="M615 273.54v-133a4.52 4.52 0 0 0-4.51-4.53H449.12l81.72 137.52Z" style="mix-blend-mode:screen;fill:url(#linear-gradient-9)" transform="translate(0 -.98)"/><path d="M360.23 270.92v4.32c0 1.16 15.14 5.22 17.22 5.22h245.33c2.08 0 17.22-4.06 17.22-5.22v-4.32Z" style="fill:url(#linear-gradient-10)" transform="translate(0 -.98)"/><path d="M640 274.46c0 1.17-1.87 2.12-4.17 2.12H364.4c-2.3 0-4.17-.95-4.17-2.12v-3.18c0-1.17 1.87-2.11 4.17-2.11h271.43c2.3 0 4.17.94 4.17 2.11Z" style="fill:url(#linear-gradient-11)" transform="translate(0 -.98)"/><path d="M528.09 270h-56a1.69 1.69 0 0 1-1.37-.68v1.57a1.66 1.66 0 0 0 1.66 1.67h55.42a1.67 1.67 0 0 0 1.67-1.67v-1.57a1.74 1.74 0 0 1-1.38.68" style="fill:url(#linear-gradient-12)" transform="translate(0 -.98)"/><rect width="60.31" height="109.09" x="125.63" y="164.43" rx="3.14" ry="3.14" style="fill:url(#linear-gradient-13)"/><path d="M127.8 172.85h55.98v92.25H127.8z" style="fill:url(#linear-gradient-14)"/><path d="M127.8 172.85h55.99v5.43H127.8zm.52 8.1h3.9v.78h-3.9zm0 .91h3.9v.78h-3.9zm0 .91h3.9v.78h-3.9zm0 .91h3.9v.78h-3.9zm0 .91h3.9v.78h-3.9zm34.3-3.64h3.9v.78h-3.9zm0 .91h3.9v.78h-3.9zm0 .91h3.9v.78h-3.9zm0 .91h3.9v.78h-3.9zm0 .91h3.9v.78h-3.9zm4.23-2.73h3.9v.78h-3.9zm0 .91h3.9v.78h-3.9zm0 .91h3.9v.78h-3.9zm0 .91h3.9v.78h-3.9zm4.31-.91h3.9v.78h-3.9zm0 .91h3.9v.78h-3.9zm4.23-3.64h3.9v.78h-3.9zm0 .91h3.9v.78h-3.9zm0 .91h3.9v.78h-3.9zm0 .91h3.9v.78h-3.9zm0 .91h3.9v.78h-3.9zm-42.8-3.64h3.9v.78h-3.9zm0 .91h3.9v.78h-3.9zm0 .91h3.9v.78h-3.9zm0 .91h3.9v.78h-3.9zm0 .91h3.9v.78h-3.9zm4.26-2.73h3.9v.78h-3.9zm0 .91h3.9v.78h-3.9zm0 .91h3.9v.78h-3.9zm0 .91h3.9v.78h-3.9zm4.26-.91h3.9v.78h-3.9zm0 .91h3.9v.78h-3.9zm4.25-3.64h3.9v.78h-3.9zm0 .91h3.9v.78h-3.9zm0 .91h3.9v.78h-3.9zm0 .91h3.9v.78h-3.9zm0 .91h3.9v.78h-3.9zm34.33-3.64h3.9v.78h-3.9zm0 .91h3.9v.78h-3.9zm0 .91h3.9v.78h-3.9zm0 .91h3.9v.78h-3.9zm0 .91h3.9v.78h-3.9zm-29.83-2.73h3.9v.78h-3.9zm0 .91h3.9v.78h-3.9zm0 .91h3.9v.78h-3.9zm0 .91h3.9v.78h-3.9zm4.3-.91h3.9v.78h-3.9zm0 .91h3.9v.78h-3.9zm4.23-3.64h3.9v.78h-3.9zm0 .91h3.9v.78h-3.9zm0 .91h3.9v.78h-3.9zm0 .91h3.9v.78h-3.9zm0 .91h3.9v.78h-3.9zm-28.12 4.16h51.37v.78h-51.37z" class="cls-7"/><rect width="2.62" height="3.38" x="128.96" y="187.53" class="cls-8" rx=".09" ry=".09"/><rect width="2.62" height="3.38" x="180.34" y="187.45" class="cls-8" rx=".09" ry=".09"/><path d="M128.96 193h53.99v2.72h-53.99z" class="cls-7"/><path d="M128.96 197.04h53.99v2.39h-53.99z" class="cls-9"/><path d="M128.96 199.4h53.99v5.43h-53.99z" class="cls-10"/><path d="M128.96 204.83h53.99v5.43h-53.99z" class="cls-11"/><path d="M128.96 210.27h53.99v5.43h-53.99z" class="cls-10"/><path d="M128.96 215.67h53.99v5.43h-53.99z" class="cls-11"/><path d="M128.96 221.87h53.99v2.39h-53.99z" class="cls-12"/><path d="M128.96 224.23h53.99v5.43h-53.99z" class="cls-13"/><path d="M128.96 229.66h53.99v5.43h-53.99z" class="cls-11"/><path d="M128.96 235.1h53.99v5.43h-53.99z" class="cls-13"/><path d="M128.96 240.51h53.99v3.12h-53.99z" class="cls-11"/><path d="M128.96 244.13h53.99v2.39h-53.99z" class="cls-12"/><path d="M128.96 246.49h53.99v5.43h-53.99z" class="cls-13"/><path d="M128.96 251.93h53.99v5.43h-53.99z" class="cls-11"/><path d="M128.96 257.36h53.99v5.43h-53.99z" class="cls-13"/><path d="M128.96 262.77h53.99v2.33h-53.99z" class="cls-11"/><path d="M160.82 270.43a1.4 1.4 0 0 1-1.4 1.39h-7.27a1.39 1.39 0 0 1-1.39-1.39 1.4 1.4 0 0 1 1.39-1.4h7.27a1.4 1.4 0 0 1 1.4 1.4" style="mix-blend-mode:multiply;fill:url(#linear-gradient-15)" transform="translate(0 -.98)"/><path d="M182.8 165.41h-45l48.15 81v-77.9a3.14 3.14 0 0 0-3.15-3.1" style="mix-blend-mode:screen;fill:url(#linear-gradient-16)" transform="translate(0 -.98)"/><rect width="111.94" height="151.06" y="122.19" rx="5.83" ry="5.83" style="fill:url(#linear-gradient-17)"/><path d="M4.02 132.39h103.89v130.67H4.02z" style="fill:url(#linear-gradient-18)"/><path d="M63 268.86a1.94 1.94 0 0 1-2 1.94H50.9a1.94 1.94 0 0 1-1.9-1.94 1.94 1.94 0 0 1 1.94-1.94H61a1.93 1.93 0 0 1 2 1.94" style="mix-blend-mode:multiply;fill:url(#linear-gradient-19)" transform="translate(0 -.98)"/><path d="M106.11 123.17H17.69l89.68 150.92a5.82 5.82 0 0 0 4.57-5.68V129a5.83 5.83 0 0 0-5.83-5.83" style="mix-blend-mode:screen;fill:url(#linear-gradient-20)" transform="translate(0 -.98)"/><path d="M4.02 132.39h103.89v6.7H4.02zm2.76 9.98h4.8v.96h-4.8zm0 1.12h4.8v.96h-4.8zm0 1.12h4.8v.96h-4.8zm0 1.13h4.8v.96h-4.8zm0 1.12h4.8v.96h-4.8zm5.26-3.37h4.8v.96h-4.8zm0 1.12h4.8v.96h-4.8zm0 1.13h4.8v.96h-4.8zm0 1.12h4.8v.96h-4.8zm5.27-1.12h4.8v.96h-4.8zm0 1.12h4.8v.96h-4.8zm5.26-4.49h4.8v.96h-4.8zm0 1.12h4.8v.96h-4.8zm0 1.12h4.8v.96h-4.8zm0 1.13h4.8v.96h-4.8zm0 1.12h4.8v.96h-4.8zm42.27-4.49h4.8v.96h-4.8zm0 1.12h4.8v.96h-4.8zm0 1.12h4.8v.96h-4.8zm0 1.13h4.8v.96h-4.8zm0 1.12h4.8v.96h-4.8zm5.22-3.37h4.8v.96h-4.8zm0 1.12h4.8v.96h-4.8zm0 1.13h4.8v.96h-4.8zm0 1.12h4.8v.96h-4.8zm5.31-1.12h4.8v.96h-4.8zm0 1.12h4.8v.96h-4.8zm5.22-4.49h4.8v.96h-4.8zm0 1.12h4.8v.96h-4.8zm0 1.12h4.8v.96h-4.8zm0 1.13h4.8v.96h-4.8zm0 1.12h4.8v.96h-4.8zm-52.76-4.49h4.8v.96h-4.8zm0 1.12h4.8v.96h-4.8zm0 1.12h4.8v.96h-4.8zm0 1.13h4.8v.96h-4.8zm0 1.12h4.8v.96h-4.8zm5.25-3.37h4.8v.96h-4.8zm0 1.12h4.8v.96h-4.8zm0 1.13h4.8v.96h-4.8zm0 1.12h4.8v.96h-4.8zm5.24-1.12h4.8v.96h-4.8zm0 1.12h4.8v.96h-4.8zm5.25-4.49h4.8v.96h-4.8zm0 1.12h4.8v.96h-4.8zm0 1.12h4.8v.96h-4.8zm0 1.13h4.8v.96h-4.8zm0 1.12h4.8v.96h-4.8zm42.32-4.49h4.8v.96h-4.8zm0 1.12h4.8v.96h-4.8zm0 1.12h4.8v.96h-4.8zm0 1.13h4.8v.96h-4.8zm0 1.12h4.8v.96h-4.8zm5.22-3.37h4.8v.96h-4.8zm0 1.12h4.8v.96h-4.8zm0 1.13h4.8v.96h-4.8zm0 1.12h4.8v.96h-4.8zm5.3-1.12h4.8v.96h-4.8zm0 1.12h4.8v.96h-4.8zm5.22-4.49h4.8v.96h-4.8zm0 1.12h4.8v.96h-4.8zm0 1.12h4.8v.96h-4.8zm0 1.13h4.8v.96h-4.8zm0 1.12h4.8v.96h-4.8zm-52.52-3.37h4.8v.96h-4.8zm0 1.12h4.8v.96h-4.8zm0 1.13h4.8v.96h-4.8zm0 1.12h4.8v.96h-4.8zm5.3-1.12h4.8v.96h-4.8zm0 1.12h4.8v.96h-4.8zm5.22-4.49h4.8v.96h-4.8zm0 1.12h4.8v.96h-4.8zm0 1.12h4.8v.96h-4.8zm0 1.13h4.8v.96h-4.8zm0 1.12h4.8v.96h-4.8zm-50.44 5.13h94.85v.96H9.19z" class="cls-7"/><rect width="3.22" height="4.17" x="7.57" y="150.49" class="cls-8" rx=".09" ry=".09"/><rect width="3.22" height="4.17" x="102.42" y="150.39" class="cls-8" rx=".09" ry=".09"/><path d="M6.78 157.23h99.65v3.35H6.78z" class="cls-7"/><path d="M6.78 162.2h99.65v2.95H6.78z" class="cls-9"/><path d="M6.78 165.11h99.65v6.7H6.78z" class="cls-10"/><path d="M6.78 171.81h99.65v6.7H6.78z" class="cls-11"/><path d="M6.78 178.51h99.65v6.7H6.78z" class="cls-10"/><path d="M6.78 185.17h99.65v6.7H6.78z" class="cls-11"/><path d="M6.78 192.81h99.65v2.95H6.78z" class="cls-12"/><path d="M6.78 195.72h99.65v6.7H6.78z" class="cls-13"/><path d="M6.78 202.42h99.65v6.7H6.78z" class="cls-11"/><path d="M6.78 209.12h99.65v6.7H6.78z" class="cls-13"/><path d="M6.78 215.78h99.65v3.84H6.78z" class="cls-11"/><path d="M6.78 220.35h99.65v2.95H6.78z" class="cls-12"/><path d="M6.78 223.26h99.65v6.7H6.78z" class="cls-13"/><path d="M6.78 229.96h99.65v6.7H6.78z" class="cls-11"/><path d="M6.78 236.66h99.65v6.7H6.78z" class="cls-13"/><path d="M6.78 243.32h99.65v3.84H6.78z" class="cls-11"/><path d="M6.78 248.19h99.65v2.95H6.78z" class="cls-12"/><path d="M6.78 251.11h99.65v6.7H6.78z" class="cls-13"/><path d="M6.78 257.81h99.65v5.25H6.78z" class="cls-11"/></g></g></svg>