<svg xmlns="http://www.w3.org/2000/svg" viewBox="0 0 10 10"><defs><style>.cls-1{fill:#646464}</style></defs><g id="Layer_2" data-name="Layer 2"><g id="Layer_1-2" data-name="Layer 1"><path d="m2.26 1.79.26.53.58.09-.42.41.1.58-.52-.27-.53.27.1-.58-.42-.41.59-.09zM7.5 2.86H4.08a.31.31 0 0 1 0-.62H7.5a.31.31 0 0 1 0 .62M2.26 4.33l.26.54.58.08-.42.41.1.58-.52-.27-.53.27.1-.58-.42-.41.59-.08zM7.5 5.51H4.08a.31.31 0 1 1 0-.61H7.5a.3.3 0 0 1 .31.3.31.31 0 0 1-.31.31M2.26 6.88l.26.53.58.08-.42.42.1.58-.52-.28-.53.28.1-.58-.42-.42.59-.08zM7.5 8H4.08a.31.31 0 0 1-.31-.31.3.3 0 0 1 .31-.3H7.5a.3.3 0 0 1 .31.3.31.31 0 0 1-.31.31" class="cls-1"/><path d="M.49 10h9a.49.49 0 0 0 .51-.49v-9A.49.49 0 0 0 9.51 0h-9A.49.49 0 0 0 0 .49v9a.49.49 0 0 0 .49.51M.8.32h8.4a.49.49 0 0 1 .48.48v8.4a.49.49 0 0 1-.48.48H.8a.49.49 0 0 1-.48-.48V.8A.49.49 0 0 1 .8.32" class="cls-1"/></g></g></svg>