<svg xmlns="http://www.w3.org/2000/svg" viewBox="0 0 10.9 9"><defs><style>.cls-1{fill:#fefefe}</style></defs><g id="Layer_2" data-name="Layer 2"><g id="Layer_1-2" data-name="Layer 1"><path d="M3.7 4.41a.69.69 0 1 1-.7.69.69.69 0 0 1 .7-.69" class="cls-1"/><path d="m10.42 5 .47-3.69L7.53 0l-4 1.92L0 .44l.47 3.94L0 8.25 3.75 9l3.8-.72L10.9 9ZM7.52.39l3 1.12-.2 1.61-3-.75ZM7.13.6 7 2.28l-2 .27a6.3 6.3 0 0 1-.49 1.29 1.4 1.4 0 0 0-.54-.18l-.26-1.43Zm-.32 3.76L5 4.63A1.45 1.45 0 0 0 4.53 4 6.5 6.5 0 0 0 5 2.67l2-.24ZM3.34 2.25l.17 1.45a1.42 1.42 0 0 0-1.15 1L.84 4.43.69 3a1.5 1.5 0 0 0 1.13-.49 1.3 1.3 0 0 0 .29-.8ZM.44 1 2 1.67a1.2 1.2 0 0 1-.26.77 1.38 1.38 0 0 1-1 .44ZM.42 8 .8 4.79 2.3 5a.15.15 0 0 0 0 .07 1.4 1.4 0 0 0 .3.93l-.78.63-.25 1.54Zm2.94.55L1.71 8.2 2 6.67l.74-.59a1.4 1.4 0 0 0 .88.42ZM2.57 5.1A1.13 1.13 0 1 1 3.7 6.23 1.13 1.13 0 0 1 2.57 5.1m1.18 3.48.22-2.09A1.41 1.41 0 0 0 5.11 5.1V5l1.74-.27L7 6.21a2.22 2.22 0 0 0-1.69.7 2.1 2.1 0 0 0-.42 1.45ZM5 8.34A1.94 1.94 0 0 1 5.41 7 2.1 2.1 0 0 1 7 6.35l.15 1.58Zm2.31-5.83 3 .75-.18 1.4-2.96-.35Zm2.38 3.36-1.35-.16.25 2.39-1.08-.24-.3-3.19 2.85.33.42 3.51-1.75-.4-.23-2.24L9.7 6Z" class="cls-1"/></g></g></svg>