<svg xmlns="http://www.w3.org/2000/svg" viewBox="0 0 512 512"><path fill="none" d="M0 0h512v512H0z"/><path d="m348.55 290.33 112.54 112.54c6.5 6.5 6.5 17.14 0 23.64l-34.65 34.65c-6.5 6.5-17.13 6.5-23.63 0L290.27 348.61c-6.5-6.5-6.5-17.13 0-23.63l-42.94-42.94c-50.21 34.03-119.08 28.81-163.56-15.67-50.4-50.41-50.4-132.13 0-182.53 50.41-50.41 132.13-50.41 182.54 0 44.48 44.48 49.69 113.34 15.67 163.56l42.93 42.93c6.5-6.5 17.14-6.5 23.64 0"/><path fill="#fff" stroke="#000" stroke-miterlimit="2.613" stroke-width=".18" d="M233.35 116.79c32.2 32.21 32.2 84.42 0 116.62-32.21 32.21-84.42 32.21-116.62 0-32.2-32.2-32.2-84.41 0-116.62 32.2-32.2 84.41-32.2 116.62 0z"/></svg>