<svg xmlns="http://www.w3.org/2000/svg" xml:space="preserve" width="497.25" height="497.25"><g fill="#6d6d6d"><path d="M248.625 191.25c-32.513 0-57.375 24.862-57.375 57.375S216.112 306 248.625 306 306 281.138 306 248.625s-24.862-57.375-57.375-57.375m0 76.5c-11.475 0-19.125-7.65-19.125-19.125s7.65-19.125 19.125-19.125 19.125 7.65 19.125 19.125-7.65 19.125-19.125 19.125"/><path d="M248.625 114.75C76.5 114.75 0 248.625 0 248.625S76.5 382.5 248.625 382.5 497.25 248.625 497.25 248.625 420.75 114.75 248.625 114.75m0 210.375c-42.075 0-76.5-34.425-76.5-76.5s34.425-76.5 76.5-76.5 76.5 34.425 76.5 76.5-34.425 76.5-76.5 76.5"/></g></svg>