<svg xmlns="http://www.w3.org/2000/svg" width="180" height="216" fill-rule="evenodd" clip-rule="evenodd" image-rendering="optimizeQuality" shape-rendering="geometricPrecision" text-rendering="geometricPrecision"><path fill="none" d="M0 0h180v216H0z"/><path fill="#103656" d="m24 61-11-2c1-5 3-8 7-11 3-2 8-3 14-3s10 1 13 2 5 3 6 5 2 6 2 11l-1 15c0 5 1 8 1 10s1 4 2 6H45c-1-1-1-2-2-4v-1c-2 2-5 4-7 5-3 1-5 1-8 1-5 0-9-1-12-4-3-2-5-6-5-10 0-3 1-5 2-7 2-2 4-4 6-5s6-2 10-3c6-1 11-2 13-3v-1c0-3-1-5-2-6s-4-1-7-1c-2 0-4 0-5 1-2 1-3 3-4 5m18 10c-2 1-4 1-8 2s-6 2-7 2c-2 1-3 3-3 5s1 3 2 4c2 2 4 2 6 2s4 0 6-2c2-1 3-3 3-4 1-1 1-3 1-6zm25 23V28h13v24c4-5 9-7 14-7q9 0 15 6c4 5 6 11 6 19s-2 14-6 19q-6 6-15 6c-3 0-5 0-8-2-3-1-5-3-7-6v7zm13-25c0 5 0 9 2 11 2 4 5 5 9 5 3 0 5-1 7-3q3-4.5 3-12c0-7.5-1-9-3-12-2-2-4-3-8-3-3 0-5 1-7 3-2 3-3 6-3 11m88-9-13 2c0-2-1-4-3-5-1-1-3-2-6-2s-6 1-7 3c-2 2-3 6-3 11q0 9 3 12c2 3 4 4 7 4s5-1 6-2c2-2 3-4 4-7l13 2c-2 6-4 10-8 13s-9 4-15 4c-7 0-13-2-17-6-5-5-7-11-7-19s2-14 7-18c4-5 10-7 17-7 6 0 11 1 14 4 4 2 6 6 8 11M27 170c-3-5-9-20-13-23s-12 1-7 9c4 7 9 18 12 25 1 3 2 5 4 6 2 2 5 2 7 0 2-1 2-4 3-6 5-8 41-67 42-68 1-6-6-9-10-5-8 11-27 42-34 55-1 2-3 6-4 7"/><path fill="#1e6dad" d="M76 170c-2-5-8-20-13-23-4-3-11 1-6 9 4 7 9 18 12 25 1 3 2 5 4 6 2 2 5 2 7 0 2-1 2-4 3-6 5-8 41-67 41-68 2-6-5-9-10-5-7 11-26 42-33 55-1 2-3 6-5 7"/><path fill="#51A0E1" d="M126 170c-2-5-9-20-13-23s-11 1-6 9c4 7 9 18 12 25 1 3 2 5 4 6 2 2 5 2 7 0 1-1 2-4 3-6 5-8 41-67 41-68 2-6-5-9-10-5-7 11-26 42-33 55-2 2-3 6-5 7"/></svg>