<svg xmlns="http://www.w3.org/2000/svg" id="Layer_1" data-name="Layer 1" viewBox="0 0 180 216"><style>.sprite{display:none}.sprite:target{display:inline}</style><defs><g id="btn-editar" class="sprite"><path fill="none" d="M0 0h180v216H0z"/><rect width="154" height="110" x="13" y="68" fill="#003D5C" rx="15" ry="16"/><rect width="130.222" height="86.593" x="24" y="80" fill="#fff" rx="5" ry="6"/><path fill="#006094" d="M35 98h109.735v6.982H35zm0 22h109.735v6.982H35zm0 21h109.735v6.982H35z"/><path fill="#fff" d="m74 158 91-91-41-41-91 91c-12 11-12 30 0 41 11 11 30 11 41 0"/><path fill="#003D5C" d="m74 143 90-91c4-4 4-10 0-14l-12-12c-3-3-9-3-13 0l-91 91z"/><path fill="#003D5C" d="M48 117c-4 9-10 20-12 26-4 9 3 16 12 12 6-2 17-8 26-12z"/><path fill="#fff" d="M68 137c-22 12-23 12-25 10-2-1-1-2 11-24zm89-85 4-3c2-2 2-5 0-7l-12-12c-2-2-5-2-7 0l-4 4z"/></g><g id="btn-multiselect" class="sprite"><path fill="none" d="M0 0h180v216H0z"/><path fill="#fff" d="M87 50h50.265v10.8H87zm0 65h50.265v10.8H87zm0 65h50.265v10.8H87zm0-155h72.518v10.8H87zm0 65h72.518v10.8H87zm0 65h72.518v10.8H87zM75 43V21c0-3-2-5-5-5H26c-3 0-6 2-6 5v22h14v-9c0-2 2-4 5-4h17c3 0 5 2 5 4v9zm0 65V86c0-3-2-5-5-5H26c-3 0-6 2-6 5v22h14v-9c0-2 2-5 5-5h17c3 0 5 3 5 5v9zm0 65v-22c0-3-2-6-5-6H26c-3 0-6 3-6 6v22h14v-9c0-3 2-5 5-5h17c3 0 5 2 5 5v9zm0-130v22c0 3-2 6-5 6H26c-3 0-6-3-6-6V43h14v9c0 3 2 5 5 5h17c3 0 5-2 5-5v-9zm0 65v22c0 3-2 5-5 5H26c-3 0-6-2-6-5v-22h14v9c0 2 2 5 5 5h17c3 0 5-3 5-5v-9zm0 65v22c0 3-2 5-5 5H26c-3 0-6-2-6-5v-22h14v9c0 2 2 4 5 4h17c3 0 5-2 5-4v-9z"/></g><g id="zoom-out" class="sprite"><path fill="none" d="M0 0h180v216H0z"/><path fill="#003d5c" d="M67 102h45.06v11.28H67z"/><path fill="#003d5c" d="M90 46a62 62 0 1 0 62 62 62.31 62.31 0 0 0-62-62m0 112a50 50 0 0 1 0-100 50 50 0 0 1 0 100"/></g><g id="zoom-in" class="sprite"><path fill="none" d="M0 0h180v216H0z"/><path fill="#003d5c" d="M67 102h45.06v11.28H67z"/><path fill="#003d5c" d="M84.36 85.47h11.28v45.06H84.36z"/><path fill="#003d5c" d="M90 46a62 62 0 1 0 62 62 62.31 62.31 0 0 0-62-62m0 112a50 50 0 0 1 0-100 50 50 0 0 1 0 100"/></g><g id="btn-izq" class="sprite"><path fill="none" d="M0 0h180v216H0z"/><path fill="#fff" d="M17 92c-5 3-9 9-9 16s4 13 9 16c40 22 79 45 119 68 5 3 12 3 18 0 5-3 9-10 9-16V40c0-6-4-13-9-16-6-3-13-3-18 0C96 47 57 70 17 92"/></g><g id="btn-der" class="sprite"><path fill="none" d="M0 0h180v216H0z"/><path fill="#fff" d="M163 92c5 3 9 9 9 16s-4 13-9 16c-40 22-79 45-119 68-5 3-12 3-18 0-5-3-9-10-9-16V40c0-6 4-13 9-16 6-3 13-3 18 0 40 23 79 46 119 68"/></g><g id="hb-1001" class="sprite"><path fill="#99CCFE" d="M10 206h150v-19H10z"/><path fill="#5AADFF" d="M10 187h150v19H10zm160 29v-39H0v39z"/><path fill="none" d="M170 216h10V0H0v177h170z"/></g><g id="hb-1002" class="sprite"><path fill="#99CCFE" d="M10 206h150v-19H10z"/><path fill="#5AADFF" d="M10 187h150v19H10zm160 29v-39H0v39z"/><path fill="none" d="M170 216h10V0H0v177h170z"/></g><g id="hb-1004" class="sprite"><path fill="#99CCFE" d="M10 206h150v-19H10zm0-29h150v-20H10z"/><path fill="#5AADFF" d="M10 187h150v19H10zm0-30h150v20H10zm160 59v-69H0v69z"/><path fill="none" d="M170 216h10V0H0v147h170z"/></g><g id="hb-1006" class="sprite"><path fill="#99CCFE" d="M10 206h150v-19H10zm0-59h150v-19H10zm0 30h150v-20H10z"/><path fill="#5AADFF" d="M10 187h150v19H10zm0-30h150v20H10zm0-29h150v19H10zm160 88v-98H0v98z"/><path fill="none" d="M170 216h10V0H0v118h170z"/></g><g id="hb-1008" class="sprite"><path fill="#99CCFE" d="M10 206h150v-19H10zm0-29h150v-20H10zm0-30h150v-19H10zm0-29h150V98H10z"/><path fill="#5AADFF" d="M10 187h150v19H10zm0-30h150v20H10zm0-29h150v19H10zm0-30h150v20H10zm160 118V88H0v128z"/><path fill="none" d="M170 216h10V0H0v88h170z"/></g><g id="hb-1010" class="sprite"><path fill="#99CCFE" d="M10 206h150v-19H10zm0-118h150V69H10zm0 59h150v-19H10zm0 30h150v-20H10zm0-59h150V98H10z"/><path fill="#5AADFF" d="M10 187h150v19H10zm0-30h150v20H10zm0-29h150v19H10zm0-30h150v20H10zm0-29h150v19H10zm160 147V59H0v157z"/><path fill="none" d="M170 216h10V0H0v59h170z"/></g><g id="hb-1012" class="sprite"><path fill="#99CCFE" d="M10 206h150v-19H10zm0-118h150V69H10zm0 59h150v-19H10zm0 30h150v-20H10zm0-59h150V98H10z"/><path fill="#5AADFF" d="M10 187h150v19H10zm0-30h150v20H10zm0-29h150v19H10zm0-30h150v20H10zm0-29h150v19H10zm160 147V59H0v157z"/><path fill="none" d="M170 216h10V0H0v59h170z"/><circle cx="85" cy="137" r="16" fill="#fff"/></g><g id="hb-1100" class="sprite"><path fill="none" d="M0 0h180v216H0z"/><circle cx="85" cy="143" r="37" fill="#CF0000"/></g><g id="hb-1101" class="sprite"><path fill="none" d="M170 216h10V0H0v177h170z"/><path fill="#B00" d="M10 187h150v19H10zm160 29v-39H0v39z"/><path fill="#FB0000" d="M10 206h150v-19H10z"/></g><g id="hb-1102" class="sprite"><path fill="#0093D9" d="M10 206h150v-19H10z"/><path fill="#069" d="M10 187h150v19H10zm160 29v-39H0v39z"/><path fill="none" d="M170 216h10V0H0v177h170z"/></g><g id="hb-1104" class="sprite"><path fill="#0093D9" d="M10 206h150v-19H10zm0-29h150v-20H10z"/><path fill="#069" d="M10 187h150v19H10zm0-30h150v20H10zm160 59v-69H0v69z"/><path fill="none" d="M170 216h10V0H0v147h170z"/></g><g id="hb-1106" class="sprite"><path fill="#0093D9" d="M10 206h150v-19H10zm0-59h150v-19H10zm0 30h150v-20H10z"/><path fill="#069" d="M10 187h150v19H10zm0-30h150v20H10zm0-29h150v19H10zm160 88v-98H0v98z"/><path fill="none" d="M170 216h10V0H0v118h170z"/></g><g id="hb-1108" class="sprite"><path fill="#0093D9" d="M10 206h150v-19H10zm0-29h150v-20H10zm0-30h150v-19H10zm0-29h150V98H10z"/><path fill="#069" d="M10 187h150v19H10zm0-30h150v20H10zm0-29h150v19H10zm0-30h150v20H10zm160 118V88H0v128z"/><path fill="none" d="M170 216h10V0H0v88h170z"/></g><g id="hb-1110" class="sprite"><path fill="#0093D9" d="M10 206h150v-19H10zm0-118h150V69H10zm0 59h150v-19H10zm0 30h150v-20H10zm0-59h150V98H10z"/><path fill="#069" d="M10 187h150v19H10zm0-30h150v20H10zm0-29h150v19H10zm0-30h150v20H10zm0-29h150v19H10zm160 147V59H0v157z"/><path fill="none" d="M170 216h10V0H0v59h170z"/></g><g id="hb-1112" class="sprite"><path fill="#0093D9" d="M10 206h150v-19H10zm0-118h150V69H10zm0 59h150v-19H10zm0 30h150v-20H10zm0-59h150V98H10z"/><path fill="#069" d="M10 187h150v19H10zm0-30h150v20H10zm0-29h150v19H10zm0-30h150v20H10zm0-29h150v19H10zm160 147V59H0v157z"/><path fill="none" d="M170 216h10V0H0v59h170z"/><circle cx="85" cy="137" r="16" fill="#fff"/></g><g id="hb-1200" class="sprite"><path fill="none" d="M0 0h180v216H0z"/><path d="M83 78C73 59 51 47 29 61l16 5c-16 2-34 11-32 29 8-13 21-14 34-16-1 2-2 4-3 8 7 0 18-1 26 3-39 4-49 1-52 43 8-14 19-19 30-23l-4 16c11-11 22-19 30-22-14 18-31 41-42 64-3 8-5 9-7 18-2 5-11 19-14 30h23c3-13-1-9 7-31 1-4 2-9 5-15 2-5 4-9 7-14 2-4 4-8 7-13 2-4 21-36 21-36l-8 30c6-1 8-2 10-2-4 18 1 24-7 34 20-3 26-41 22-60 5 11 9 17 8 30l8-9c4 6 11 19-1 38 25-8 17-36 13-46 5 6 16 13 19 19 2-16-6-32-34-45 17 0 27 8 38 15-5-17-22-24-33-27 10-3 20-5 30 0-20-24-36-11-48-2 8-17 11-29-11-37 4 5 7 7 7 16-10-7-16-12-31-13 9 8 25 21 20 30"/><path fill="#963" d="m79 105-4-2v1c-14 18-31 41-41 64-3 8-6 9-8 18-2 5-10 19-13 30h17c3-13 0-9 7-31 2-4 2-9 5-15 3-5 5-9 7-14 3-4 5-8 8-13 2-3 20-35 22-38"/><path fill="#093" d="M91 80C81 61 59 49 37 63l15 5c-15 2-33 11-31 29 8-13 20-14 34-16-1 2-2 4-3 8 7 0 18-1 26 3-40 4-49 1-52 43 8-14 19-19 30-23l-4 16c11-11 22-19 30-22 0 8 7 3 7 3l-8 30c6-1 8-2 10-2-5 18 1 24-7 34 20-3 26-41 21-60 6 11 10 17 9 31l8-10c4 6 11 20-1 38 25-8 16-36 13-46 5 6 16 13 18 19 3-16-5-32-33-45 17 0 27 8 38 15-5-17-22-24-33-27 10-3 20-5 30 0-20-24-36-11-48-2 8-17 11-29-11-37 4 5 7 7 6 16-9-7-15-12-30-13 9 8 25 21 20 30"/></g><g id="hb-1300" class="sprite"><path fill="#7E7E7E" d="M140 108h10V59h-10zm-20-29V69h-10v10zm-20 0V69H90v10zm-50 9v-9H40v9zm20 0v-9H60v9zm-50 49v-9H10v9zm80-78V49H90v10zm70 69v-10h-10v10zm-20 0v-10h-10v10zm-140 0v-10H0v10zm40-20V98H40v10zm30-49V49H70v10zm90 78h-10v10h10zm-160 0H0v10h10zm60-68V59H60v10zm90 68v-9h-10v9zM90 69V59H80v10zM60 79V69H50v10zm20 0V69H70v10zm30 9v-9h-10v9zm-80 40v-10H20v10zm100-49h-10v9h10zM40 98V88H30v10zm80 0V88h-10v10zm-80 20v-10H30v10zm100 0v-10h-10v10zm-120 0v-10H10v10zm10-10V98H20v10zm100 0V98h-10v10zM60 98V88H50v10zm50-29V59h-10v10z"/><path d="M140 108V59h10v49zm-20-20v10h10v10h10v10h10v10h10V49h-30v39zm50 49v-9h-10v9zM70 79V69H60v10zm50 9v-9h-10v9zM10 137v-9H0v9zm80-78V49H80v10zm-70 69v-10H10v10zm20-20V98H30v10zm60-39V59H90v10zm10 10V69h-10v10zm-50 9v-9H50v9zM50 98V88H40v10zm-20 20v-10H20v10zm50-49V59H70v10z"/><path fill="none" d="M10 118v-10h10V98h10V88h10v-9h10V69h10V59h10V49h30v10h10v10h10v10h10V49h30v69h10v29h-10v-10h-10v79h30V0H0v118zM0 147v69h20v-79H10v10z"/><path fill="#FEFEFE" d="M100 216v-49H70v49zm50-79v-9h-10v9zM90 79V69H80v10zm10 9v-9H90v9zm40 40v-10h-10v10zM40 118H30v10h10zm80-10V98h-10v10zm-90 20H20v9h10zm50-49H70v9h10zm-10 9H60v10h10zm-20 20H40v10h10zm10-10H50v10h10zm70 20v-10h-10v10zm-20-20V88h-10v10z"/><path fill="#7092BE" d="M70 88v10H60v10H50v10H40v10H30v9H20v79h50v-49h30v49h50v-79h-10v-9h-10v-10h-10v-10h-10V98h-10V88H90v-9H80v9z"/></g><g id="hb-1400" class="sprite"><path fill="none" d="M0 0h180v216H0z"/><ellipse cx="85" cy="143" fill="#B3B3B3" rx="59" ry="58"/><ellipse cx="85" cy="143" fill="#fff" rx="47" ry="46"/><path fill="red" d="M77 177h16v-26h26v-16H93v-25H77v25H51v16h26zm0-13"/></g><g id="hb-2000" class="sprite"><path fill="none" d="M0 0h180v216H0z"/><path fill="#0D9900" d="M78 148c0 5 2 6 7 8 10 4 23 7 23 21 0 7-1 11-6 16-2 2-8 5-13 5v10h-8v-10c-7 0-14-5-17-11-1-1-2-5-2-7 3 0 10-2 12-3 1 10 12 13 17 9 3-2 3-4 3-7 0-10-30-6-30-28 0-5 2-10 5-14 3-3 7-5 12-5v-8h8v8c8 0 15 7 17 15l-11 4c-1-2-1-4-3-6-5-6-14-3-14 3m-57 40c0 7 2 15 7 20 2 1 2 2 5 3 7 4 18 5 28 5h47c13 0 25-1 33-8 17-13 1-51-6-62-1-2-1-3-2-5-1-1-2-2-3-4-4-6-7-9-12-15-2-1-6-6-8-6H60c-2 0-5 4-7 6-2 1-4 4-5 5-4 4-11 14-13 19-1 0-1 1-1 2-7 11-13 27-13 40m39-90h50c1 0 5-5 6-6 2-1 4-5 5-7 2-3 4-6 2-10-1-3-5-4-9-4-6 0-16 5-21 7-7 3-8 4-15 0-8-3-16-7-24-7-3 0-6 2-7 4-3 9 12 23 13 23m-2 8c0 4 1 6 6 6h42c7 0 7-6 5-8-1-1-2-2-3-2H62c-1 0-2 1-3 2 0 0-1 1-1 2"/></g><g id="hb-20010" class="sprite"><path fill="#727272" d="M20 88v-9H10v9zm30 30v-10H40v10zM30 98V88H20v10zm10 10V98H30v10zm20 20v-10H50v10zM10 79V69H0v10z"/><path fill="#8C8C8C" d="M170 79V69H20v10z"/><path fill="#D6D6D6" d="M170 108V98H50v10z"/><path fill="#9C9C9C" d="M170 88v-9H30v9z"/><path fill="#BCBCBC" d="M170 98V88H40v10z"/><path fill="#737373" d="M170 69V59H10v10z"/><path fill="#EEE" d="M170 118v-10H60v10z"/><path d="M0 10v39h170V10zm180 118v-10H60v10zM40 98V88H30v10zM10 69V59H0v10zm10 10V69H10v10zm10 9v-9H20v9zm20 20V98H40v10zm10 10v-10H50v10z"/><path fill="none" d="M180 128H50v-10H40v-10H30V98H20V88H10v-9H0v137h180zM0 49v10h170v59h10V0H0v10h170v39z"/></g><g id="hb-20020" class="sprite"><path fill="#8C8C8C" d="M170 79V69H0v10z"/><path fill="#D6D6D6" d="M170 108V98H0v10z"/><path fill="#9C9C9C" d="M170 88v-9H0v9z"/><path fill="#BCBCBC" d="M170 98V88H0v10z"/><path fill="#737373" d="M170 69V59H0v10z"/><path fill="#EEE" d="M170 118v-10H0v10z"/><path d="M0 10v39h170V10zm180 118v-10H0v10z"/><path fill="none" d="M180 128H0v88h180zM0 49v10h170v59h10V0H0v10h170v39z"/></g><g id="hb-20030" class="sprite"><path fill="#727272" d="M150 88h-10v10h10zm20-19h-10v10h10zm-10 10h-10v9h10zm-20 19h-10v10h10zm-10 10h-10v10h10zm-10 10h-10v10h10z"/><path fill="#8C8C8C" d="M150 79V69H0v10z"/><path fill="#D6D6D6" d="M120 108V98H0v10z"/><path fill="#9C9C9C" d="M140 88v-9H0v9z"/><path fill="#BCBCBC" d="M130 98V88H0v10z"/><path fill="#737373" d="M160 69V59H0v10z"/><path fill="#EEE" d="M110 118v-10H0v10z"/><path d="M0 10v39h170V10zm110 118v-10H0v10zm70-59V59h-20v10zm-40 29V88h-10v10zm10-10v-9h-10v9zm-30 30v-10h-10v10zm40-39V69h-10v10zm-30 29V98h-10v10z"/><path fill="none" d="M160 79v9h-10v10h-10v10h-10v10h-10v10H0v88h180V69h-10v10zM0 49v10h180V0H0v10h170v39z"/></g><g id="hb-20110" class="sprite"><path fill="#727272" d="M20 88v-9H10v9zm30 30v-10H40v10zM10 79V69H0v10zm20 19V88H20v10zm10 10V98H30v10zm20 20v-10H50v10z"/><path fill="#AED7FF" d="M170 108V98H50v10z"/><path fill="#6FB7FF" d="M170 79V69H20v10z"/><path fill="#C4E1FE" d="M170 118v-10H60v10z"/><path fill="#84C1FF" d="M170 88v-9H30v9z"/><path fill="#99CCFE" d="M170 98V88H40v10z"/><path d="M0 10v39h170V10zm180 118v-10H60v10zM40 98V88H30v10zM10 69V59H0v10zm10 10V69H10v10zm10 9v-9H20v9zm20 20V98H40v10zm10 10v-10H50v10z"/><path fill="#5AADFF" d="M170 69V59H10v10z"/><path fill="none" d="M180 128H50v-10H40v-10H30V98H20V88H10v-9H0v137h180zM0 49v10h170v59h10V0H0v10h170v39z"/></g><g id="hb-20111" class="sprite"><path fill="#727272" d="M30 98V88H20v10zM10 79V69H0v10zm10 9v-9H10v9zm20 20V98H30v10zm10 10v-10H40v10zm10 10v-10H50v10z"/><path fill="#0076AE" d="M170 79V69H20v10z"/><path fill="#00A0EE" d="M170 108V98H50v10z"/><path fill="#04ADFF" d="M170 118v-10H60v10z"/><path fill="#0084C4" d="M170 88v-9H30v9z"/><path fill="#0093D9" d="M170 98V88H40v10z"/><path d="M0 10v39h170V10zm180 118v-10H60v10zM30 88v-9H20v9zm10 10V88H30v10zM10 69V59H0v10zm50 49v-10H50v10zM20 79V69H10v10zm30 29V98H40v10z"/><path fill="#069" d="M170 69V59H10v10z"/><path fill="none" d="M180 128H50v-10H40v-10H30V98H20V88H10v-9H0v137h180zM0 49v10h170v59h10V0H0v10h170v39z"/></g><g id="hb-20120" class="sprite"><path fill="#AED7FF" d="M170 108V98H0v10z"/><path fill="#6FB7FF" d="M170 79V69H0v10z"/><path fill="#C4E1FE" d="M170 118v-10H0v10z"/><path fill="#84C1FF" d="M170 88v-9H0v9z"/><path fill="#99CCFE" d="M170 98V88H0v10z"/><path d="M0 10v39h170V10zm180 118v-10H0v10z"/><path fill="#5AADFF" d="M170 69V59H0v10z"/><path fill="none" d="M180 128H0v88h180zM0 49v10h170v59h10V0H0v10h170v39z"/></g><g id="hb-20121" class="sprite"><path fill="#0076AE" d="M170 79V69H0v10z"/><path fill="#00A0EE" d="M170 108V98H0v10z"/><path fill="#04ADFF" d="M170 118v-10H0v10z"/><path fill="#0084C4" d="M170 88v-9H0v9z"/><path fill="#0093D9" d="M170 98V88H0v10z"/><path d="M0 10v39h170V10zm180 118v-10H0v10z"/><path fill="#069" d="M170 69V59H0v10z"/><path fill="none" d="M180 128H0v88h180zM0 49v10h170v59h10V0H0v10h170v39z"/></g><g id="hb-20130" class="sprite"><path fill="#727272" d="M160 79h-10v9h10zm-30 29h-10v10h10zm40-39h-10v10h10zm-20 19h-10v10h10zm-10 10h-10v10h10zm-20 20h-10v10h10z"/><path fill="#AED7FF" d="M120 108V98H0v10z"/><path fill="#6FB7FF" d="M150 79V69H0v10z"/><path fill="#C4E1FE" d="M110 118v-10H0v10z"/><path fill="#84C1FF" d="M140 88v-9H0v9z"/><path fill="#99CCFE" d="M130 98V88H0v10z"/><path d="M0 10v39h170V10zm110 118v-10H0v10zm70-59V59h-20v10zm-40 29V88h-10v10zm20-19V69h-10v10zm-10 9v-9h-10v9zm-20 20V98h-10v10zm-10 10v-10h-10v10z"/><path fill="#5AADFF" d="M160 69V59H0v10z"/><path fill="none" d="M160 79v9h-10v10h-10v10h-10v10h-10v10H0v88h180V69h-10v10zM0 49v10h180V0H0v10h170v39z"/></g><g id="hb-20131" class="sprite"><path fill="#727272" d="M150 88h-10v10h10zm10-9h-10v9h10zm-30 29h-10v10h10zm-10 10h-10v10h10zm50-49h-10v10h10zm-30 29h-10v10h10z"/><path fill="#0076AE" d="M150 79V69H0v10z"/><path fill="#00A0EE" d="M120 108V98H0v10z"/><path fill="#04ADFF" d="M110 118v-10H0v10z"/><path fill="#0084C4" d="M140 88v-9H0v9z"/><path fill="#0093D9" d="M130 98V88H0v10z"/><path d="M0 10v39h170V10zm110 118v-10H0v10zm70-59V59h-20v10zm-30 19v-9h-10v9zm-30 30v-10h-10v10zm40-39V69h-10v10zm-20 19V88h-10v10zm-10 10V98h-10v10z"/><path fill="#069" d="M160 69V59H0v10z"/><path fill="none" d="M160 79v9h-10v10h-10v10h-10v10h-10v10H0v88h180V69h-10v10zM0 49v10h180V0H0v10h170v39z"/></g><g id="hb-21010" class="sprite"><path fill="#727272" d="M30 98V88H20v10zM20 88v-9H10v9zm30 30v-10H40v10zm10 10v-10H50v10zm-20-20V98H30v10zM10 79V69H0v10z"/><path fill="#8C8C8C" d="M170 79V69H20v10z"/><path fill="#D6D6D6" d="M170 108V98H50v10z"/><path fill="#9C9C9C" d="M170 88v-9H30v9z"/><path fill="#BCBCBC" d="M170 98V88H40v10z"/><path fill="#737373" d="M170 69V59H10v10z"/><path fill="#EEE" d="M170 118v-10H60v10z"/><path d="M10 20h150v19H10zM0 10v39h170V10zm180 118v-10H60v10zM30 88v-9H20v9zm30 30v-10H50v10zM10 69V59H0v10zm10 10V69H10v10zm20 19V88H30v10zm10 10V98H40v10z"/><path fill="none" d="M180 128H50v-10H40v-10H30V98H20V88H10v-9H0v137h180zM0 49v10h170v59h10V0H0v10h170v39z"/><path fill="#FEFEFE" d="M10 39h150V20H10z"/></g><g id="hb-21020" class="sprite"><path fill="#8C8C8C" d="M170 79V69H0v10z"/><path fill="#D6D6D6" d="M170 108V98H0v10z"/><path fill="#9C9C9C" d="M170 88v-9H0v9z"/><path fill="#BCBCBC" d="M170 98V88H0v10z"/><path fill="#737373" d="M170 69V59H0v10z"/><path fill="#EEE" d="M170 118v-10H0v10z"/><path d="M10 20h150v19H10zM0 10v39h170V10zm180 118v-10H0v10z"/><path fill="none" d="M180 128H0v88h180zM0 49v10h170v59h10V0H0v10h170v39z"/><path fill="#FEFEFE" d="M10 39h150V20H10z"/></g><g id="hb-21030" class="sprite"><path fill="#727272" d="M150 88h-10v10h10zm20-19h-10v10h10zm-10 10h-10v9h10zm-20 19h-10v10h10zm-10 10h-10v10h10zm-10 10h-10v10h10z"/><path fill="#8C8C8C" d="M150 79V69H0v10z"/><path fill="#D6D6D6" d="M120 108V98H0v10z"/><path fill="#9C9C9C" d="M140 88v-9H0v9z"/><path fill="#BCBCBC" d="M130 98V88H0v10z"/><path fill="#737373" d="M160 69V59H0v10z"/><path fill="#EEE" d="M110 118v-10H0v10z"/><path d="M10 20h150v19H10zM0 10v39h170V10zm110 118v-10H0v10zm70-59V59h-20v10zm-40 29V88h-10v10zm10-10v-9h-10v9zm-30 30v-10h-10v10zm10-10V98h-10v10zm30-29V69h-10v10z"/><path fill="none" d="M160 79v9h-10v10h-10v10h-10v10h-10v10H0v88h180V69h-10v10zM0 49v10h180V0H0v10h170v39z"/><path fill="#FEFEFE" d="M10 39h150V20H10z"/></g><g id="hb-21110" class="sprite"><path fill="#727272" d="M20 88v-9H10v9zm30 30v-10H40v10zM30 98V88H20v10zm10 10V98H30v10zm20 20v-10H50v10zM10 79V69H0v10z"/><path fill="#AED7FF" d="M170 108V98H50v10z"/><path fill="#6FB7FF" d="M170 79V69H20v10z"/><path fill="#C4E1FE" d="M170 118v-10H60v10z"/><path fill="#84C1FF" d="M170 88v-9H30v9z"/><path fill="#99CCFE" d="M170 98V88H40v10z"/><path d="M10 20h150v19H10zM0 10v39h170V10zm180 118v-10H60v10zM40 98V88H30v10zM10 69V59H0v10zm10 10V69H10v10zm10 9v-9H20v9zm20 20V98H40v10zm10 10v-10H50v10z"/><path fill="#5AADFF" d="M170 69V59H10v10z"/><path fill="none" d="M180 128H50v-10H40v-10H30V98H20V88H10v-9H0v137h180zM0 49v10h170v59h10V0H0v10h170v39z"/><path fill="#FEFEFE" d="M10 39h150V20H10z"/></g><g id="hb-21111" class="sprite"><path fill="#727272" d="M30 98V88H20v10zM10 79V69H0v10zm10 9v-9H10v9zm20 20V98H30v10zm10 10v-10H40v10zm10 10v-10H50v10z"/><path fill="#0076AE" d="M170 79V69H20v10z"/><path fill="#00A0EE" d="M170 108V98H50v10z"/><path fill="#04ADFF" d="M170 118v-10H60v10z"/><path fill="#0084C4" d="M170 88v-9H30v9z"/><path fill="#0093D9" d="M170 98V88H40v10z"/><path d="M10 20h150v19H10zM0 10v39h170V10zm180 118v-10H60v10zM10 69V59H0v10zm20 19v-9H20v9zm10 10V88H30v10zm20 20v-10H50v10zm-10-10V98H40v10zM20 79V69H10v10z"/><path fill="#069" d="M170 69V59H10v10z"/><path fill="none" d="M180 128H50v-10H40v-10H30V98H20V88H10v-9H0v137h180zM0 49v10h170v59h10V0H0v10h170v39z"/><path fill="#FEFEFE" d="M10 39h150V20H10z"/></g><g id="hb-21120" class="sprite"><path fill="#AED7FF" d="M170 108V98H0v10z"/><path fill="#6FB7FF" d="M170 79V69H0v10z"/><path fill="#C4E1FE" d="M170 118v-10H0v10z"/><path fill="#84C1FF" d="M170 88v-9H0v9z"/><path fill="#99CCFE" d="M170 98V88H0v10z"/><path d="M10 20h150v19H10zM0 10v39h170V10zm180 118v-10H0v10z"/><path fill="#5AADFF" d="M170 69V59H0v10z"/><path fill="none" d="M180 128H0v88h180zM0 49v10h170v59h10V0H0v10h170v39z"/><path fill="#FEFEFE" d="M10 39h150V20H10z"/></g><g id="hb-21121" class="sprite"><path fill="#0076AE" d="M170 79V69H0v10z"/><path fill="#00A0EE" d="M170 108V98H0v10z"/><path fill="#04ADFF" d="M170 118v-10H0v10z"/><path fill="#0084C4" d="M170 88v-9H0v9z"/><path fill="#0093D9" d="M170 98V88H0v10z"/><path d="M10 20h150v19H10zM0 10v39h170V10zm180 118v-10H0v10z"/><path fill="#069" d="M170 69V59H0v10z"/><path fill="none" d="M180 128H0v88h180zM0 49v10h170v59h10V0H0v10h170v39z"/><path fill="#FEFEFE" d="M10 39h150V20H10z"/></g><g id="hb-21130" class="sprite"><path fill="#727272" d="M150 88h-10v10h10zm20-19h-10v10h10zm-10 10h-10v9h10zm-20 19h-10v10h10zm-10 10h-10v10h10zm-10 10h-10v10h10z"/><path fill="#AED7FF" d="M120 108V98H0v10z"/><path fill="#6FB7FF" d="M150 79V69H0v10z"/><path fill="#C4E1FE" d="M110 118v-10H0v10z"/><path fill="#84C1FF" d="M140 88v-9H0v9z"/><path fill="#99CCFE" d="M130 98V88H0v10z"/><path d="M10 20h150v19H10zM0 10v39h170V10zm110 118v-10H0v10zm70-59V59h-20v10zm-30 19v-9h-10v9zm-10 10V88h-10v10zm-20 20v-10h-10v10zm10-10V98h-10v10zm30-29V69h-10v10z"/><path fill="#5AADFF" d="M160 69V59H0v10z"/><path fill="none" d="M160 79v9h-10v10h-10v10h-10v10h-10v10H0v88h180V69h-10v10zM0 49v10h180V0H0v10h170v39z"/><path fill="#FEFEFE" d="M10 39h150V20H10z"/></g><g id="hb-21131" class="sprite"><path fill="#727272" d="M160 79h-10v9h10zm-10 9h-10v10h10zm-20 20h-10v10h10zm40-39h-10v10h10zm-30 29h-10v10h10zm-20 20h-10v10h10z"/><path fill="#0076AE" d="M150 79V69H0v10z"/><path fill="#00A0EE" d="M120 108V98H0v10z"/><path fill="#04ADFF" d="M110 118v-10H0v10z"/><path fill="#0084C4" d="M140 88v-9H0v9z"/><path fill="#0093D9" d="M130 98V88H0v10z"/><path d="M10 20h150v19H10zM0 10v39h170V10zm110 118v-10H0v10zm70-59V59h-20v10zm-30 19v-9h-10v9zm10-9V69h-10v10zm-20 19V88h-10v10zm-10 10V98h-10v10zm-10 10v-10h-10v10z"/><path fill="#069" d="M160 69V59H0v10z"/><path fill="none" d="M160 79v9h-10v10h-10v10h-10v10h-10v10H0v88h180V69h-10v10zM0 49v10h180V0H0v10h170v39z"/><path fill="#FEFEFE" d="M10 39h150V20H10z"/></g><g id="hb-200100" class="sprite"><path fill="#727272" d="M20 88v-9H10v9zm30 30v-10H40v10zM30 98V88H20v10zm10 10V98H30v10zm20 20v-10H50v10zM10 79V69H0v10z"/><path fill="#8C8C8C" d="M170 79V69H20v10z"/><path fill="#D6D6D6" d="M170 108V98H50v10z"/><path fill="#9C9C9C" d="M170 88v-9H30v9z"/><path fill="#BCBCBC" d="M170 98V88H40v10z"/><path fill="#737373" d="M170 69V59H10v10z"/><path fill="#EEE" d="M170 118v-10H60v10z"/><path d="M0 10v39h170V10zm180 118v-10H60v10zM40 98V88H30v10zM10 69V59H0v10zm10 10V69H10v10zm10 9v-9H20v9zm20 20V98H40v10zm10 10v-10H50v10z"/><path fill="none" d="M180 128H50v-10H40v-10H30V98H20V88H10v-9H0v137h180zM0 49v10h170v59h10V0H0v10h170v39z"/><path fill="#FF8000" d="M170 187v-50H0v50z"/><path fill="#FFFF71" d="M10 177h150v-30H10z"/></g><g id="hb-200200" class="sprite"><path fill="#8C8C8C" d="M170 79V69H0v10z"/><path fill="#D6D6D6" d="M170 108V98H0v10z"/><path fill="#9C9C9C" d="M170 88v-9H0v9z"/><path fill="#BCBCBC" d="M170 98V88H0v10z"/><path fill="#737373" d="M170 69V59H0v10z"/><path fill="#EEE" d="M170 118v-10H0v10z"/><path d="M0 10v39h170V10zm180 118v-10H0v10z"/><path fill="none" d="M180 128H0v88h180zM0 49v10h170v59h10V0H0v10h170v39z"/><path fill="#FF8000" d="M170 187v-50H0v50z"/><path fill="#FFFF71" d="M10 177h150v-30H10z"/></g><g id="hb-200300" class="sprite"><path fill="#727272" d="M150 88h-10v10h10zm20-19h-10v10h10zm-10 10h-10v9h10zm-20 19h-10v10h10zm-10 10h-10v10h10zm-10 10h-10v10h10z"/><path fill="#8C8C8C" d="M150 79V69H0v10z"/><path fill="#D6D6D6" d="M120 108V98H0v10z"/><path fill="#9C9C9C" d="M140 88v-9H0v9z"/><path fill="#BCBCBC" d="M130 98V88H0v10z"/><path fill="#737373" d="M160 69V59H0v10z"/><path fill="#EEE" d="M110 118v-10H0v10z"/><path d="M0 10v39h170V10zm110 118v-10H0v10zm70-59V59h-20v10zm-40 29V88h-10v10zm10-10v-9h-10v9zm-30 30v-10h-10v10zm40-39V69h-10v10zm-30 29V98h-10v10z"/><path fill="none" d="M160 79v9h-10v10h-10v10h-10v10h-10v10H0v88h180V69h-10v10zM0 49v10h180V0H0v10h170v39z"/><path fill="#FF8000" d="M170 187v-50H0v50z"/><path fill="#FFFF71" d="M10 177h150v-30H10z"/></g><g id="hb-201100" class="sprite"><path fill="#727272" d="M20 88v-9H10v9zm30 30v-10H40v10zM10 79V69H0v10zm20 19V88H20v10zm10 10V98H30v10zm20 20v-10H50v10z"/><path fill="#AED7FF" d="M170 108V98H50v10z"/><path fill="#6FB7FF" d="M170 79V69H20v10z"/><path fill="#C4E1FE" d="M170 118v-10H60v10z"/><path fill="#84C1FF" d="M170 88v-9H30v9z"/><path fill="#99CCFE" d="M170 98V88H40v10z"/><path d="M0 10v39h170V10zm180 118v-10H60v10zM40 98V88H30v10zM10 69V59H0v10zm10 10V69H10v10zm10 9v-9H20v9zm20 20V98H40v10zm10 10v-10H50v10z"/><path fill="#5AADFF" d="M170 69V59H10v10z"/><path fill="none" d="M180 128H50v-10H40v-10H30V98H20V88H10v-9H0v137h180zM0 49v10h170v59h10V0H0v10h170v39z"/><path fill="#FF8000" d="M170 187v-50H0v50z"/><path fill="#FFFF71" d="M10 177h150v-30H10z"/></g><g id="hb-201110" class="sprite"><path fill="#727272" d="M30 98V88H20v10zM10 79V69H0v10zm10 9v-9H10v9zm20 20V98H30v10zm10 10v-10H40v10zm10 10v-10H50v10z"/><path fill="#0076AE" d="M170 79V69H20v10z"/><path fill="#00A0EE" d="M170 108V98H50v10z"/><path fill="#04ADFF" d="M170 118v-10H60v10z"/><path fill="#0084C4" d="M170 88v-9H30v9z"/><path fill="#0093D9" d="M170 98V88H40v10z"/><path d="M0 10v39h170V10zm180 118v-10H60v10zM30 88v-9H20v9zm10 10V88H30v10zM10 69V59H0v10zm50 49v-10H50v10zM20 79V69H10v10zm30 29V98H40v10z"/><path fill="#069" d="M170 69V59H10v10z"/><path fill="none" d="M180 128H50v-10H40v-10H30V98H20V88H10v-9H0v137h180zM0 49v10h170v59h10V0H0v10h170v39z"/><path fill="#FF8000" d="M170 187v-50H0v50z"/><path fill="#FFFF71" d="M10 177h150v-30H10z"/></g><g id="hb-201200" class="sprite"><path fill="#AED7FF" d="M170 108V98H0v10z"/><path fill="#6FB7FF" d="M170 79V69H0v10z"/><path fill="#C4E1FE" d="M170 118v-10H0v10z"/><path fill="#84C1FF" d="M170 88v-9H0v9z"/><path fill="#99CCFE" d="M170 98V88H0v10z"/><path d="M0 10v39h170V10zm180 118v-10H0v10z"/><path fill="#5AADFF" d="M170 69V59H0v10z"/><path fill="none" d="M180 128H0v88h180zM0 49v10h170v59h10V0H0v10h170v39z"/><path fill="#FF8000" d="M170 187v-50H0v50z"/><path fill="#FFFF71" d="M10 177h150v-30H10z"/></g><g id="hb-201210" class="sprite"><path fill="#0076AE" d="M170 79V69H0v10z"/><path fill="#00A0EE" d="M170 108V98H0v10z"/><path fill="#04ADFF" d="M170 118v-10H0v10z"/><path fill="#0084C4" d="M170 88v-9H0v9z"/><path fill="#0093D9" d="M170 98V88H0v10z"/><path d="M0 10v39h170V10zm180 118v-10H0v10z"/><path fill="#069" d="M170 69V59H0v10z"/><path fill="none" d="M180 128H0v88h180zM0 49v10h170v59h10V0H0v10h170v39z"/><path fill="#FF8000" d="M170 187v-50H0v50z"/><path fill="#FFFF71" d="M10 177h150v-30H10z"/></g><g id="hb-201300" class="sprite"><path fill="#727272" d="M160 79h-10v9h10zm-30 29h-10v10h10zm40-39h-10v10h10zm-20 19h-10v10h10zm-10 10h-10v10h10zm-20 20h-10v10h10z"/><path fill="#AED7FF" d="M120 108V98H0v10z"/><path fill="#6FB7FF" d="M150 79V69H0v10z"/><path fill="#C4E1FE" d="M110 118v-10H0v10z"/><path fill="#84C1FF" d="M140 88v-9H0v9z"/><path fill="#99CCFE" d="M130 98V88H0v10z"/><path d="M0 10v39h170V10zm110 118v-10H0v10zm70-59V59h-20v10zm-40 29V88h-10v10zm20-19V69h-10v10zm-10 9v-9h-10v9zm-20 20V98h-10v10zm-10 10v-10h-10v10z"/><path fill="#5AADFF" d="M160 69V59H0v10z"/><path fill="none" d="M160 79v9h-10v10h-10v10h-10v10h-10v10H0v88h180V69h-10v10zM0 49v10h180V0H0v10h170v39z"/><path fill="#FF8000" d="M170 187v-50H0v50z"/><path fill="#FFFF71" d="M10 177h150v-30H10z"/></g><g id="hb-201310" class="sprite"><path fill="#727272" d="M150 88h-10v10h10zm10-9h-10v9h10zm-30 29h-10v10h10zm-10 10h-10v10h10zm50-49h-10v10h10zm-30 29h-10v10h10z"/><path fill="#0076AE" d="M150 79V69H0v10z"/><path fill="#00A0EE" d="M120 108V98H0v10z"/><path fill="#04ADFF" d="M110 118v-10H0v10z"/><path fill="#0084C4" d="M140 88v-9H0v9z"/><path fill="#0093D9" d="M130 98V88H0v10z"/><path d="M0 10v39h170V10zm110 118v-10H0v10zm70-59V59h-20v10zm-30 19v-9h-10v9zm-30 30v-10h-10v10zm40-39V69h-10v10zm-20 19V88h-10v10zm-10 10V98h-10v10z"/><path fill="#069" d="M160 69V59H0v10z"/><path fill="none" d="M160 79v9h-10v10h-10v10h-10v10h-10v10H0v88h180V69h-10v10zM0 49v10h180V0H0v10h170v39z"/><path fill="#FF8000" d="M170 187v-50H0v50z"/><path fill="#FFFF71" d="M10 177h150v-30H10z"/></g><g id="hb-210100" class="sprite"><path fill="#727272" d="M30 98V88H20v10zM20 88v-9H10v9zm30 30v-10H40v10zm10 10v-10H50v10zm-20-20V98H30v10zM10 79V69H0v10z"/><path fill="#8C8C8C" d="M170 79V69H20v10z"/><path fill="#D6D6D6" d="M170 108V98H50v10z"/><path fill="#9C9C9C" d="M170 88v-9H30v9z"/><path fill="#BCBCBC" d="M170 98V88H40v10z"/><path fill="#737373" d="M170 69V59H10v10z"/><path fill="#EEE" d="M170 118v-10H60v10z"/><path d="M10 20h150v19H10zM0 10v39h170V10zm180 118v-10H60v10zM30 88v-9H20v9zm30 30v-10H50v10zM10 69V59H0v10zm10 10V69H10v10zm20 19V88H30v10zm10 10V98H40v10z"/><path fill="none" d="M180 128H50v-10H40v-10H30V98H20V88H10v-9H0v137h180zM0 49v10h170v59h10V0H0v10h170v39z"/><path fill="#FEFEFE" d="M10 39h150V20H10z"/><path fill="#FF8000" d="M170 187v-50H0v50z"/><path fill="#FFFF71" d="M10 177h150v-30H10z"/></g><g id="hb-210200" class="sprite"><path fill="#8C8C8C" d="M170 79V69H0v10z"/><path fill="#D6D6D6" d="M170 108V98H0v10z"/><path fill="#9C9C9C" d="M170 88v-9H0v9z"/><path fill="#BCBCBC" d="M170 98V88H0v10z"/><path fill="#737373" d="M170 69V59H0v10z"/><path fill="#EEE" d="M170 118v-10H0v10z"/><path d="M10 20h150v19H10zM0 10v39h170V10zm180 118v-10H0v10z"/><path fill="none" d="M180 128H0v88h180zM0 49v10h170v59h10V0H0v10h170v39z"/><path fill="#FEFEFE" d="M10 39h150V20H10z"/><path fill="#FF8000" d="M170 187v-50H0v50z"/><path fill="#FFFF71" d="M10 177h150v-30H10z"/></g><g id="hb-210300" class="sprite"><path fill="#727272" d="M150 88h-10v10h10zm20-19h-10v10h10zm-10 10h-10v9h10zm-20 19h-10v10h10zm-10 10h-10v10h10zm-10 10h-10v10h10z"/><path fill="#8C8C8C" d="M150 79V69H0v10z"/><path fill="#D6D6D6" d="M120 108V98H0v10z"/><path fill="#9C9C9C" d="M140 88v-9H0v9z"/><path fill="#BCBCBC" d="M130 98V88H0v10z"/><path fill="#737373" d="M160 69V59H0v10z"/><path fill="#EEE" d="M110 118v-10H0v10z"/><path d="M10 20h150v19H10zM0 10v39h170V10zm110 118v-10H0v10zm70-59V59h-20v10zm-40 29V88h-10v10zm10-10v-9h-10v9zm-30 30v-10h-10v10zm10-10V98h-10v10zm30-29V69h-10v10z"/><path fill="none" d="M160 79v9h-10v10h-10v10h-10v10h-10v10H0v88h180V69h-10v10zM0 49v10h180V0H0v10h170v39z"/><path fill="#FEFEFE" d="M10 39h150V20H10z"/><path fill="#FF8000" d="M170 187v-50H0v50z"/><path fill="#FFFF71" d="M10 177h150v-30H10z"/></g><g id="hb-211100" class="sprite"><path fill="#727272" d="M20 88v-9H10v9zm30 30v-10H40v10zM30 98V88H20v10zm10 10V98H30v10zm20 20v-10H50v10zM10 79V69H0v10z"/><path fill="#AED7FF" d="M170 108V98H50v10z"/><path fill="#6FB7FF" d="M170 79V69H20v10z"/><path fill="#C4E1FE" d="M170 118v-10H60v10z"/><path fill="#84C1FF" d="M170 88v-9H30v9z"/><path fill="#99CCFE" d="M170 98V88H40v10z"/><path d="M10 20h150v19H10zM0 10v39h170V10zm180 118v-10H60v10zM40 98V88H30v10zM10 69V59H0v10zm10 10V69H10v10zm10 9v-9H20v9zm20 20V98H40v10zm10 10v-10H50v10z"/><path fill="#5AADFF" d="M170 69V59H10v10z"/><path fill="none" d="M180 128H50v-10H40v-10H30V98H20V88H10v-9H0v137h180zM0 49v10h170v59h10V0H0v10h170v39z"/><path fill="#FEFEFE" d="M10 39h150V20H10z"/><path fill="#FF8000" d="M170 187v-50H0v50z"/><path fill="#FFFF71" d="M10 177h150v-30H10z"/></g><g id="hb-211110" class="sprite"><path fill="#727272" d="M30 98V88H20v10zM10 79V69H0v10zm10 9v-9H10v9zm20 20V98H30v10zm10 10v-10H40v10zm10 10v-10H50v10z"/><path fill="#0076AE" d="M170 79V69H20v10z"/><path fill="#00A0EE" d="M170 108V98H50v10z"/><path fill="#04ADFF" d="M170 118v-10H60v10z"/><path fill="#0084C4" d="M170 88v-9H30v9z"/><path fill="#0093D9" d="M170 98V88H40v10z"/><path d="M10 20h150v19H10zM0 10v39h170V10zm180 118v-10H60v10zM10 69V59H0v10zm20 19v-9H20v9zm10 10V88H30v10zm20 20v-10H50v10zm-10-10V98H40v10zM20 79V69H10v10z"/><path fill="#069" d="M170 69V59H10v10z"/><path fill="none" d="M180 128H50v-10H40v-10H30V98H20V88H10v-9H0v137h180zM0 49v10h170v59h10V0H0v10h170v39z"/><path fill="#FEFEFE" d="M10 39h150V20H10z"/><path fill="#FF8000" d="M170 187v-50H0v50z"/><path fill="#FFFF71" d="M10 177h150v-30H10z"/></g><g id="hb-211200" class="sprite"><path fill="#AED7FF" d="M170 108V98H0v10z"/><path fill="#6FB7FF" d="M170 79V69H0v10z"/><path fill="#C4E1FE" d="M170 118v-10H0v10z"/><path fill="#84C1FF" d="M170 88v-9H0v9z"/><path fill="#99CCFE" d="M170 98V88H0v10z"/><path d="M10 20h150v19H10zM0 10v39h170V10zm180 118v-10H0v10z"/><path fill="#5AADFF" d="M170 69V59H0v10z"/><path fill="none" d="M180 128H0v88h180zM0 49v10h170v59h10V0H0v10h170v39z"/><path fill="#FEFEFE" d="M10 39h150V20H10z"/><path fill="#FF8000" d="M170 187v-50H0v50z"/><path fill="#FFFF71" d="M10 177h150v-30H10z"/></g><g id="hb-211210" class="sprite"><path fill="#0076AE" d="M170 79V69H0v10z"/><path fill="#00A0EE" d="M170 108V98H0v10z"/><path fill="#04ADFF" d="M170 118v-10H0v10z"/><path fill="#0084C4" d="M170 88v-9H0v9z"/><path fill="#0093D9" d="M170 98V88H0v10z"/><path d="M10 20h150v19H10zM0 10v39h170V10zm180 118v-10H0v10z"/><path fill="#069" d="M170 69V59H0v10z"/><path fill="none" d="M180 128H0v88h180zM0 49v10h170v59h10V0H0v10h170v39z"/><path fill="#FEFEFE" d="M10 39h150V20H10z"/><path fill="#FF8000" d="M170 187v-50H0v50z"/><path fill="#FFFF71" d="M10 177h150v-30H10z"/></g><g id="hb-211300" class="sprite"><path fill="#727272" d="M150 88h-10v10h10zm20-19h-10v10h10zm-10 10h-10v9h10zm-20 19h-10v10h10zm-10 10h-10v10h10zm-10 10h-10v10h10z"/><path fill="#AED7FF" d="M120 108V98H0v10z"/><path fill="#6FB7FF" d="M150 79V69H0v10z"/><path fill="#C4E1FE" d="M110 118v-10H0v10z"/><path fill="#84C1FF" d="M140 88v-9H0v9z"/><path fill="#99CCFE" d="M130 98V88H0v10z"/><path d="M10 20h150v19H10zM0 10v39h170V10zm110 118v-10H0v10zm70-59V59h-20v10zm-30 19v-9h-10v9zm-10 10V88h-10v10zm-20 20v-10h-10v10zm10-10V98h-10v10zm30-29V69h-10v10z"/><path fill="#5AADFF" d="M160 69V59H0v10z"/><path fill="none" d="M160 79v9h-10v10h-10v10h-10v10h-10v10H0v88h180V69h-10v10zM0 49v10h180V0H0v10h170v39z"/><path fill="#FEFEFE" d="M10 39h150V20H10z"/><path fill="#FF8000" d="M170 187v-50H0v50z"/><path fill="#FFFF71" d="M10 177h150v-30H10z"/></g><g id="hb-211310" class="sprite"><path fill="#727272" d="M160 79h-10v9h10zm-10 9h-10v10h10zm-20 20h-10v10h10zm40-39h-10v10h10zm-30 29h-10v10h10zm-20 20h-10v10h10z"/><path fill="#0076AE" d="M150 79V69H0v10z"/><path fill="#00A0EE" d="M120 108V98H0v10z"/><path fill="#04ADFF" d="M110 118v-10H0v10z"/><path fill="#0084C4" d="M140 88v-9H0v9z"/><path fill="#0093D9" d="M130 98V88H0v10z"/><path d="M10 20h150v19H10zM0 10v39h170V10zm110 118v-10H0v10zm70-59V59h-20v10zm-30 19v-9h-10v9zm10-9V69h-10v10zm-20 19V88h-10v10zm-10 10V98h-10v10zm-10 10v-10h-10v10z"/><path fill="#069" d="M160 69V59H0v10z"/><path fill="none" d="M160 79v9h-10v10h-10v10h-10v10h-10v10H0v88h180V69h-10v10zM0 49v10h180V0H0v10h170v39z"/><path fill="#FEFEFE" d="M10 39h150V20H10z"/><path fill="#FF8000" d="M170 187v-50H0v50z"/><path fill="#FFFF71" d="M10 177h150v-30H10z"/></g><g id="btn-castigar" class="sprite"><path fill="none" d="M0 0h180v216H0z"/><circle cx="90" cy="108" r="71" fill="#00293d"/><rect width="98.962" height="18.176" x="41" y="99" fill="#008fd6" rx="5" ry="4"/></g><g id="btn-cronometro" class="sprite"><path fill="none" d="M0 0h180v216H0z"/><path d="M90 120V69c29 0 52 23 52 51 0 13-6 26-15 36z"/><ellipse cx="90" cy="120" fill="#003D5C" rx="76" ry="74"/><ellipse cx="90" cy="120" fill="#fff" rx="60" ry="59"/><path fill="#003D5C" d="M90 155c2 0 3 2 3 4v6q0 3-3 3c-3 0-3-1-3-3v-6c0-2 1-4 3-4m-26-10c2 1 2 3 0 5l-4 4c-2 1-4 1-5 0s-1-3 0-5l4-4c2-1 4-1 5 0m-10-25c0 2-2 3-4 3h-6c-2 0-4-1-4-3s2-4 4-4h6c2 0 4 2 4 4m10-25c-1 1-3 1-4 0l-5-5c-1-1-1-3 0-5 1-1 3-1 5 0l4 5c2 1 2 3 0 5"/><path fill="none" d="M90 84q-3 0-3-3v-7c0-1 1-3 3-3s3 2 3 3v7q0 3-3 3"/><path fill="#003D5C" d="M116 95c-2-2-2-4 0-5l4-5c2-1 4-1 5 0 1 2 1 4 0 5l-4 5c-2 1-4 1-5 0m10 25c0-2 2-4 4-4h6c2 0 4 2 4 4s-2 3-4 3h-6c-2 0-4-1-4-3"/><path fill="none" d="M116 145c1-1 3-1 4 0l5 5c1 1 1 3 0 4-1 2-3 2-5 0l-4-4c-2-2-2-4 0-5"/><path fill="#003D5C" d="M97 22H83c-5 0-10 4-10 9v10h34V31c0-5-5-9-10-9M38 53l-6 5c-2 2-2 5 0 8l3 4 14-12-3-4c-2-2-6-3-8-1m110 5-6-5c-3-2-6-1-8 1l-3 4 14 12 3-4c2-3 2-6 0-8"/><path fill="#003D5C" d="M84 38h12.976v10.192H84zm16 78L90 60l-10 56c0 6 5 10 10 10s10-4 10-10"/><path fill="#003D5C" d="m83 123 48 33-34-46c-4-4-10-4-14 0-4 3-4 9 0 13"/></g><g id="btn-eliminar" class="sprite"><path fill="none" d="M0 0h180v216H0z"/><path fill="#00293d" d="M43 152c-1-10-2-21-3-32-1-10-3-22-4-32h108c-1 10-3 22-4 32-1 11-2 22-3 32-4 38-1 35-45 35h-4c-44 0-41 3-45-35"/><path fill="#00293d" d="M87 97h6c1 0 2 1 2 2v72c0 1-1 1-2 1h-6c-1 0-2 0-2-1V99c0-1 1-2 2-2m28 1h6c1 0 2 1 2 2l-5 72s-1 1-2 1h-6c-1 0-2-1-2-2l5-72s1-1 2-1m-56 0h6c1 0 2 1 2 1l5 72c0 1-1 2-2 2h-6c-1 0-2-1-2-1l-5-72c0-1 1-2 2-2m31-69h9c9 0 13-1 17 5 3 5 3 13 5 18 5 1 19-1 21 1l10 14-3 8H31l-3-8 10-14c2-2 16 0 21-1 2-5 2-13 5-18 4-6 8-5 17-5zm0 27h19c0-3 0-5-1-8 0-5 0-5-2-8H74c-2 3-2 3-2 8-1 3-1 5-1 8z"/></g><g id="btn-gasto" class="sprite"><path fill="none" d="M0 0h180v216H0z"/><path fill="#003D5C" d="M11 52v77c0 2 2 4 5 4h148c2 0 5-2 5-4V52c0-2-3-4-5-4H16c-3 0-5 2-5 4"/><path fill="#fff" d="M21 57h138v67H21z"/><path fill="#003D5C" d="M0 74v88c0 2 3 5 5 5h170c2 0 5-3 5-5V74c0-2-3-4-5-4H5c-2 0-5 2-5 4"/><path fill="#fff" d="M28 156c0-9-7-16-17-16V97c10 0 17-7 17-17h124c0 10 7 17 17 17v43c-10 0-17 7-17 16z"/><path fill="#003D5C" d="M39 108c5 0 9 5 9 10 0 6-4 10-9 10-6 0-10-4-10-10 0-5 4-10 10-10m102 0c6 0 10 5 10 10 0 6-4 10-10 10-5 0-9-4-9-10 0-5 4-10 9-10M92 83h4v7c8 0 16 9 16 16h-10q0-4.5-3-6c-4-4-14-4-18-1-4 4-3 9 2 11 7 3 15 3 22 7 14 7 7 30-9 30v6h-4v-6h-3v6h-4v-6c-10-2-16-9-18-19h10c0 4 2 6 5 8 4 3 12 4 17 1 4-3 5-8 1-12-5-3-16-4-23-7-14-8-8-28 8-28v-7h4v6c1 0 2 0 3 1z"/></g><g id="btn-item" class="sprite"><path fill="none" d="M0 0h180v216H0z"/><path fill="#003D5C" d="m165 122 14-45c3-9-1-17-9-21l-44-19c-4-2-9-2-13 0L9 84c-8 4-11 13-8 20l31 68c3 7 12 10 20 7l104-47c4-2 7-6 9-10"/><path fill="#fff" d="m156 118 13-39c3-7-1-14-8-17l-38-15c-3-2-7-2-11 0L21 88c-7 3-10 11-7 17l25 57c3 6 11 9 18 5l91-41c4-2 6-5 8-8"/><circle r="16" fill="#003D5C" transform="matrix(1.17706 -.53431 .53431 1.17706 128.299 87.269)"/><circle r="16" fill="#fff" transform="rotate(-24.415 265.841 -252.882)scale(.74331)"/><path fill="#003D5C" d="m40 135 49-22 3 8-48 21zm-9-20 61-28 4 7-62 28z"/></g><g id="btn-revisar" class="sprite"><path fill="none" d="M0 0h180v216H0z"/><path fill="#003D5C" d="M0 105v7c0 1 0 1 1 2 5 1 4 3 5 8-1 36 37 50 63 28 9-7 11-16 14-28 2-4 4-5 7-5v-11c-5 0-9-1-11-2-21-14-54-7-71-4-6 1-8 0-8 5m75 8c3 6-1 21-5 27-17 24-60 18-58-19 1-6 3-12 9-15 11-7 48-6 54 7m105-8v7c0 1 0 1-1 2-5 1-4 3-5 8 1 36-37 50-63 28-9-7-11-16-14-28-2-4-4-5-7-5v-11c5 0 9-1 11-2 21-14 54-7 71-4 6 1 8 0 8 5m-75 8c-3 6 1 21 5 27 17 24 60 18 58-19-1-6-3-12-9-15-11-7-48-6-54 7M5 99c4-1 6-1 10-1 3-6 20-31 24-32 4 0 7 6 9 10 3 5 8 3 8-1 0-5-8-22-18-19-8 2-27 33-33 43m170 0c-4-1-6-1-10-1-3-6-20-31-24-32-4 0-7 6-9 10-3 5-8 3-8-1 0-5 8-22 18-19 8 2 27 33 33 43"/></g><g id="btn-spelling" class="sprite"><path fill="none" d="M0 0h180v216H0z"/><path fill="#003D5C" d="m24 61-11-2c1-5 3-8 7-11 3-2 8-3 14-3s10 1 13 2 5 3 6 5 2 6 2 11l-1 15c0 5 1 8 1 10s1 4 2 6H45c-1-1-1-2-2-4v-1c-2 2-5 4-7 5-3 1-5 1-8 1-5 0-9-1-12-4-3-2-5-6-5-10 0-3 1-5 2-7 2-2 4-4 6-5s6-2 10-3c6-1 11-2 13-3v-1c0-3-1-5-2-6s-4-1-7-1c-2 0-4 0-5 1-2 1-3 3-4 5m18 10c-2 1-4 1-8 2s-6 2-7 2c-2 1-3 3-3 5s1 3 2 4c2 2 4 2 6 2s4 0 6-2c2-1 3-3 3-4 1-1 1-3 1-6zm25 23V28h13v24c4-5 9-7 14-7q9 0 15 6c4 5 6 11 6 19s-2 14-6 19q-6 6-15 6c-3 0-5 0-8-2-3-1-5-3-7-6v7zm13-25c0 5 0 9 2 11 2 4 5 5 9 5 3 0 5-1 7-3q3-4.5 3-12c0-7.5-1-9-3-12-2-2-4-3-8-3-3 0-5 1-7 3-2 3-3 6-3 11m88-9-13 2c0-2-1-4-3-5-1-1-3-2-6-2s-6 1-7 3c-2 2-3 6-3 11q0 9 3 12c2 3 4 4 7 4s5-1 6-2c2-2 3-4 4-7l13 2c-2 6-4 10-8 13s-9 4-15 4c-7 0-13-2-17-6-5-5-7-11-7-19s2-14 7-18c4-5 10-7 17-7 6 0 11 1 14 4 4 2 6 6 8 11M27 170c-3-5-9-20-13-23s-12 1-7 9c4 7 9 18 12 25 1 3 2 5 4 6 2 2 5 2 7 0 2-1 2-4 3-6 5-8 41-67 42-68 1-6-6-9-10-5-8 11-27 42-34 55-1 2-3 6-4 7"/><path fill="#006094" d="M76 170c-2-5-8-20-13-23-4-3-11 1-6 9 4 7 9 18 12 25 1 3 2 5 4 6 2 2 5 2 7 0 2-1 2-4 3-6 5-8 41-67 41-68 2-6-5-9-10-5-7 11-26 42-33 55-1 2-3 6-5 7"/><path fill="#0084CC" d="M126 170c-2-5-9-20-13-23s-11 1-6 9c4 7 9 18 12 25 1 3 2 5 4 6 2 2 5 2 7 0 1-1 2-4 3-6 5-8 41-67 41-68 2-6-5-9-10-5-7 11-26 42-33 55-2 2-3 6-5 7"/></g><g id="btn-trasladar" class="sprite"><path fill="none" d="M0 0h180v216H0z"/><path fill="#00293d" d="M15 179h150V53H84L68 37H15z"/><path fill="#008fd6" d="M45 130h45v26l45-40-45-40v27H45zm0-14"/></g><g id="btn-ver" class="sprite"><path fill="none" d="M0 0h180v216H0z"/><path fill="#fff" d="M0 108c54-94 126-94 180 0-54 94-126 94-180 0"/><path fill="#1e6dad" d="M46 109v-2c0-23 20-43 43-43h2c23 0 43 20 43 43v2c0 23-20 43-43 43h-2c-23 0-43-20-43-43"/><path fill="#fff" d="M71 108c0 10 8 19 19 19s19-9 19-19-8-19-19-19-19 9-19 19"/></g><g id="btn-clonar" class="sprite"><path fill="none" d="M0 0h180v216H0z"/><path fill="#fff" d="M69 47h82.751v109.598H69z"/><path d="M82 39h66c6 0 12 6 12 13v92c0 7-6 13-12 13h-29v-8h26c4 0 7-3 7-7V54c0-4-3-7-7-7H84c-2 0-4 2-6 4h-9c1-7 6-12 13-12"/><path d="m80 59 31 31v74c0 7-6 13-13 13H32c-6 0-12-6-12-13V72c0-7 6-13 12-13z"/><path fill="#fff" d="m77 67 26 26v69c0 4-3 7-7 7H35c-4 0-7-3-7-7V74c0-4 3-7 7-7z"/></g><g id="c11" class="sprite"><path fill="none" d="M0 0h180v216H0z"/><path d="M142 194c-2 0-3 0-3-1l-47-24c-1-1-3-1-4 0l-47 24c0 1-2 1-3 1s-3-1-5-2c-1-2-1-4-1-6l9-51c0-2 0-3-1-4L2 94c-2-2-2-4-2-7 1-2 3-4 6-4l52-8c1 0 2-1 3-2l23-47c1-3 3-4 6-4s5 1 6 4l23 47c1 1 2 2 3 2l52 8c3 0 5 2 6 4 0 3 0 5-2 7l-38 37c-1 1-1 2-1 4l9 51c0 2 0 4-1 6-2 1-3 2-5 2"/><path fill="#fff" d="M90 160c1 0 2 0 3 1l41 22h2c1 0 3 0 3-1 1-1 1-2 1-4l-8-46c0-2 1-4 2-5l34-33c1-1 1-3 1-4-1-2-2-3-4-3l-46-7c-2 0-4-1-5-3L94 35c-1-1-2-2-4-2s-3 1-4 2L66 77c-1 2-3 3-5 3l-46 7c-2 0-3 1-4 3 0 1 0 3 1 4l34 33c1 1 2 3 2 5l-8 46c0 2 0 3 1 4 0 1 2 1 3 1h2l41-22c1-1 2-1 3-1"/></g><g id="c12" class="sprite"><path fill="none" d="M0 0h180v216H0z"/><path fill="#F80" d="M142 194c-2 0-3 0-3-1l-47-24c-1-1-3-1-4 0l-47 24c0 1-2 1-3 1s-3-1-5-2c-1-2-1-4-1-6l9-51c0-2 0-3-1-4L2 94c-2-2-2-4-2-7 1-2 3-4 6-4l52-8c1 0 2-1 3-2l23-47c1-3 3-4 6-4s5 1 6 4l23 47c1 1 2 2 3 2l52 8c3 0 5 2 6 4 0 3 0 5-2 7l-38 37c-1 1-1 2-1 4l9 51c0 2 0 4-1 6-2 1-3 2-5 2"/><path fill="#FFC300" d="M90 160c1 0 2 0 3 1l41 22h2c1 0 3 0 3-1 1-1 1-2 1-4l-8-46c0-2 1-4 2-5l34-33c1-1 1-3 1-4-1-2-2-3-4-3l-46-7c-2 0-4-1-5-3L94 35c-1-1-2-2-4-2s-3 1-4 2L66 77c-1 2-3 3-5 3l-46 7c-2 0-3 1-4 3 0 1 0 3 1 4l34 33c1 1 2 3 2 5l-8 46c0 2 0 3 1 4 0 1 2 1 3 1h2l41-22c1-1 2-1 3-1"/></g><g id="cro1" class="sprite"><path fill="none" d="M0 0h180v216H0z"/><path fill="#FF9500" d="M163 92c5 3 9 9 9 16s-4 13-9 16c-40 22-79 45-119 68-5 3-12 3-18 0-5-3-9-10-9-16V40c0-6 4-13 9-16 6-3 13-3 18 0 40 23 79 46 119 68"/></g><g id="cro2" class="sprite"><path fill="none" d="M0 0h180v216H0z"/><path fill="#CF0000" d="M118 22h29c8 0 14 6 14 14v144c0 8-6 14-14 14h-29c-7 0-14-6-14-14V36c0-8 7-14 14-14m-85 0h30c7 0 13 6 13 14v144c0 8-6 14-13 14H33c-7 0-13-6-13-14V36c0-8 6-14 13-14"/></g><g id="reg0" class="sprite"><path fill="none" d="M0 0h180v216H0z"/><path fill="#003D5C" d="M22 65h136c9 0 17 8 17 17v86c0 10-8 18-17 18H22c-9 0-17-8-17-18V82c0-9 8-17 17-17"/><path fill="#fff" d="M23 78h132c3 0 6 3 6 7v82c0 3-3 6-6 6H23c-3 0-6-3-6-6V85c0-4 3-7 6-7"/><path fill="#006094" d="M30 98h120v7H30zm0 24h120v8H30zm0 23h120v8H30z"/><path fill="#fff" d="M72 164 172 64l-45-45L27 119c-13 12-13 33 0 45 12 12 33 12 45 0"/><path fill="#103656" d="M44 119c-5 9-11 21-14 28-3 10 4 17 14 13 6-2 19-9 28-13z"/><path fill="#103656" d="M72 147 172 47c4-4 4-10 0-14l-14-14c-4-4-11-4-15 0L44 119z"/><path fill="#fff" d="M66 141c-25 13-25 13-27 11s-2-3 11-27zm97-93 4-4c2-2 2-6 0-8l-12-12c-2-2-6-2-8 0l-4 4z"/></g><g id="reg1" class="sprite"><path fill="none" d="M0 0h180v216H0z"/><path fill="#103656" d="M175 151v31c0 8-7 14-15 14H20c-8 0-15-6-15-14v-31h9v31c0 3 3 5 6 5h140c3 0 6-2 6-5v-31z"/><path fill="#0D9900" d="M116 103h-1V31c0-6-5-11-11-11H76c-6 0-11 5-11 11v72H17l73 76 73-76z"/></g><g id="c24" class="sprite"><path fill="none" d="M0 0h180v216H0z"/><path fill="#0D9900" d="M120 75h20V47c0-24-23-47-48-47-27 0-52 19-52 47v47c-3 0-5 0-8 2-6 2-11 9-11 16v69c0 9 9 18 18 18h102c9 0 18-9 18-18v-69c0-10-9-18-19-18-20 0-60-1-80-1V51c0-42 60-39 60-2zm-44 62c0-13 15-19 24-11 8 9 2 21-5 23v24c-2 5-8 6-9 1-1-2-1-22-1-25-5-2-9-9-9-12"/></g><g id="c25" class="sprite"><path fill="none" d="M0 0h180v216H0z"/><path fill="gray" d="M40 66v28c-3 0-5 0-8 2-4 2-8 5-9 9-1 1-2 4-2 7v69c0 9 9 18 18 18h102c3 0 6-1 7-1 6-3 11-10 11-17v-69c0-6-3-11-7-14-4-4-8-4-12-4V66c0-16-9-30-21-38-7-5-18-10-27-10s-15 1-23 5c-7 3-8 4-12 8-3 3-1 0-3 3l-2 2c-2 2-5 7-7 11s-5 12-5 19m36 71c0-13 15-19 24-11 8 9 2 21-5 23v24c-2 5-8 6-9 1-1-2-1-22-1-25-5-2-9-9-9-12M60 93V70c0-5 1-10 3-13 0-2 1-4 2-5 9-14 28-19 44-7s9 36 11 49H61v-1z"/></g><g id="c26" class="sprite"><path fill="none" d="M0 0h180v216H0z"/><path d="M40 66v28c-3 0-5 0-8 2-4 2-8 5-9 9-1 1-2 4-2 7v69c0 9 9 18 18 18h102c3 0 6-1 7-1 6-3 11-10 11-17v-69c0-6-3-11-7-14-4-4-8-4-12-4V66c0-16-9-30-21-38-7-5-18-10-27-10s-15 1-23 5c-7 3-8 4-12 8-3 3-1 0-3 3l-2 2c-2 2-5 7-7 11s-5 12-5 19m36 71c0-13 15-19 24-11 8 9 2 21-5 23v24c-2 5-8 6-9 1-1-2-1-22-1-25-5-2-9-9-9-12M60 93V70c0-5 1-10 3-13 0-2 1-4 2-5 9-14 28-19 44-7s9 36 11 49H61v-1z"/></g><g id="c27" class="sprite"><path fill="none" d="M0 0h180v216H0z"/><path fill="#C92F2F" d="M40 66v28c-3 0-5 0-8 2-4 2-8 5-9 9-1 1-2 4-2 7v69c0 9 9 18 18 18h102c3 0 6-1 7-1 6-3 11-10 11-17v-69c0-6-3-11-7-14-4-4-8-4-12-4V66c0-16-9-30-21-38-7-5-18-10-27-10s-15 1-23 5c-7 3-8 4-12 8-3 3-1 0-3 3l-2 2c-2 2-5 7-7 11s-5 12-5 19m36 71c0-13 15-19 24-11 8 9 2 21-5 23v24c-2 5-8 6-9 1-1-2-1-22-1-25-5-2-9-9-9-12M60 93V70c0-5 1-10 3-13 0-2 1-4 2-5 9-14 28-19 44-7s9 36 11 49H61v-1z"/></g><g id="c40" class="sprite"><path fill="none" d="M0 0h180v216H0z"/><path fill="#B3B3B3" d="M115 64c-7 1-13 6-15 13l-8 17c-5 13-4 28 3 41 4 7 6 13 7 18 0 2 1 4 3 4l29 5c2 0 3-1 4-2l1-1 5-15c9-24 5-51-10-72-4-6-11-9-19-8m12 13c14 19 17 42 9 64l-4 11-22-3c-1-6-3-12-7-19-6-10-7-22-3-32l8-18c1-4 5-6 9-7s8 1 10 4m-24 83c-2 0-4 1-5 4l-3 13c-1 6 0 11 3 16s8 8 13 9c6 1 12 0 16-3 1-1 2-1 3-2 3-3 5-7 6-12l3-15c0-1 0-2-1-3s-2-2-3-2zm24 24c0 3-2 6-5 8-2 2-6 2-9 2-3-1-6-3-8-6-2-2-2-6-1-9l2-10 23 4z"/><path d="M127 184c0 3-2 6-5 8-2 2-6 2-9 2-3-1-6-3-8-6-2-2-2-6-1-9l2-10 23 4zm0-107c14 19 17 42 9 64l-4 11-22-3c-1-6-3-12-7-19-6-10-7-22-3-32l8-18c1-4 5-6 9-7s8 1 10 4"/><path fill="#B3B3B3" d="M50 20C33 39 27 66 34 90l4 16c0 2 2 3 4 3l29-2c1 0 2 0 3-1s1-2 1-3c1-5 4-11 9-17 8-12 10-27 6-40l-6-19c-2-7-8-12-15-13-7-2-14 1-19 6m26 10 5 18c4 11 2 23-5 33q-6 9-9 18l-22 1-3-12c-6-22 0-45 15-62 2-3 6-5 10-4s8 4 9 8M61 152c5-1 9-3 12-6 1-1 2-1 3-2 3-5 5-10 4-16l-2-14c0-2-2-4-5-4l-32 2c-1 0-2 1-3 2s-1 2-1 3l1 15c1 6 3 11 8 15 4 4 10 5 15 5m-14-20-1-11 24-2 1 10c1 3 0 7-2 9-2 3-5 5-9 5q-4.5 0-9-3c-2-2-4-5-4-8"/><path d="m47 132-1-11 24-2 1 10c1 3 0 7-2 9-2 3-5 5-9 5q-4.5 0-9-3c-2-2-4-5-4-8M76 30l5 18c4 11 2 23-5 33q-6 9-9 18l-22 1-3-12c-6-22 0-45 15-62 2-3 6-5 10-4s8 4 9 8"/></g><g id="c41" class="sprite"><path fill="none" d="M0 0h180v216H0z"/><path fill="#FFBFBF" d="M115 64c-7 1-13 6-15 13l-8 17c-5 13-4 28 3 41 4 7 6 13 7 18 0 2 1 4 3 4l29 5c2 0 3-1 4-2l1-1 5-15c9-24 5-51-10-72-4-6-11-9-19-8m12 13c14 19 17 42 9 64l-4 11-22-3c-1-6-3-12-7-19-6-10-7-22-3-32l8-18c1-4 5-6 9-7s8 1 10 4m-24 83c-2 0-4 1-5 4l-3 13c-1 6 0 11 3 16s8 8 13 9c6 1 12 0 16-3 1-1 2-1 3-2 3-3 5-7 6-12l3-15c0-1 0-2-1-3s-2-2-3-2zm24 24c0 3-2 6-5 8-2 2-6 2-9 2-3-1-6-3-8-6-2-2-2-6-1-9l2-10 23 4z"/><path fill="#CF0000" d="M127 184c0 3-2 6-5 8-2 2-6 2-9 2-3-1-6-3-8-6-2-2-2-6-1-9l2-10 23 4zm0-107c14 19 17 42 9 64l-4 11-22-3c-1-6-3-12-7-19-6-10-7-22-3-32l8-18c1-4 5-6 9-7s8 1 10 4"/><path fill="#FFBFBF" d="M50 20C33 39 27 66 34 90l4 16c0 2 2 3 4 3l29-2c1 0 2 0 3-1s1-2 1-3c1-5 4-11 9-17 8-12 10-27 6-40l-6-19c-2-7-8-12-15-13-7-2-14 1-19 6m26 10 5 18c4 11 2 23-5 33q-6 9-9 18l-22 1-3-12c-6-22 0-45 15-62 2-3 6-5 10-4s8 4 9 8M61 152c5-1 9-3 12-6 1-1 2-1 3-2 3-5 5-10 4-16l-2-14c0-2-2-4-5-4l-32 2c-1 0-2 1-3 2s-1 2-1 3l1 15c1 6 3 11 8 15 4 4 10 5 15 5m-14-20-1-11 24-2 1 10c1 3 0 7-2 9-2 3-5 5-9 5q-4.5 0-9-3c-2-2-4-5-4-8"/><path fill="#CF0000" d="m47 132-1-11 24-2 1 10c1 3 0 7-2 9-2 3-5 5-9 5q-4.5 0-9-3c-2-2-4-5-4-8M76 30l5 18c4 11 2 23-5 33q-6 9-9 18l-22 1-3-12c-6-22 0-45 15-62 2-3 6-5 10-4s8 4 9 8"/></g><g id="info" class="sprite"><path fill="none" d="M0 0h180v216H0z"/><ellipse cx="90" cy="108" fill="#fff" stroke="#000" stroke-width="4.252" rx="81" ry="79"/><path d="M64 108c0-7-1-7 3-11 4-5 10-10 16-13 3-2 7-4 11-4 8 0 13 7 11 15-2 10-13 44-17 57-1 4 1 5 3 5 4-1 12-14 16-16 0 6-1 7-4 11-1 1-2 3-3 4l-2 2c-12 15-34 15-34-1 0-6 19-58 19-63 0-1-2-2-3-2-6 1-13 13-16 16m40-37c-15 0-18-24 1-24 3 0 6 2 8 4 7 7 2 20-9 20"/></g><g id="c50" class="sprite"><path fill="none" d="M0 0h180v216H0z"/><path fill="#CF0000" d="M0 105v7c0 1 0 1 1 2 5 1 4 3 5 8-1 36 37 50 63 28 9-7 11-16 14-28 2-4 4-5 7-5v-11c-5 0-9-1-11-2-21-14-54-7-71-4-6 1-8 0-8 5m75 8c3 6-1 21-5 27-17 24-60 18-58-19 1-6 3-12 9-15 11-7 48-6 54 7m105-8v7c0 1 0 1-1 2-5 1-4 3-5 8 1 36-37 50-63 28-9-7-11-16-14-28-2-4-4-5-7-5v-11c5 0 9-1 11-2 21-14 54-7 71-4 6 1 8 0 8 5m-75 8c-3 6 1 21 5 27 17 24 60 18 58-19-1-6-3-12-9-15-11-7-48-6-54 7M5 99c4-1 6-1 10-1 3-6 20-31 24-32 4 0 7 6 9 10 3 5 8 3 8-1 0-5-8-22-18-19-8 2-27 33-33 43m170 0c-4-1-6-1-10-1-3-6-20-31-24-32-4 0-7 6-9 10-3 5-8 3-8-1 0-5 8-22 18-19 8 2 27 33 33 43"/></g><g id="c51" class="sprite"><path fill="none" d="M0 0h180v216H0z"/><path d="m46 185 86-146c5-9-8-17-14-8L40 164l-23-54c-4-9-18-3-14 7l29 67c3 6 11 7 14 1"/></g><g id="c52" class="sprite"><path fill="none" d="M0 0h180v216H0z"/><path fill="#0D9900" d="m91 185 86-146c5-9-9-17-14-8L85 164l-10-23-9 17 11 26c2 6 10 7 14 1m-45 0 86-146c5-9-8-17-14-8L40 164l-23-54c-4-9-18-3-14 7l29 67c3 6 11 7 14 1"/></g><g id="c30" class="sprite"><path fill="none" d="M0 0h180v216H0z"/><path d="M174 187c1-5-1-9-3-13l-15-34c-4-10-5-8-17-15-4-2-7-4-11-6-3-1-7-5-10-3-14 10-33 13-50 4-7-4-6-6-10-4s-7 4-11 6c-3 2-7 4-10 5-4 2-8 4-10 7-2 2-8 18-10 22-3 8-7 15-10 23-2 5-2 9 2 12 3 4 8 3 13 3h128c10 0 22 2 24-7M86 22c-14 1-22 7-27 15-5 9-8 22-7 35 2 22 19 44 42 41 10-2 20-8 25-17 7-10 9-19 9-33-1-27-15-43-42-41"/></g><g id="c31" class="sprite"><path fill="none" d="M0 0h180v216H0z"/><path d="M114 132c10-1 12-6 12-17V87c0-10 1-18-8-21-4-1-52-1-56 0-9 3-8 10-8 21v28c0 11 2 16 12 17v60h48zm-60 12c-8-1-11-4-12-11s0-16 0-23c0-13-2-33 1-44-4 0-25-1-28 0-10 3-9 10-9 20v29c0 11 2 16 12 17v60h36zm83-78c3 11 1 50 1 64 0 9-3 13-12 14v48h36v-60c9-1 12-5 12-14V80c0-10-4-14-14-14zM72 45c4 22 39 18 36-6-4-23-39-19-36 6m-12 0c4-24-32-30-36-7-4 24 31 30 36 7m60-2c2 23 38 21 36-3-2-23-38-21-36 3"/></g><g id="c32" class="sprite"><path fill="none" d="M0 0h180v216H0z"/><path d="m27 65 63-37 63 37-63 37zm-12 0 75 43 75-43-75-43z"/><path d="m58 65 32 18 32-18-32-18zm32 43L15 65v86l75 43zm-69 40V75l63 36v74z"/><path d="m69 120-32-18v37l32 18zm21-12v86l75-43V65zm6 77v-74l63-36v73z"/><path d="M111 120v37l32-18v-37z"/></g><g id="c33" class="sprite"><path fill="none" d="M0 0h180v216H0z"/><path d="M81 114c0 6 3 7 9 9 11 5 27 9 27 25 0 8-1 13-6 19-3 3-10 6-16 6v11H85v-11c-8 0-16-5-20-13-1-2-2-6-2-8 3 0 11-3 14-3 1 11 14 15 21 10 3-2 3-5 3-9 0-12-36-7-36-32 0-7 2-13 6-17s9-7 14-7v-9h10v9c9 0 18 8 20 18l-13 5c-1-3-2-5-3-7-7-7-18-3-18 4m-67 47c0 9 2 19 9 24 2 2 2 2 5 4 8 4 22 5 33 5h57c15 0 29-1 39-9 20-15 1-60-7-74-1-2-2-3-3-5s-2-3-3-5c-6-8-9-11-15-18-2-2-7-7-10-7H61c-3 0-7 5-9 7-2 1-4 4-6 6-5 5-13 16-16 22 0 1-1 1-1 2-7 14-15 32-15 48M61 54h58c2 0 7-6 8-7 2-1 5-6 6-8 2-4 4-8 3-12-2-4-6-5-11-5-8 0-19 6-26 9-8 3-9 4-18 0-8-4-18-9-27-9-5 0-8 2-10 5-3 10 15 27 17 27m-3 10c0 4 1 7 7 7h50c9 0 9-8 6-10-1-1-2-2-4-2H63c-2 0-3 1-4 2 0 0-1 2-1 3"/></g><g id="varita" class="sprite"><path fill="none" d="M0 0h180v216H0z"/><path fill="#fff" d="M180 189 90 95l-12 12 90 93z"/><path fill="#fff" d="m62 129 8-44 43-6-38-20 7-43-31 30-39-20 19 39L0 95l43-6zm60-67 9-13 14 5-9-12 9-13-15 5-9-12v15l-14 5 15 5zM25 170l9-10 12 5-7-11 9-10-13 3-7-12-1 14-13 2 12 6zm35 17 8-3 6 6-1-9 8-3-9-2-1-8-4 7-8-1 6 6z"/></g><g id="campana-1" class="sprite"><path fill="none" d="M0 0h180v216H0z"/><path fill="#00293d" d="M90 197c12 0 22-10 22-22h51c13 0 10-23 4-29-4-4-8-6-12-10-20-30 3-77-50-93 1-2 2-5 2-7 0-10-8-17-17-17s-17 7-17 17c0 2 1 5 2 7-53 16-30 63-50 93-4 4-8 6-12 10-6 6-9 29 4 29h51c0 12 10 22 22 22m0-155c-4 0-7-3-7-6 0-4 3-7 7-7s7 3 7 7c0 3-3 6-7 6m71 122c0-11-2-10-9-16-24-21-12-58-28-80-16-21-52-21-68 0-16 22-4 59-28 80-7 6-9 5-9 16zm-60 11c0 15-22 15-22 0z"/></g><g id="campana-2" class="sprite"><path fill="none" d="M0 0h180v216H0z"/><path fill="#003D5C" d="M90 197c12 0 22-10 22-22h51c13 0 10-23 4-29-4-4-8-6-12-10-20-30 3-77-50-93 1-2 2-5 2-7 0-10-8-17-17-17s-17 7-17 17c0 2 1 5 2 7-53 16-30 63-50 93-4 4-8 6-12 10-6 6-9 29 4 29h51c0 12 10 22 22 22"/><path fill="#fff" d="M161 164c0-11-2-10-9-16-24-21-12-58-28-80-16-21-52-21-68 0-16 22-4 59-28 80-7 6-9 5-9 16zm-60 11c0 15-22 15-22 0zM90 42c-4 0-7-3-7-6 0-4 3-7 7-7s7 3 7 7c0 3-3 6-7 6"/></g><g id="menu-ppal-1" class="sprite"><path fill="none" d="M170 216h10V0H0v59h170z"/><rect width="170" height="31.065" x="5" y="37" fill="#003D5C" rx="16" ry="16"/><rect width="170" height="31.065" x="5" y="92" fill="#003D5C" rx="16" ry="16"/><rect width="170" height="31.065" x="5" y="148" fill="#003D5C" rx="16" ry="16"/></g><g id="menu-ppal-2" class="sprite"><path fill="none" d="M170 216h10V0H0v59h170z"/><rect width="170" height="31.065" x="5" y="37" fill="#fff" rx="16" ry="16"/><rect width="170" height="31.065" x="5" y="92" fill="#fff" rx="16" ry="16"/><rect width="170" height="31.065" x="5" y="148" fill="#fff" rx="16" ry="16"/></g><g id="semaforo-1" class="sprite"><path fill="none" d="M0 0h180v216H0z"/><circle cx="90" cy="108" r="90"/><circle cx="90" cy="108" r="41" fill="#0f0"/></g><g id="semaforo-2" class="sprite"><path fill="none" d="M0 0h180v216H0z"/><circle cx="90" cy="108" r="90"/><circle cx="90" cy="108" r="41" fill="#ff0"/></g><g id="semaforo-3" class="sprite"><path fill="none" d="M0 0h180v216H0z"/><circle cx="90" cy="108" r="90"/><circle cx="90" cy="108" r="41" fill="red"/></g><g id="home" class="sprite"><path fill="none" d="M0 0h180v216H0z"/><path fill="#fff" d="M117 58v-6c0-5 4-8 9-8h10c5 0 9 3 9 8v34l14 15c5 4 5 11 0 15h-14v55c0 5-5 9-10 9h-27v-46c0-5-4-9-9-9H81c-5 0-9 4-9 9v46H45c-5 0-10-4-10-9v-55H21c-5-4-5-11 0-15l61-62c4-4 12-4 16 0z"/></g><g id="indicadores" class="sprite"><path fill="none" d="M0 0h180v216H0z"/><path fill="#003D5C" d="M13 179h154v-6H19V37h-6z"/><path fill="#003D5C" d="M167 78v83h-30V78c0-3 3-5 5-5h20c2 0 5 2 5 5m-36-36v119h-29V42c0-2 3-5 5-5h19c2 0 5 3 5 5m-35 71v48H66v-48c0-2 3-5 6-5h19c2 0 5 3 5 5m-36 36v12H31v-12c0-3 3-6 5-6h19c3 0 5 3 5 6"/></g><g id="btn-restablecer" class="sprite"><circle r="25.2" fill="#fff" transform="rotate(135 22.633 72.64)scale(.76172)"/><path fill="#fff" d="M115.174 133.174c1.835-1.821 4.427-1.042 6.67-.73l26.794 3.434c1.857.227 5.464.441 6.691 1.445 1.253 1.025 1.528 2.197 1.522 3.331-.009 1.443-.647 2.133-1.866 3.348-2.242 2.238-7.387 7.388-9.627 9.628.656.657 22.138 21.911 23.011 23.076 1.108 1.48.986 3.544-.372 4.977l-4.314 4.314c-1.433 1.358-3.497 1.48-4.977.372-1.165-.873-22.419-22.355-23.076-23.011-2.24 2.24-7.39 7.385-9.628 9.627-1.215 1.219-1.905 1.857-3.348 1.866-1.134.006-2.306-.269-3.331-1.522-1.004-1.227-1.218-4.834-1.445-6.691l-3.434-26.794c-.312-2.243-1.091-4.835.73-6.67m-50.348-.001c-1.835-1.82-4.428-1.041-6.67-.729l-26.794 3.434c-1.857.226-5.464.441-6.691 1.445-1.253 1.024-1.529 2.196-1.522 3.33.009 1.444.647 2.133 1.865 3.349 2.243 2.237 7.388 7.387 9.628 9.627-.656.658-22.138 21.911-23.011 23.076-1.109 1.481-.986 3.544.372 4.977l4.314 4.314c1.433 1.358 3.497 1.481 4.977.372 1.165-.872 22.419-22.355 23.076-23.011 2.24 2.24 7.39 7.385 9.628 9.628 1.215 1.218 1.905 1.856 3.348 1.865 1.134.007 2.306-.268 3.33-1.522 1.004-1.227 1.219-4.834 1.446-6.691l3.433-26.793c.312-2.243 1.091-4.835-.729-6.671m0-50.347c1.82-1.835 1.041-4.428.729-6.67l-3.433-26.794c-.227-1.857-.442-5.464-1.446-6.691-1.024-1.253-2.196-1.529-3.33-1.522-1.443.009-2.133.647-3.348 1.865-2.238 2.243-7.388 7.388-9.628 9.628-.657-.656-21.911-22.138-23.076-23.011-1.48-1.109-3.544-.986-4.977.372l-4.314 4.314c-1.358 1.433-1.481 3.497-.372 4.977.873 1.165 22.355 22.419 23.011 23.076-2.24 2.24-7.385 7.39-9.628 9.628-1.218 1.215-1.856 1.905-1.865 3.348-.007 1.134.269 2.306 1.522 3.33 1.227 1.004 4.834 1.219 6.691 1.446l26.794 3.433c2.242.312 4.835 1.091 6.67-.729m50.347 0c1.836 1.82 4.428 1.041 6.671.729l26.793-3.433c1.857-.227 5.464-.442 6.691-1.446 1.254-1.024 1.529-2.196 1.522-3.33-.009-1.443-.647-2.133-1.865-3.348-2.243-2.238-7.388-7.388-9.628-9.628.656-.657 22.139-21.911 23.011-23.076 1.109-1.48.986-3.544-.372-4.977l-4.314-4.314c-1.433-1.358-3.496-1.481-4.977-.372-1.165.873-22.418 22.355-23.076 23.011-2.24-2.24-7.39-7.385-9.627-9.628-1.216-1.218-1.905-1.856-3.349-1.865-1.134-.007-2.306.269-3.33 1.522-1.004 1.227-1.219 4.834-1.445 6.691l-3.434 26.794c-.312 2.242-1.091 4.835.729 6.67"/></g><g id="btn-maximizar" class="sprite"><circle r="25.2" fill="#fff" transform="rotate(135.003 22.631 72.638)scale(.3821)"/><path fill="#fff" d="M165.84 183.84c1.821-1.836 1.041-4.428.729-6.67l-3.433-26.794c-.227-1.858-.442-5.464-1.446-6.691-1.024-1.254-2.196-1.529-3.33-1.522-1.444.009-2.133.647-3.349 1.865-2.237 2.243-7.387 7.388-9.627 9.628-.657-.656-21.911-22.138-23.076-23.011-1.481-1.109-3.544-.987-4.977.372l-4.314 4.314c-1.359 1.433-1.481 3.496-.372 4.977.873 1.165 22.355 22.419 23.011 23.076-2.24 2.24-7.385 7.39-9.628 9.627-1.218 1.216-1.856 1.905-1.865 3.349-.007 1.134.268 2.306 1.522 3.33 1.227 1.004 4.833 1.219 6.691 1.446l26.794 3.433c2.242.312 4.834 1.092 6.67-.729m-151.68-.001c-1.821-1.835-1.041-4.427-.729-6.67l3.433-26.794c.227-1.857.442-5.463 1.446-6.691 1.024-1.253 2.196-1.529 3.33-1.521 1.443.009 2.133.646 3.348 1.864 2.238 2.243 7.388 7.388 9.628 9.628.657-.656 21.911-22.138 23.076-23.011 1.48-1.108 3.544-.986 4.977.372l4.314 4.314c1.358 1.433 1.48 3.497.372 4.977-.873 1.165-22.355 22.419-23.011 23.076 2.24 2.24 7.385 7.39 9.628 9.628 1.218 1.215 1.855 1.905 1.865 3.348.007 1.134-.269 2.306-1.522 3.331-1.227 1.004-4.834 1.218-6.691 1.445l-26.794 3.434c-2.242.311-4.835 1.091-6.67-.73m0-151.679c1.835-1.821 4.428-1.041 6.67-.729l26.794 3.433c1.857.227 5.464.442 6.691 1.446 1.253 1.024 1.529 2.196 1.522 3.33-.01 1.443-.647 2.133-1.865 3.348-2.243 2.238-7.388 7.388-9.628 9.628.656.657 22.138 21.911 23.011 23.076 1.108 1.48.986 3.544-.372 4.977l-4.314 4.314c-1.433 1.358-3.497 1.48-4.977.372C56.527 84.482 35.273 63 34.616 62.344c-2.24 2.24-7.39 7.385-9.628 9.628-1.215 1.218-1.905 1.855-3.348 1.865-1.134.007-2.306-.269-3.33-1.522-1.004-1.227-1.219-4.834-1.446-6.691L13.431 38.83c-.312-2.242-1.092-4.835.729-6.67m151.679 0c1.821 1.835 1.041 4.428.73 6.67l-3.434 26.794c-.227 1.857-.441 5.464-1.445 6.691-1.025 1.253-2.197 1.529-3.331 1.522-1.443-.01-2.133-.647-3.348-1.865-2.238-2.243-7.388-7.388-9.628-9.628-.657.656-21.911 22.138-23.076 23.011-1.48 1.108-3.544.986-4.977-.372l-4.314-4.314c-1.358-1.433-1.48-3.497-.372-4.977.873-1.165 22.355-22.419 23.011-23.076-2.24-2.24-7.385-7.39-9.628-9.628-1.218-1.215-1.855-1.905-1.864-3.348-.008-1.134.268-2.306 1.521-3.33 1.228-1.004 4.834-1.219 6.691-1.446l26.794-3.433c2.243-.312 4.835-1.092 6.67.729"/></g><g id="btn-duplicar" class="sprite"><path fill="#00293d" d="M480.7 11H130.4c-11.3 0-20.4 9.1-20.4 20.4v60.3H31.5c-11.3 0-20.4 9.1-20.4 20.4v368.5c0 11.3 9.1 20.4 20.4 20.4h350.3c11.3 0 20.4-9.1 20.4-20.4v-60.3h78.5c11.3 0 20.4-9.1 20.4-20.4V31.4c0-11.3-9.2-20.4-20.4-20.4M361.3 460.2H51.9V132.5h309.4zm98.9-80.7h-58.1V112.1c0-11.3-9.1-20.4-20.4-20.4h-231V51.8h309.4v327.7z"/><path fill="#003D5C" d="M127.8 242.6h157.7c11.3 0 20.4-9.1 20.4-20.4s-9.1-20.4-20.4-20.4H127.8c-11.3 0-20.4 9.1-20.4 20.4s9.1 20.4 20.4 20.4"/><path d="M127.8 390.9h157.7c11.3 0 20.4-9.1 20.4-20.4s-9.1-20.4-20.4-20.4H127.8c-11.3 0-20.4 9.1-20.4 20.4 0 11.2 9.1 20.4 20.4 20.4"/></g><g id="btn-camara" class="sprite"><path d="M373.21 501.801H138.79c-18.07 0-32.718-14.648-32.718-32.718v-65.194h299.857v65.194c-.001 18.07-14.649 32.718-32.719 32.718" style="fill:#999"/><path d="M106.072 61.195h299.857v342.693H106.072z" style="fill:#50a5dc"/><path d="M405.928 61.195H106.072V42.917c0-18.07 14.648-32.718 32.718-32.718h234.422c18.069 0 32.717 14.648 32.717 32.718z" style="fill:#999"/><path d="M258.04 473.243h-4.08c-11.266 0-20.398-9.132-20.398-20.398s9.132-20.398 20.398-20.398h4.08c11.266 0 20.398 9.132 20.398 20.398s-9.132 20.398-20.398 20.398" style="fill:#4d4d4d"/><path d="M95.873 469.084c0 23.664 19.252 42.916 42.917 42.916h234.422c23.664 0 42.916-19.252 42.916-42.916V42.916C416.128 19.252 396.875 0 373.21 0H138.79c-23.665 0-42.917 19.252-42.917 42.916zm20.398-397.69h279.458v322.295H116.271zm0-28.478c0-12.417 10.101-22.518 22.519-22.518h234.422c12.417 0 22.518 10.101 22.518 22.518v8.08H116.271zm279.458 426.168c0 12.417-10.101 22.518-22.519 22.518H138.79c-12.418 0-22.519-10.101-22.519-22.518v-54.996h279.458z"/><path d="M253.96 483.442h4.08c16.872 0 30.598-13.726 30.598-30.598s-13.726-30.598-30.598-30.598h-4.08c-16.872 0-30.598 13.726-30.598 30.598s13.727 30.598 30.598 30.598m0-40.797h4.08c5.624 0 10.199 4.575 10.199 10.199s-4.575 10.199-10.199 10.199h-4.08c-5.624 0-10.199-4.575-10.199-10.199s4.575-10.199 10.199-10.199m-25.726-306.996h-49.748c-5.633 0-10.199 4.567-10.199 10.199v49.748c0 5.632 4.566 10.199 10.199 10.199s10.199-4.567 10.199-10.199v-39.548h39.548c5.633 0 10.199-4.567 10.199-10.199.001-5.632-4.565-10.2-10.198-10.2m0 155.028h-39.548v-39.548c0-5.632-4.566-10.199-10.199-10.199s-10.199 4.567-10.199 10.199v49.748c0 5.632 4.566 10.199 10.199 10.199h49.748c5.633 0 10.199-4.567 10.199-10.199-.001-5.632-4.567-10.2-10.2-10.2m55.532-134.629h39.548v39.548c0 5.632 4.566 10.199 10.199 10.199s10.199-4.567 10.199-10.199v-49.748c0-5.632-4.566-10.199-10.199-10.199h-49.748c-5.633 0-10.199 4.567-10.199 10.199.001 5.633 4.567 10.2 10.2 10.2m0 155.028h49.748c5.633 0 10.199-4.567 10.199-10.199v-49.748c0-5.632-4.566-10.199-10.199-10.199s-10.199 4.567-10.199 10.199v39.548h-39.548c-5.633 0-10.199 4.567-10.199 10.199-.001 5.633 4.565 10.2 10.198 10.2m9.971 54.055h-7.139c-5.633 0-10.199 4.567-10.199 10.199s4.566 10.199 10.199 10.199h7.139c5.633 0 10.199-4.567 10.199-10.199s-4.566-10.199-10.199-10.199m81.594 0h-42.837c-5.633 0-10.199 4.567-10.199 10.199s4.566 10.199 10.199 10.199h42.837c5.633 0 10.199-4.567 10.199-10.199s-4.566-10.199-10.199-10.199"/></g><g id="btn-documento" class="sprite"><g fill-rule="evenodd"><path fill="#107cad" d="M5.11 0A5.07 5.07 0 0 0 0 5v53.88A5.07 5.07 0 0 0 5.11 64h45.78A5.07 5.07 0 0 0 56 58.88v-38.6L37.06 0z"/><path fill="#084968" d="M56 20.35v1H43.18s-6.31-1.26-6.13-6.71c0 0 .21 5.71 6 5.71z"/><path fill="#90d0fe" d="M37.07 0v14.56a5.78 5.78 0 0 0 6.11 5.79H56z" opacity=".5"/></g><path fill="#fff" d="M14.24 53.86h-3a1.08 1.08 0 0 1-1.08-1.08v-9.85a1.08 1.08 0 0 1 1.08-1.08h3a6 6 0 1 1 0 12zm0-10.67h-2.61v9.34h2.61a4.41 4.41 0 0 0 4.61-4.66 4.38 4.38 0 0 0-4.61-4.68m14.42 10.89a5.86 5.86 0 0 1-6-6.21 6 6 0 1 1 11.92 0 5.87 5.87 0 0 1-5.92 6.21m0-11.09c-2.7 0-4.41 2.07-4.41 4.88s1.71 4.88 4.41 4.88 4.41-2.09 4.41-4.88S31.35 43 28.66 43zm18.45.38a.75.75 0 0 1 .2.52.71.71 0 0 1-.7.72.64.64 0 0 1-.51-.24 4.06 4.06 0 0 0-3-1.38 4.61 4.61 0 0 0-4.63 4.88 4.63 4.63 0 0 0 4.63 4.88 4 4 0 0 0 3-1.37.7.7 0 0 1 .51-.24.72.72 0 0 1 .7.74.78.78 0 0 1-.2.51 5.33 5.33 0 0 1-4 1.69 6.22 6.22 0 0 1 0-12.43 5.26 5.26 0 0 1 4 1.72"/></g><g id="btn-pdf" class="sprite"><path d="M475.435 117.825V512H47.791V.002h309.822l54.878 54.879z" style="fill:#b12a27"/><path d="M36.565 34.295h205.097v91.768H36.565z" style="fill:#f2f2f2"/><path d="M110.132 64.379c-.905-2.186-2.111-4.146-3.769-5.804a17.4 17.4 0 0 0-6.031-3.92c-2.412-.98-5.126-1.432-8.141-1.432h-22.54v58.195h11.383V89.481h11.157c3.015 0 5.729-.452 8.141-1.432a17.4 17.4 0 0 0 6.031-3.92c1.659-1.658 2.865-3.543 3.769-5.804a19.5 19.5 0 0 0 1.282-6.935 19.7 19.7 0 0 0-1.282-7.011M97.844 77.118c-1.508 1.432-3.618 2.186-6.181 2.186H81.034V63.323h10.629c2.563 0 4.674.754 6.181 2.261 1.432 1.432 2.186 3.392 2.186 5.804.001 2.338-.753 4.298-2.186 5.73m66.714-1.357c-.075-2.035-.151-3.844-.377-5.503a21.6 21.6 0 0 0-1.131-4.598c-.528-1.357-1.206-2.714-2.111-3.92-2.035-2.94-4.523-5.126-7.312-6.483-2.865-1.357-6.257-2.035-10.252-2.035h-20.956v58.195h20.956c3.995 0 7.387-.678 10.252-2.035 2.789-1.357 5.277-3.543 7.312-6.483.905-1.206 1.583-2.563 2.111-3.92.528-1.432.905-2.94 1.131-4.598s.301-3.468.377-5.503c.075-1.96.075-4.146.075-6.558s0-4.599-.075-6.559M153.175 88.2c0 1.734-.151 3.091-.302 4.297-.151 1.131-.377 2.186-.678 2.94-.301.829-.754 1.583-1.281 2.261-1.885 2.412-4.749 3.543-8.518 3.543h-8.669V63.323h8.669c3.769 0 6.634 1.206 8.518 3.618.528.678.98 1.357 1.281 2.186s.528 1.809.678 3.015c.151 1.131.302 2.563.302 4.221.075 1.659.075 3.694.075 5.955.001 2.263.001 4.223-.075 5.882m60.005-24.877V53.222h-38.37v58.195h11.383V87.823h22.992V77.646h-22.992V63.323z" style="fill:#b12a27"/><path d="M110.132 64.379c-.905-2.186-2.111-4.146-3.769-5.804a17.4 17.4 0 0 0-6.031-3.92c-2.412-.98-5.126-1.432-8.141-1.432h-22.54v58.195h11.383V89.481h11.157c3.015 0 5.729-.452 8.141-1.432a17.4 17.4 0 0 0 6.031-3.92c1.659-1.658 2.865-3.543 3.769-5.804a19.5 19.5 0 0 0 1.282-6.935 19.7 19.7 0 0 0-1.282-7.011M97.844 77.118c-1.508 1.432-3.618 2.186-6.181 2.186H81.034V63.323h10.629c2.563 0 4.674.754 6.181 2.261 1.432 1.432 2.186 3.392 2.186 5.804.001 2.338-.753 4.298-2.186 5.73" style="fill:#b12a27"/><path d="M475.435 117.825V512H47.791v-92.419l199.914-199.914 11.835-11.835 6.558-6.559 10.931-10.93 12.966-12.966L412.491 54.881z" style="opacity:.08;fill:#040000"/><path d="M475.435 117.836H357.599V0z" style="fill:#771b1b"/><path d="M414.376 370.658c-2.488-4.372-5.88-8.518-10.101-12.287-3.467-3.166-7.538-6.106-12.137-8.82-18.544-10.93-45.003-16.207-80.961-16.207h-3.618c-1.96-1.809-3.995-3.618-6.106-5.503-13.644-12.287-24.499-25.63-32.942-40.48 16.584-36.561 24.499-69.126 23.519-96.867q-.226-7.01-2.035-13.117c-1.809-6.558-4.824-12.363-9.046-17.112l-.151-.151c-6.709-7.538-16.056-11.835-25.555-11.835-9.574 0-18.393 4.146-24.801 11.76-6.332 7.538-9.724 17.866-9.875 30.002-.226 18.544 1.281 36.108 4.448 52.315.301 1.282.528 2.563.829 3.844 3.166 14.7 7.84 28.645 13.87 41.611-7.086 14.398-14.247 26.836-19.223 35.279-3.769 6.408-7.915 13.117-12.212 19.826-19.373 3.468-35.807 7.689-50.129 12.966-19.373 7.011-34.902 16.056-46.059 26.836-7.237 6.935-12.137 14.323-14.549 22.012-2.563 7.915-2.412 15.83.452 22.916 2.638 6.558 7.387 12.061 13.72 15.83 1.508.905 3.091 1.658 4.749 2.337 4.825 1.96 10.101 3.015 15.604 3.015 12.74 0 25.856-5.503 36.937-15.378 20.655-18.469 41.988-48.169 54.577-66.94 10.327-1.583 21.559-2.94 34.224-4.297 14.926-1.508 28.118-2.412 40.104-2.865q5.541 4.976 10.629 9.498c18.846 16.81 33.168 28.947 46.134 37.465 0 .075.075.075.151.075 5.126 3.392 10.026 6.181 14.926 8.443 5.503 2.563 11.081 3.92 16.81 3.92 7.237 0 14.021-2.186 19.675-6.181 5.729-4.146 9.875-10.101 11.76-16.81 2.186-8.064.905-17.034-3.618-25.1M247.705 219.667c-1.055-9.348-1.508-19.072-1.357-29.324.151-9.724 3.694-16.283 8.895-16.283 3.92 0 8.066 3.543 9.95 10.327.528 2.035.905 4.372.98 7.01.151 3.166.075 6.483-.075 9.875-.452 9.574-2.111 19.75-4.975 30.681q-2.6 10.517-6.784 21.936c-3.166-10.703-5.428-22.086-6.634-34.222M121.967 418.073c-1.282-3.166.151-9.272 7.991-16.81 11.986-11.458 30.756-20.504 56.914-27.364a358 358 0 0 1-14.624 18.619c-7.237 8.744-14.172 16.132-20.429 21.71-5.352 4.824-11.232 7.84-16.81 8.594q-1.47.226-2.94.226c-4.901.001-8.896-1.959-10.102-4.975m120.461-80.131.528-.829-.829.151c.151-.377.377-.754.603-1.055 3.166-5.352 7.161-12.212 11.458-20.127l.377.829.98-2.035c3.166 4.523 6.634 8.971 10.252 13.267 1.734 2.035 3.543 3.995 5.352 5.955l-1.206.075 1.055.98c-3.091.226-6.332.528-9.574.829-2.035.226-4.146.377-6.257.603-4.371.452-8.668.905-12.739 1.357m126.869 47.038c-8.971-5.729-18.996-13.795-31.359-24.575 17.564 1.809 31.359 5.654 41.159 11.383 4.297 2.488 7.538 5.051 9.724 7.538 3.618 3.844 4.9 7.312 4.221 9.649-.603 2.337-3.241 3.92-6.483 3.92-1.885 0-3.844-.452-5.88-1.432-3.468-1.658-7.086-3.694-10.93-6.181-.151 0-.301-.151-.452-.302" style="fill:#f2f2f2"/></g><g id="activar" class="sprite"><path fill="none" d="M0 0h180v216H0z"/><path fill="#1e6dad" d="M158 94c5 3 8 8 8 14s-3 11-8 14L50 185c-5 3-11 3-17 0-5-3-8-9-8-15V46c0-6 3-12 8-15 6-3 12-3 17 0z"/></g><g id="activar-disabled" class="sprite"><path fill="none" d="M0 0h180v216H0z"/><path fill="#c7c7c7" d="M146 96c4 3 7 7 7 12s-3 9-7 12c-29 17-58 34-88 50-4 3-9 3-13 0-4-2-7-7-7-11V57c0-4 3-9 7-11 4-3 9-3 13 0 30 16 59 33 88 50"/></g><g id="encantar" class="sprite"><path fill="none" d="M0 0h180v216H0z"/><path fill="#1e6dad" d="m64 128 8-41 41-6-37-19 7-41-30 29-37-20 19 38L5 97l41-6z"/><path fill="#51A0E1" d="m121 65 9-12 14 4-9-12 9-12-14 5-9-12v15l-14 5 14 4zM28 168l9-9 12 5-7-11 9-10-13 3-6-11-1 13-13 2 12 5zm35 17 7-4 6 6-1-8 7-4-8-1-1-8-4 7-8-1 6 6z"/><rect width="129.189" height="16.617" fill="#103656" rx="8" ry="8" transform="rotate(46.058 -63.735 146.882)scale(1.03177)"/></g><g id="encantar-disabled" class="sprite"><path fill="none" d="M0 0h180v216H0z"/><path fill="#c7c7c7" d="m64 128 8-41 41-6-37-19 7-41-30 29-37-20 19 38L5 97l41-6zm57-63 9-12 14 4-9-12 9-12-14 5-9-12v15l-14 5 14 4zM28 168l9-9 12 5-7-11 9-10-13 3-6-11-1 13-13 2 12 5zm35 17 7-4 6 6-1-8 7-4-8-1-1-8-4 7-8-1 6 6z"/><rect width="129.189" height="16.617" fill="#c7c7c7" rx="8" ry="8" transform="rotate(46.058 -63.735 146.882)scale(1.03177)"/></g><g id="guardar" class="sprite"><path fill="none" d="M0 0h180v216H0z"/><path fill="#1e6dad" d="M35 187h122c7 0 12-5 12-12V41c0-7-5-12-12-12H23c-7 0-12 5-12 12v122z"/><path fill="#fff" d="M47 119h86c8 0 15-6 15-14V36H33v69c0 8 6 14 14 14m0 65h84v-42c0-5-3-8-7-8H54c-4 0-7 3-7 8z"/><path fill="#103656" d="M60 138h21.395v41.104H60z"/><path fill="#fff" d="M17 36h9.498v9.498H17z"/><path fill="#103656" d="M45 48h89.889v11.52H45zm0 24h89.889v11.52H45zm0 24h89.889v11.52H45z"/></g><g id="guardar-disabled" class="sprite"><path fill="none" d="M0 0h180v216H0z"/><path fill="#c7c7c7" d="M35 187h122c7 0 12-5 12-12V41c0-7-5-12-12-12H23c-7 0-12 5-12 12v122z"/><path fill="#fff" d="M47 119h86c8 0 15-6 15-14V36H33v69c0 8 6 14 14 14m0 65h84v-42c0-5-3-8-7-8H54c-4 0-7 3-7 8z"/><path fill="#c7c7c7" d="M60 138h21.395v41.104H60z"/><path fill="#fff" d="M17 36h9.498v9.498H17z"/><path fill="#c7c7c7" d="M45 48h89.889v11.52H45zm0 24h89.889v11.52H45zm0 24h89.889v11.52H45z"/></g><g id="terminar" class="sprite"><path fill="none" d="M0 0h180v216H0z"/><path fill="#1e6dad" d="M114 104h-1V38c0-5-5-10-10-10H77c-5 0-10 5-10 10v66H24l66 68 66-68z"/><path fill="#103656" d="M167 147v28c0 7-6 13-13 13H26c-7 0-13-6-13-13v-28h9v28c0 3 2 5 5 5h126c3 0 5-2 5-5v-28z"/></g><g id="terminar-disabled" class="sprite"><path fill="none" d="M0 0h180v216H0z"/><path fill="#c7c7c7" d="M114 104h-1V38c0-5-5-10-10-10H77c-5 0-10 5-10 10v66H24l66 68 66-68z"/><path fill="#c7c7c7" d="M167 147v28c0 7-6 13-13 13H26c-7 0-13-6-13-13v-28h9v28c0 3 2 5 5 5h126c3 0 5-2 5-5v-28z"/></g><g id="btn-capturar" class="sprite"><circle cx="100" cy="100" r="60" fill="#fff"/><circle cx="100" cy="100" r="75" fill="none" stroke="#fff" stroke-width="10"/></g><g id="btn-cancelar" class="sprite"><g class="layer"><path id="svg_2" fill="none" stroke="#fff" stroke-width="20" marker-end="url(#mkr_start_end_svg)" marker-start="url(#mkr_start_end_svg)" d="m30 30 140 141.92"/><path id="svg_4" fill="none" stroke="#fff" stroke-width="20" marker-end="url(#mkr_start_end_svg)" marker-start="url(#mkr_start_end_svg)" d="m30 30 140 140" transform="rotate(90 100 100)"/></g><defs><marker id="mkr_start_end_svg" markerHeight="5" markerUnits="strokeWidth" markerWidth="5" orient="auto" refX="50" refY="50" viewBox="0 0 100 100"><circle id="svg_1" cx="50" cy="50" r="5" fill="#fff" stroke="#fff" stroke-width="10"/></marker></defs></g><g id="btn-subir" class="sprite"><path fill="none" stroke="#fff" stroke-width="10" d="M30 126v51.67"/><path id="svg_5" fill="none" stroke="#fff" stroke-width="10" d="M30 178.33h139.83"/><path id="svg_6" fill="none" stroke="#fff" stroke-width="10" d="m170 128 .5 51"/><circle id="svg_7" cx="31" cy="177.33" r="5.5" fill="#fff" stroke="#fff"/><ellipse id="svg_8" cx="170.17" cy="177.67" fill="#fff" stroke="#fff" rx="4.67" ry="5"/><path id="svg_10" fill="none" stroke="#fff" stroke-width="30" d="M100 47.67v108"/><path id="svg_11" fill="none" stroke="#fff" stroke-width="30" d="M113.868 47.167 86.05 62.85V31.484z" transform="rotate(-90.266 99.96 47.167)"/></g><g id="btn-plantilla" class="sprite"><path fill="none" d="M0 0h180v216H0z"/><path fill="#103656" d="M40 128v43c7-1 13-1 19 0 2 0 23 8 27 10 22 8 17 10 38-5 5-4 9-8 14-11 7-5 17-13 24-19 2-1 5-4 7-6 6-8-1-19-15-12-5 2-33 19-39 23-2 1-2 1-3 3-5 9-12 9-21 4-5-2-11-5-17-8v-3c9 3 22 12 29 10 4-1 8-6 7-11 0-5-5-7-9-9-5-2-9-5-14-7-28-13-12-4-47-2m-31-2h21v47H9z"/><path fill="#1e6dad" d="M29 100c0 5 4 8 11 8h101c3 0 5-1 7-2 6-3 4-14-6-14H37c-4 0-8 3-8 8m0-32c0 5 4 8 8 8h105c12 0 13-16-1-16H39c-5 0-10 3-10 8m0-32c0 5 3 9 8 9h45c5 0 12-7 6-14-1-1-4-2-6-2H37c-4 0-8 3-8 7"/></g><g id="btn-clip" class="sprite"><path fill="none" d="M0 0h180v216H0z"/><path fill="#1e6dad" d="M161 55c0 4 0 8-2 11-2 4-4 6-6 8-4 5-8 10-13 15l-66 72c-4 5-9 11-14 14-6 4-15 5-23 3-14-5-22-21-16-35 1-4 3-7 5-9s4-5 6-7c18-20 36-39 53-58 5-5 9-10 14-15 0 0 1-1 1-2 1-3-2-5-5-5-2 1-3 3-4 4L62 83c-9 10-18 19-27 29-4 5-16 17-19 22-6 11-6 23-1 34 10 20 37 26 54 10 3-2 5-5 7-7 2-3 5-5 7-8l76-83c3-4 6-7 8-12 9-23-15-47-38-36-3 1-5 2-7 4-3 2-6 6-8 8l-60 66c-4 4-8 10-8 19 0 4 1 8 3 11l7 7c7 4 15 4 22 0 3-1 6-4 8-6l33-36c3-3 8-8 10-11 3-4-1-8-5-6-1 0-8 8-10 10-9 10-17 19-26 29l-8 9c-4 4-12 7-18 5-2-1-5-4-6-5-3-4-2-10-1-14 2-4 4-6 6-8l53-58c3-3 10-12 13-14 6-5 14-6 22-3 5 2 10 8 12 16"/></g><g id="btn-castigar--todo" class="sprite"><path fill="none" d="M0 0h180v216H0z"/><path fill="#CF0000" d="M90 178 3 135V94l87 42 87-42v41z"/><path fill="#CF0000" d="M90 122 3 80V38l87 43 87-43v42z"/></g><g id="btn-anular--castigo" class="sprite"><path fill="none" d="M0 0h180v216H0z"/><path fill="#0D9900" d="M90 38 3 81v41l87-42 87 42V81z"/><path fill="#0D9900" d="M90 94 3 136v42l87-43 87 43v-42z"/></g><g id="btn-accion-dialogo-2" class="sprite"><path d="M255.97 296.03c28.51 0 54.64-9.15 74.99-24.36 28.63 8.31 62.69 20.56 82.99 33.51 25.67 16.37 41.27 34.53 47.54 71.63 2.9 17.13 3.56 35.58 4.09 53.38.95 32.15 2.93 27.34-32.3 27.34H78.66c-35.24 0-33.25 4.81-32.3-27.34.53-17.8 1.19-36.25 4.08-53.38 6.27-37.1 21.88-55.26 47.54-71.63 20.3-12.95 54.36-25.2 83-33.51 20.35 15.21 46.48 24.36 74.99 24.36m0-241.75c57.14 0 103.46 46.32 103.46 103.47 0 57.14-46.32 103.46-103.46 103.46s-103.46-46.32-103.46-103.46c0-57.15 46.32-103.47 103.46-103.47"/><path fill="#fff" d="M347.46 445.93h41.2v-50.29h50.29v-41.2h-50.29v-50.29h-41.2v50.29h-50.28v41.2h50.28z"/></g><g id="btn-toggle-clases" class="sprite"><path fill="none" d="M0 0h180v216H0z"/><circle cx="90" cy="108" r="71" fill="#1e6dad"/><path fill="#fff" d="M69 107H53c-17 0-12 7-5 15 10 13 19 23 31 34 4 5 7 6 11 6s7-1 11-6c12-11 21-21 31-34 7-8 12-15-5-15h-16c-2-9-2-26-3-35-1-12 0-20-18-21-18 1-17 9-18 21-1 9-1 26-3 35"/></g><g id="buscar" class="sprite"><path fill="none" d="M0 0h180v216H0z"/><rect width="84.272" height="35.692" fill="#1e6dad" rx="18" ry="18" transform="rotate(-45 202.309 76.1)scale(1 1.07824)"/><circle r="59" fill="#1e6dad" transform="rotate(45 -57.07 174.361)scale(1.0226)"/><circle r="39" fill="#fff" transform="rotate(45 -57.069 174.361)"/><path fill="#1e6dad" d="M122 68c6 1 13 12 14 18 2 7 3 24-7 22-7-1-5-8-4-10 1-7-2-14-6-17-8-7-2-13 3-13"/></g><g id="buscar-disabled" class="sprite"><path fill="none" d="M0 0h180v216H0z"/><rect width="84.272" height="35.692" fill="#c7c7c7" rx="18" ry="18" transform="rotate(-45 202.309 76.1)scale(1 1.07824)"/><circle r="59" fill="#c7c7c7" transform="rotate(45 -57.07 174.361)scale(1.0226)"/><circle r="39" fill="#fff" transform="rotate(45 -57.069 174.361)"/><path fill="#c7c7c7" d="M122 68c6 1 13 12 14 18 2 7 3 24-7 22-7-1-5-8-4-10 1-7-2-14-6-17-8-7-2-13 3-13"/></g><g id="help-desk" class="sprite"><circle cx="67" cy="116" r="12"/><circle cx="111" cy="116" r="12"/><path d="M110 146c0 8-9 15-20 15s-19-7-20-15c6 3 13 4 20 4 8 0 15-1 20-4m25-47c5 1 8 2 7-3-4-28-26-49-52-49-29 0-53 27-53 60v5c2-3 3-5 5-7 3-2 5-3 12-3 15 1 43-9 58-30 2 21 12 22 23 27"/><path d="M82 177c-22-3-40-20-49-42-1-6-5-6-8-10-7-9-6-24 0-31 3-5 4-3 9-15 9-24 31-41 56-41s47 17 56 41c5 12 6 10 9 15 6 7 7 22 0 31-2 2-4 3-6 5-2 3-6 0-5-5q3-7.5 3-18c0-35-26-64-57-64s-57 30-57 64c0 35 22 60 50 64 0-1 1-1 3-1s4 2 4 4c0 3-2 4-4 4s-3 0-4-1"/></g><g id="delete-warning" class="sprite"><circle r="257" fill="#d32f2f" transform="rotate(134.998 31.633 76.369)scale(.4206)"/><rect width="316.036" height="67.816" fill="#FEFEFE" rx="16" ry="16" transform="rotate(45 -25.922 111.274)scale(.4206)"/><rect width="316.036" height="67.816" fill="#FEFEFE" rx="16" ry="16" transform="rotate(135 67.818 69.735)scale(.4206)"/></g><g id="search" class="sprite"><path d="m348.55 290.33 112.54 112.54c6.5 6.5 6.5 17.14 0 23.64l-34.65 34.65c-6.5 6.5-17.13 6.5-23.63 0L290.27 348.61c-6.5-6.5-6.5-17.13 0-23.63l-42.94-42.94c-50.21 34.03-119.08 28.81-163.56-15.67-50.4-50.41-50.4-132.13 0-182.53 50.41-50.41 132.13-50.41 182.54 0 44.48 44.48 49.69 113.34 15.67 163.56l42.93 42.93c6.5-6.5 17.14-6.5 23.64 0"/><path fill="#fff" stroke="#000" stroke-miterlimit="2.613" stroke-width=".18" d="M233.35 116.79c32.2 32.21 32.2 84.42 0 116.62-32.21 32.21-84.42 32.21-116.62 0-32.2-32.2-32.2-84.41 0-116.62 32.2-32.2 84.41-32.2 116.62 0z"/></g><path id="btn-rotar" fill="#FFF" d="M59.02 55.4c36.61-33.66 97.41-10.9 101.36 39.83h-20l29.13 37.98 29.12-37.98h-20C174.64 28.47 94.79-2.21 46.7 41.99zm81.96 89.2c-36.61 33.66-97.41 10.9-101.36-39.83h20L30.49 66.79 1.37 104.77h20c3.99 66.76 83.84 97.44 131.93 53.24z" class="sprite"/><path id="kiux" fill="#fff" d="M15 37h-4V18h4v6l5-7h4l-7 10 7 10h-4l-5-7zm14 0h-3V18h3zm12-19v15h-6V18h-3v17c0 1 0 2 1 2h10s1-1 1-2V18zm18 0-4-1-3 6-2-6-4 1 4 9-4 10h4l2-5 3 5h4l-5-10z" class="sprite"/><path id="hb-1000" fill="none" d="M0 216h180V0H0z" class="sprite"/><path id="cro0" fill="none" d="M0 216h180V0H0z"/><path id="btn-imagen" fill-rule="evenodd" d="M474.188 259.776h6.655l-3.293-3.293-3.174 3.174a.5.5 0 0 1-.188.119m-.188-1.157v-10.843h12v7.193l-2.342-2.342a.504.504 0 0 0-.752.054l-3.872 3.872-1.115-1.115a.5.5 0 0 0-.411-.143.5.5 0 0 0-.333.149zm8.257 1.157H486v-3.399l-.003.003-2.688-2.688-3.568 3.568zm4.743-.37.96.136a1.006 1.006 0 0 0 1.138-.857l1.668-11.87a1.006 1.006 0 0 0-.857-1.137l-11.87-1.668a1.006 1.006 0 0 0-1.137.857l-.268 1.909h-2.627c-.557 0-1.007.45-1.007 1.007v11.986c0 .557.45 1.007 1.007 1.007h11.986c.557 0 1.007-.45 1.007-1.007zm0-1.009 1.107.156 1.67-11.884-11.884-1.67-.25 1.777h8.35c.556 0 1.007.45 1.007 1.007z" class="sprite" transform="translate(-473 -244)"/><path id="btn-accion-dialogo-1" d="M200.9 448.51V299.15L48.97 73.36c-6.17-7.11-3.52-26.65 14.48-27.25h384.92c10.45 0 23.73 12.34 14.48 27.25L310.92 299.15v92.72c0 5.48-2.57 10.62-6.94 13.96l-75.06 56.65c-4.29 4.79-25.8 7.96-28.02-13.97M96.35 81.07l136.59 203c1.97 2.91 3 6.26 3 9.77v119.62l40.1-30.25v-89.37c0-3.51 1.03-6.86 3-9.77l136.42-203z" class="sprite"/><path id="duplicar-registro-success" d="M213.333 0C95.518 0 0 95.514 0 213.333s95.518 213.333 213.333 213.333" class="sprite" style="fill:#1e6dad"/></defs></svg>